<svg width="220" height="44" viewBox="0 0 220 44" fill="none" xmlns="http://www.w3.org/2000/svg">
<g clip-path="url(#clip0)" filter="url(#filter0_f)">
<path d="M172.407 5.66634C171.708 7.05279 171.918 8.04312 173.667 10.6675C175.276 13.1433 175.276 13.1928 174.017 14.3812C172.127 16.0647 170.588 20.026 170.588 22.9475C170.728 32.009 182.624 38.6441 198.927 38.7432C204.315 38.7927 205.855 38.5946 209.284 37.4557C212.572 36.4159 213.552 35.8217 214.392 34.3362C215.441 32.5041 215.441 32.3556 211.873 24.7796C207.674 15.9657 206.695 14.6288 202.286 11.8559C196.338 8.14215 187.242 7.39941 180.804 10.0733L177.795 11.3112L176.676 9.47909C176.046 8.48876 175.416 7.10231 175.346 6.40908C175.136 4.97311 173.107 4.47795 172.407 5.66634ZM194.939 13.1433C197.738 13.9355 201.027 15.9657 202.216 17.5502C202.636 18.0949 204.525 21.6601 206.345 25.4728C210.193 33.544 210.193 33.6925 203.616 34.6828C196.408 35.7227 186.122 33.841 181.154 30.5235C176.536 27.4039 174.926 22.4028 177.236 18.392C180.174 13.4404 188.081 11.0636 194.939 13.1433Z" fill="#CCA950"/>
<path d="M12.867 9.52861C7.75893 11.6083 7.19914 12.9452 6.98922 25.8194L6.7793 37.1091L10.6279 37.1091L14.5464 37.1091L14.5464 26.5127C14.5464 17.0551 14.6863 15.8172 15.8059 14.8268C17.2054 13.5889 20.2143 13.3414 21.8936 14.3317C22.8033 14.8268 22.9433 16.758 22.9433 26.0175L22.9433 37.1091L26.7918 37.1091L30.6404 37.1091L30.6404 26.5622C30.6404 14.4307 30.9203 13.688 35.3986 13.9355C39.4571 14.1831 39.737 15.0249 39.737 26.8098L39.737 37.1091L43.2357 37.1091L46.7344 37.1091L46.7344 25.5223C46.7344 14.3317 46.6644 13.9355 45.125 12.3015C41.4863 8.48877 34.4889 7.20135 29.4508 9.38006C27.1417 10.3704 27.1417 10.3704 24.9025 9.38006C21.6837 7.9936 16.4357 8.09264 12.867 9.52861Z" fill="#CCA950"/>
<path d="M67.0268 8.83538C63.5281 9.33054 60.4493 10.618 58.2801 12.4501C54.7114 15.421 54.4315 16.5104 54.4315 27.2059L54.4315 37.1091L57.9302 37.1091L61.3589 37.1091L61.5688 34.2372L61.7788 31.4148L70.0357 31.2662L78.2226 31.1177L78.2226 34.1382L78.2226 37.1091L82.0712 37.1091L85.9197 37.1091L85.9197 27.3049C85.9197 18.0454 85.8498 17.4017 84.2404 14.9754C82.2811 12.0044 78.0827 9.57812 74.0942 9.08296C72.6947 8.93441 71.0853 8.73635 70.5255 8.63732C69.9657 8.5878 68.3563 8.68683 67.0268 8.83538ZM73.7443 14.6288C77.173 15.7677 78.2226 17.5502 78.2226 22.0067L78.2226 25.7699L70.0357 25.6214L61.7788 25.4728L61.8487 21.7096C61.9187 17.4512 62.9683 15.8667 66.537 14.6288C69.4059 13.6385 70.8054 13.6385 73.7443 14.6288Z" fill="#CCA950"/>
<path d="M93.6168 22.7494L93.6168 37.1091L97.4654 37.1091L101.314 37.1091L101.454 27.6515L101.664 18.1939L109.361 27.6515L117.058 37.0596L121.117 37.1091L125.105 37.1091L125.105 22.7494L125.105 8.38974L121.606 8.38974L118.108 8.38974L118.108 17.7978C118.108 22.9475 117.898 27.2059 117.618 27.2059C117.268 27.2059 113.629 22.9475 109.361 17.7978L101.664 8.38974L97.6753 8.38974L93.6168 8.38974L93.6168 22.7494Z" fill="#CCA950"/>
<path d="M145.187 9.08288C138.89 10.7169 134.132 14.2326 132.032 18.689C130.843 21.1648 131.543 27.0572 133.362 29.434C135.111 31.9098 139.24 34.6827 142.948 36.0197C148.896 38.1489 157.013 37.8518 162.401 35.3264L164.99 34.1381L164.99 28.6913L164.99 23.2445L161.491 23.2445L157.993 23.2445L157.993 27.1068C157.993 30.8205 157.923 31.0185 156.243 31.5632C153.724 32.3555 150.016 32.306 146.937 31.4147C141.689 29.8302 138.96 26.9582 138.82 22.9969C138.75 15.9161 149.666 11.4597 158.343 15.0248L161.211 16.2132L163.101 13.8859L164.99 11.5092L161.351 10.1227C156.943 8.43916 149.456 7.944 145.187 9.08288Z" fill="#CCA950"/>
</g>
<defs>
<filter id="filter0_f" x="-5" y="0" width="225" height="47" filterUnits="userSpaceOnUse" color-interpolation-filters="sRGB">
<feFlood flood-opacity="0" result="BackgroundImageFix"/>
<feBlend mode="normal" in="SourceGraphic" in2="BackgroundImageFix" result="shape"/>
<feGaussianBlur stdDeviation="2.5" result="effect1_foregroundBlur"/>
</filter>
<clipPath id="clip0">
<rect width="215" height="37" fill="white" transform="translate(0 5)"/>
</clipPath>
</defs>
</svg>
