<svg width="225" height="47" viewBox="0 0 225 47" fill="none" xmlns="http://www.w3.org/2000/svg">
<g filter="url(#filter0_f)">
<g clip-path="url(#clip0)">
<path d="M177.407 5.66634C176.708 7.05279 176.918 8.04312 178.667 10.6675C180.276 13.1433 180.276 13.1928 179.017 14.3812C177.127 16.0647 175.588 20.026 175.588 22.9475C175.728 32.009 187.624 38.6441 203.927 38.7432C209.315 38.7927 210.855 38.5946 214.284 37.4557C217.572 36.4159 218.552 35.8217 219.392 34.3362C220.441 32.5041 220.441 32.3556 216.873 24.7796C212.674 15.9657 211.695 14.6288 207.286 11.8559C201.338 8.14215 192.242 7.39941 185.804 10.0733L182.795 11.3112L181.676 9.47909C181.046 8.48876 180.416 7.10231 180.346 6.40908C180.136 4.97311 178.107 4.47795 177.407 5.66634ZM199.939 13.1433C202.738 13.9355 206.027 15.9657 207.216 17.5502C207.636 18.0949 209.525 21.6601 211.345 25.4728C215.193 33.544 215.193 33.6925 208.616 34.6828C201.408 35.7227 191.122 33.841 186.154 30.5235C181.536 27.4039 179.926 22.4028 182.236 18.392C185.174 13.4404 193.081 11.0636 199.939 13.1433Z" fill="#CCA950"/>
<path d="M17.867 9.52861C12.7589 11.6083 12.1991 12.9452 11.9892 25.8194L11.7793 37.1091L15.6279 37.1091L19.5464 37.1091L19.5464 26.5127C19.5464 17.0551 19.6863 15.8172 20.8059 14.8268C22.2054 13.5889 25.2143 13.3414 26.8936 14.3317C27.8033 14.8268 27.9433 16.758 27.9433 26.0175L27.9433 37.1091L31.7918 37.1091L35.6404 37.1091L35.6404 26.5622C35.6404 14.4307 35.9203 13.688 40.3986 13.9355C44.4571 14.1831 44.737 15.0249 44.737 26.8098L44.737 37.1091L48.2357 37.1091L51.7344 37.1091L51.7344 25.5223C51.7344 14.3317 51.6644 13.9355 50.125 12.3015C46.4863 8.48877 39.4889 7.20135 34.4508 9.38006C32.1417 10.3704 32.1417 10.3704 29.9025 9.38006C26.6837 7.9936 21.4357 8.09264 17.867 9.52861Z" fill="#CCA950"/>
<path d="M72.0268 8.83538C68.5281 9.33054 65.4493 10.618 63.2801 12.4501C59.7114 15.421 59.4315 16.5104 59.4315 27.2059L59.4315 37.1091L62.9302 37.1091L66.3589 37.1091L66.5688 34.2372L66.7788 31.4148L75.0357 31.2662L83.2226 31.1177L83.2226 34.1382L83.2226 37.1091L87.0712 37.1091L90.9197 37.1091L90.9197 27.3049C90.9197 18.0454 90.8498 17.4017 89.2404 14.9754C87.2811 12.0044 83.0827 9.57812 79.0942 9.08296C77.6947 8.93441 76.0853 8.73635 75.5255 8.63732C74.9657 8.5878 73.3563 8.68683 72.0268 8.83538ZM78.7443 14.6288C82.173 15.7677 83.2226 17.5502 83.2226 22.0067L83.2226 25.7699L75.0357 25.6214L66.7788 25.4728L66.8487 21.7096C66.9187 17.4512 67.9683 15.8667 71.537 14.6288C74.4059 13.6385 75.8054 13.6385 78.7443 14.6288Z" fill="#CCA950"/>
<path d="M98.6168 22.7494L98.6168 37.1091L102.465 37.1091L106.314 37.1091L106.454 27.6515L106.664 18.1939L114.361 27.6515L122.058 37.0596L126.117 37.1091L130.105 37.1091L130.105 22.7494L130.105 8.38974L126.606 8.38974L123.108 8.38974L123.108 17.7978C123.108 22.9475 122.898 27.2059 122.618 27.2059C122.268 27.2059 118.629 22.9475 114.361 17.7978L106.664 8.38974L102.675 8.38974L98.6168 8.38974L98.6168 22.7494Z" fill="#CCA950"/>
<path d="M150.187 9.08288C143.89 10.7169 139.132 14.2326 137.032 18.689C135.843 21.1648 136.543 27.0572 138.362 29.434C140.111 31.9098 144.24 34.6827 147.948 36.0197C153.896 38.1489 162.013 37.8518 167.401 35.3264L169.99 34.1381L169.99 28.6913L169.99 23.2445L166.491 23.2445L162.993 23.2445L162.993 27.1068C162.993 30.8205 162.923 31.0185 161.243 31.5632C158.724 32.3555 155.016 32.306 151.937 31.4147C146.689 29.8302 143.96 26.9582 143.82 22.9969C143.75 15.9161 154.666 11.4597 163.343 15.0248L166.211 16.2132L168.101 13.8859L169.99 11.5092L166.351 10.1227C161.943 8.43916 154.456 7.944 150.187 9.08288Z" fill="#CCA950"/>
</g>
<rect x="5.5" y="5.5" width="214" height="36" stroke="black"/>
</g>
<defs>
<filter id="filter0_f" x="0" y="0" width="225" height="47" filterUnits="userSpaceOnUse" color-interpolation-filters="sRGB">
<feFlood flood-opacity="0" result="BackgroundImageFix"/>
<feBlend mode="normal" in="SourceGraphic" in2="BackgroundImageFix" result="shape"/>
<feGaussianBlur stdDeviation="2.5" result="effect1_foregroundBlur"/>
</filter>
<clipPath id="clip0">
<rect x="5" y="5" width="215" height="37" fill="white"/>
</clipPath>
</defs>
</svg>
