<svg width="271" height="301" viewBox="0 0 271 301" fill="none" xmlns="http://www.w3.org/2000/svg">
<g opacity="0.05" clip-path="url(#clip0)" filter="url(#filter0_f)">
<path d="M33.6252 113.866C33.8548 114.01 34.7447 116.415 35.639 119.247C36.8888 123.357 38.2176 125.932 42.2224 131.763C44.9635 135.802 50.3635 144.196 54.1634 150.429C58.0296 156.65 61.7125 162.597 62.4461 163.69C65.5136 168.038 82.0517 182.811 92.3658 190.365C94.4827 191.952 97.3749 194.076 98.7163 195.126C100.068 196.234 105.424 200.374 110.56 204.428C129.1 218.92 146.697 229.492 164.228 236.482C173.629 240.295 179.108 243.56 182.024 247.02C184.017 249.481 187.159 251.867 187.522 251.195C187.738 250.854 184.318 240.05 183.366 238.081C182.841 237.014 182.346 236.916 179.281 237.379C177.412 237.638 174.848 237.833 173.735 237.718C172.356 237.65 173.342 237.42 176.494 237.064C179.18 236.787 181.637 236.367 181.939 236.133C182.42 235.746 181.998 234.478 179.866 229.605C179.321 228.419 179.045 228.405 169.616 230.018C164.303 230.927 159.701 231.592 159.471 231.449C159.242 231.305 163.461 230.401 168.774 229.492C174.153 228.572 178.495 227.586 178.455 227.349C178.414 227.113 177.329 225.166 176.071 223.006L173.846 219.185L161.647 221.393L149.449 223.601L158.322 221.535C163.186 220.399 168.428 219.076 169.925 218.637L172.719 217.794L169.61 214.001C166.664 210.364 166.511 210.268 164.513 210.975C160.196 212.505 152.547 214.544 150.014 214.917C147.082 215.357 147.215 215.334 157.74 212.133C161.643 210.979 165.062 209.785 165.22 209.514C165.445 209.232 164.289 207.664 162.627 205.938L159.772 202.833L153.733 204.292C150.443 205.038 144.052 206.435 139.49 207.337L131.24 209.053L141.392 206.464C154.302 203.22 158.404 202.032 158.333 201.617C158.283 201.321 150.66 193.916 148.416 191.985C148.176 191.783 144.641 192.692 140.568 194.058C136.486 195.366 131.096 197.018 128.603 197.627C124.071 198.707 124.071 198.707 127.566 197.561C137.141 194.401 146.62 191.074 146.855 190.851C146.978 190.77 145.259 189.115 143.168 187.28C139.802 184.384 138.991 184.035 137.637 184.51C136.727 184.788 131.842 186.598 126.702 188.512C121.561 190.427 116.779 192.037 116.048 192.161C115.308 192.227 116.575 191.645 118.885 190.763C126.146 188.059 137.087 183.691 137.567 183.304C137.803 183.081 137.079 182.048 135.881 181.035C131.653 177.495 130.591 176.884 129.59 177.421C127.852 178.449 113.866 183.399 110.265 184.32L106.663 185.24L109.882 184.08C117.041 181.577 128.17 177.116 128.83 176.576C129.858 175.792 122.192 169.733 120.868 170.386C118.088 171.714 103.96 176.628 100.547 177.455C98.3859 178.007 97.3234 178.189 98.2227 177.852C112.852 172.671 120.082 169.79 119.961 169.08C119.88 168.606 118.702 167.711 112.825 163.722L109.81 161.68L107.173 163.045C102.9 165.237 91.9594 169.605 91.0556 169.516C90.6369 169.466 91.3168 169.045 92.5381 168.593C93.7593 168.14 98.0163 166.255 101.941 164.427C108.457 161.363 109.004 160.965 108.056 160.214C107.5 159.761 106.581 159.187 106.076 159.03C105.637 158.861 105.148 158.397 105.077 157.983C105.006 157.568 106.889 158.586 109.215 160.198L113.541 163.113L115.649 160.255C120.787 153.529 125.866 142.063 126.33 136.381C126.403 135.211 126.604 134.385 126.767 134.54C126.92 134.636 126.984 136.208 126.889 138.052C126.6 143.156 121.69 154.41 116.976 160.82L114.811 163.748L118.52 166.646C120.57 168.244 122.503 169.558 122.789 169.631C123.494 169.754 128.581 162.733 131.531 157.6C134.163 153.008 135.45 149.743 136.448 145.187C136.875 143.287 137.228 142.556 137.426 143.314C138.191 147.386 133.578 157.98 127.693 165.93C125.855 168.376 124.376 170.517 124.34 170.706C124.411 171.12 127.191 173.385 130.455 175.689L133.011 177.445L137.381 171.825C142.135 165.653 145.93 158.669 147.067 153.725C147.514 151.943 148.026 150.942 148.173 151.404C148.718 152.589 145.737 161.139 143.377 165.318C142.322 167.143 139.757 170.932 137.695 173.66C134 178.433 133.964 178.622 135.285 179.553C136.051 180.031 137.815 181.557 139.274 182.891C140.742 184.284 142.349 185.288 142.814 185.209C143.611 185.072 149.362 177.937 152.787 172.784C154.686 169.901 157.878 163.386 158.843 160.237C159.947 156.699 160.153 158.308 159.08 162.024C157.468 167.781 153.883 173.997 147.384 182.356L144.017 186.647L147.5 189.828C149.361 191.519 151.106 192.926 151.438 192.869C151.703 192.824 154.558 189.534 157.644 185.596C162.137 179.894 165.828 173.903 169.251 166.74C169.363 166.599 169.629 166.554 169.869 166.756C171.17 167.569 162.613 181.883 156.166 189.746C154.355 191.944 152.942 194.074 153.003 194.429C153.216 195.671 158.199 199.631 158.858 199.091C162.442 196.469 171.483 185.787 175.231 179.725C178.774 174.064 179.274 173.796 176.697 179.109C174.884 182.891 165.018 195.541 161.504 198.578C160.441 199.552 159.51 200.503 159.56 200.798C159.601 201.035 160.534 202.094 161.543 203.2C164.501 206.105 167.972 210.018 170.678 213.453L173.115 216.508L177.215 213.31C185.662 206.749 191.991 199.393 193.864 193.957C194.428 192.46 194.904 191.648 194.985 192.121C195.268 193.778 190.203 202.927 187.308 205.98C185.748 207.648 182.387 210.781 179.759 212.996C173.607 218.19 173.879 217.778 175.352 219.597C176.045 220.453 177.028 221.807 177.579 222.627C178.429 224.004 178.715 224.077 180.274 223.201C184.971 220.692 193.058 212.427 196.514 206.659C198.429 203.469 198.797 203.223 197.798 205.77C196.069 210.45 187.597 220.061 181.652 224.062C180.614 224.787 179.699 225.431 179.642 225.502C179.238 225.936 182.134 232.079 182.793 232.332C184.309 232.804 196.182 223.099 199.641 218.549C201.985 215.468 201.687 216.92 199.317 220.249C197.219 223.166 190.289 229.406 185.806 232.365C184.456 233.266 183.285 234.014 183.219 234.026C183.153 234.037 183.631 235.234 184.206 236.598C186.338 241.471 189.086 250.745 189.326 253.749C189.431 255.559 190.289 258.579 191.322 261.021C193.754 266.452 202.804 282.201 207.456 289.018C211.277 294.577 212.121 297.113 211.35 300.594C210.743 303.439 211.524 303.61 214.331 301.242C216.422 299.483 216.674 298.953 216.329 296.941C216.117 295.698 215.278 293.589 214.503 292.259C212.869 289.494 212.869 289.494 207.446 282.564C202.446 276.111 197.414 267.47 194.362 260.014C191.029 252.118 190.914 251.042 193.14 247.677C195.086 244.664 198.72 235.942 197.99 236.067C197.724 236.113 197.863 235.724 198.18 235.182C199.547 233.182 201.815 220.065 201.685 214.91C201.48 205.323 197.604 192.648 191.386 181.469L188.702 176.569L188.08 179.72C187.09 185.127 184.924 188.847 177.93 197.109C177.076 198.107 176.135 198.999 175.803 199.056C175.471 199.113 174.878 199.64 174.494 200.193C174.11 200.746 173.517 201.274 173.118 201.342C172.72 201.41 173.15 200.728 174.081 199.777C179.661 194.437 185.143 186.13 186.72 180.562C187.803 176.905 186.441 172.936 182.648 168.346C178.336 163.115 175.883 161.16 164.506 153.787C159.588 150.608 153.013 146.13 149.881 143.803C142.066 138.075 131.01 131.378 125.197 128.962C122.544 127.832 120.206 126.953 120.007 126.987C119.675 127.044 111.304 124.456 107.307 123.068C106.715 122.804 104.99 122.307 103.474 121.836C101.902 121.435 99.1354 120.446 97.283 119.606C93.3125 117.971 87.0189 115.941 83.3994 115.159C82.0567 114.901 79.6471 114.4 78.0849 114.058C69.0846 112.187 57.4064 111.443 43.898 111.988C38.5304 112.175 33.8269 112.248 33.541 112.175C32.8827 111.923 33.013 113.484 33.6252 113.866ZM52.2529 124.871C51.6204 124.37 51.6217 123.578 52.4008 121.74C52.9187 120.372 53.1521 118.14 52.9958 116.826L52.6574 114.448L53.6453 116.228C54.5061 117.664 54.5352 118.634 53.9237 121.053C53.5329 122.764 53.2388 124.642 53.34 125.233C53.5526 126.476 50.4087 128.475 47.4767 128.916C46.4142 129.098 47.1402 128.547 49.4657 127.358C52.3585 125.888 52.9517 125.361 52.2529 124.871ZM51.2272 134.06C51.7888 134.147 51.62 134.359 50.8895 134.484C50.1691 134.668 49.7403 134.558 49.9756 134.335C50.1445 134.124 50.732 133.962 51.2272 134.06ZM56.0337 130.193C56.8217 129.206 57.926 128.469 58.4775 128.496C59.6007 128.669 54.65 133.292 53.1226 133.553C52.3157 133.631 52.3618 133.501 53.2668 132.798C53.9366 132.318 55.1692 131.133 56.0337 130.193ZM64.902 134.889C65.8127 133.819 66.6716 133.246 66.9878 133.497C67.8138 134.33 60.425 140.283 58.2235 140.599C57.7586 140.678 58.7098 139.846 60.3048 138.781C61.9662 137.705 64.0577 135.947 64.902 134.889ZM71.1223 144.483C71.7054 143.896 72.9741 142.522 73.9411 141.382C75.4247 139.667 75.992 139.387 77.212 139.726C78.8608 140.175 79.2346 139.563 82.0596 132.502C83.2802 129.248 83.5742 127.371 83.3205 123.09L83.094 117.769L83.8157 123.188C84.5431 128.241 84.4553 128.926 82.5827 134.362C80.6235 139.691 80.3623 140.162 78.5029 140.48C77.374 140.673 75.636 141.701 74.4034 142.887C72.286 144.893 66.1267 148.444 64.3799 148.62C63.915 148.7 64.963 148.034 66.7876 147.112C68.6121 146.191 70.5291 145.011 71.1223 144.483ZM61.7618 128.117C62.1197 127.812 62.1513 127.198 61.8711 126.759C61.591 126.319 61.6169 126.071 61.9793 126.192C62.7142 126.493 63.8316 120.637 63.4369 118.33C63.275 117.383 63.4091 116.568 63.8075 116.5C64.1395 116.443 64.5323 116.741 64.593 117.096C65.0225 120.007 63.0141 130.644 62.018 130.814C61.2211 130.95 61.0357 128.668 61.7618 128.117ZM77.9067 152.58C79.3228 151.668 81.6495 149.687 83.1737 148.208C84.7642 146.718 86.2163 145.617 86.456 145.819C86.9917 146.154 87.1144 146.072 81.9803 150.422C78.5695 153.259 71.342 157.357 69.1866 157.543C68.7882 157.611 70.0253 156.852 71.9264 155.978C73.8174 155.046 76.5008 153.551 77.9067 152.58ZM63.3521 113.837C64.3457 115.251 64.5032 115.772 63.8391 115.886C63.5735 115.931 63.1864 115.266 62.9581 114.331C62.6589 112.981 62.6488 112.922 63.3521 113.837ZM71.4598 131.27C73.4582 126.969 74.0349 123.947 73.8129 119.052L73.7211 115.718L74.3903 118.832C75.3125 123.424 72.5609 135.71 70.5023 136.062C69.4398 136.244 69.6763 135.229 71.4598 131.27ZM97.3823 153.756C97.5411 153.485 96.4956 152.568 95.108 151.648C93.654 150.74 92.828 149.906 93.2928 149.827C93.7577 149.747 94.1302 149.927 94.1909 150.282C94.2415 150.578 94.9303 151.009 95.6449 151.191C96.7985 151.542 97.3152 150.966 99.5995 146.738C102.601 141.109 104.181 136.758 105.092 132.096C105.911 127.692 106.324 128.109 105.821 132.763C105.298 137.298 103.267 143.005 100.302 148.445L98.0072 152.614L100.037 154.094C101.139 154.941 102.542 155.553 103.14 155.451C104.8 155.167 111.285 146.323 112.971 142.198C113.73 140.241 114.548 136.63 114.761 134.279C115.279 129.318 115.667 129.983 115.505 135.431C115.359 140.572 113.011 146.028 108.38 152.119L104.348 157.316L101.766 155.808L99.2506 154.289L89.4794 158.701C84.1542 161.135 79.4425 163.158 79.0441 163.227C78.6355 163.236 82.5301 161.23 87.6358 158.712C92.818 156.242 97.1471 153.979 97.3823 153.756ZM85.6394 171.417C86.201 171.504 86.0321 171.715 85.3017 171.84C84.5813 172.024 84.1525 171.915 84.3878 171.692C84.5566 171.48 85.1442 171.319 85.6394 171.417ZM83.4771 143.588C84.2683 143.818 84.9571 144.249 85.0077 144.544C85.0684 144.899 84.4303 144.765 83.6087 144.357C82.777 143.891 82.0883 143.46 82.068 143.342C82.0579 143.283 82.6859 143.358 83.4771 143.588ZM95.4583 178.873C96.1527 178.937 95.6417 179.146 94.38 179.362C93.1182 179.578 92.5667 179.551 93.134 179.271C93.7779 179.039 94.8404 178.857 95.4583 178.873ZM90.3891 142.041C93.2477 136.375 94.8534 131.776 95.3403 127.429C95.7741 124.371 95.8304 124.3 96.1542 126.194C96.3465 127.318 95.943 130.554 95.193 133.362C93.0049 141.35 88.6456 149.83 88.17 147.049C88.1295 146.812 89.1135 144.573 90.3891 142.041ZM90.6302 147.846C90.763 147.823 91.1659 148.181 91.4562 148.679C91.7364 149.119 91.7104 149.367 91.2816 149.257C90.5569 149.016 90.0989 147.937 90.6302 147.846ZM104.18 185.908C104.874 185.972 104.363 186.181 103.102 186.397C101.84 186.613 101.288 186.586 101.856 186.306C102.499 186.074 103.562 185.892 104.18 185.908ZM112.237 193.057C112.932 193.121 112.554 193.307 111.491 193.489C110.362 193.682 109.877 193.643 110.245 193.398C110.69 193.2 111.619 193.041 112.237 193.057ZM121.19 199.443C121.685 199.541 121.373 199.716 120.444 199.875C119.514 200.034 119.162 199.973 119.53 199.727C119.974 199.529 120.771 199.393 121.19 199.443ZM121.789 159.388C122.353 157.89 124.424 153.212 126.443 149.03C128.395 144.859 130.353 140.322 130.814 139.025C131.954 135.297 132.648 135.361 133.316 139.267C133.964 143.054 133.072 148.627 131.161 152.242C127.156 159.992 124.454 163.378 122.13 163.775C120.735 164.014 120.635 162.63 121.789 159.388ZM144.553 216.155C145.768 216.069 144.992 216.324 142.8 216.698C140.609 217.073 139.592 217.125 140.568 216.837C141.544 216.548 143.337 216.241 144.553 216.155ZM133.129 164.148C134.739 159.974 136.738 155.674 137.823 154.026C138.094 153.615 139.104 151.128 140.104 148.581C142.453 142.333 143.271 141.523 143.848 144.896C144.682 150.174 143.36 156.429 140.37 161.326C139.576 162.68 138.905 163.951 138.936 164.129C139.047 164.78 135.931 168.541 134.591 169.501C131.289 171.771 130.806 170.148 133.129 164.148ZM143.619 170.332C145.18 167.872 147.284 164.589 148.38 163.001C149.485 161.472 151.41 158.341 152.67 156.116C153.93 153.891 155.251 152.02 155.516 151.975C156.579 151.793 156.282 158.848 155.127 162.091C154.204 164.685 148.629 173.251 147.7 173.41C147.5 173.444 146.748 174.243 146.093 175.208C145.428 176.113 143.777 177.248 142.489 177.712L140.026 178.499L140.397 176.669C140.633 175.654 142.057 172.792 143.619 170.332ZM152.689 179.804C153.575 178.191 156.549 173.602 159.226 169.673C161.893 165.684 164.202 162 164.321 161.493C164.603 160.348 165.699 158.76 166.296 158.658C166.96 158.544 167.176 161.004 166.764 163.389C165.733 169.351 165.245 170.897 163.587 173.19C162.594 174.578 161.095 176.601 160.327 177.706C158.126 180.823 155.906 183.03 153.601 184.338C151.551 185.541 151.485 185.553 151.252 184.192C151.121 183.422 151.737 181.429 152.689 179.804ZM161.096 188.598C161.525 188.708 161.571 188.578 161.235 188.209C160.832 187.852 161.043 187.085 161.672 186.368C162.311 185.711 163.181 184.405 163.648 183.533C164.104 182.603 165.47 180.603 166.642 179.062C167.804 177.463 169.319 175.133 169.99 173.861C170.661 172.589 171.567 171.094 171.961 170.601C172.355 170.107 172.99 169.024 173.477 168.271C174.67 166.057 175.174 167.006 174.969 171C174.624 176.175 173.122 179.781 168.818 185.39C163.051 192.832 158.139 195.682 159.73 190.598C160.135 189.372 160.734 188.478 161.096 188.598ZM166.341 198.482C166.941 196.795 173.235 188.837 177.614 184.068C178.545 183.117 180.203 180.824 181.401 179.035C184.468 174.187 185.435 175.848 183.499 182.513C181.692 188.73 171.951 199.715 167.568 200.464C165.377 200.839 165.454 200.887 166.341 198.482ZM173.557 207.906C175.298 205.294 190.618 186.168 191.016 186.1C192.012 185.93 189.52 195.735 188.051 197.936C187.217 199.053 186.357 200.418 185.973 200.971C185.665 201.572 184.228 203.157 182.76 204.566C181.292 205.974 179.609 207.723 179.036 208.369C177.778 209.803 173.863 211.69 172.852 211.376C171.831 211.002 172.042 210.236 173.557 207.906Z" fill="#52C86C" fill-opacity="0.7"/>
</g>
<defs>
<filter id="filter0_f" x="-5" y="-5" width="280.05" height="305.284" filterUnits="userSpaceOnUse" color-interpolation-filters="sRGB">
<feFlood flood-opacity="0" result="BackgroundImageFix"/>
<feBlend mode="normal" in="SourceGraphic" in2="BackgroundImageFix" result="shape"/>
<feGaussianBlur stdDeviation="2.5" result="effect1_foregroundBlur"/>
</filter>
<clipPath id="clip0">
<rect width="244.318" height="205.353" fill="white" transform="translate(74.4691 295.284) rotate(-107.746)"/>
</clipPath>
</defs>
</svg>
