<svg width="394" height="603" viewBox="0 0 394 603" fill="none" xmlns="http://www.w3.org/2000/svg">
<g filter="url(#filter0_f)">
<path d="M7.66667 125.682C13.6667 105.176 132.667 19.3718 177.667 6.18004C222.667 -7.01175 376.667 94.384 382.667 111.815C388.667 129.246 389 547.502 389 547.502C389 547.502 343.667 588.142 207.667 597.223C71.6666 606.303 7.66666 532.832 7.66666 532.832C7.66666 532.832 1.66667 146.188 7.66667 125.682Z" fill="url(#paint0_linear)" fill-opacity="0.05"/>
<path d="M8.14655 125.823C8.86108 123.381 11.302 119.872 15.2193 115.536C19.1173 111.222 24.4178 106.15 30.7619 100.59C43.4485 89.4706 60.2779 76.421 78.3312 63.5958C96.3839 50.7712 115.652 38.1767 133.215 27.9661C150.788 17.7496 166.619 9.93977 177.807 6.65985C183.324 5.04272 190.562 5.17025 199.06 6.70862C207.549 8.24536 217.248 11.1812 227.661 15.1364C248.486 23.0465 272.117 35.015 294.542 47.9471C316.965 60.8783 338.168 74.7646 354.136 86.5036C362.121 92.3736 368.79 97.7016 373.645 102.101C376.074 104.301 378.042 106.262 379.492 107.938C380.953 109.627 381.852 110.984 382.194 111.978C382.364 112.471 382.541 113.364 382.717 114.666C382.892 115.956 383.063 117.615 383.228 119.622C383.56 123.633 383.87 129.013 384.162 135.563C384.745 148.662 385.25 166.425 385.688 187.255C386.563 228.915 387.167 282.828 387.583 336.199C388 389.569 388.229 442.395 388.354 481.879C388.417 501.62 388.453 518.026 388.474 529.497C388.484 535.232 388.491 539.734 388.495 542.801C388.497 544.335 388.498 545.51 388.499 546.302L388.5 547.199L388.5 547.274C388.474 547.296 388.445 547.321 388.413 547.348C388.339 547.41 388.248 547.486 388.14 547.574C387.781 547.869 387.233 548.306 386.486 548.866C384.993 549.986 382.703 551.601 379.528 553.569C373.179 557.505 363.288 562.856 349.148 568.492C320.869 579.766 275.587 592.186 207.633 596.724C139.733 601.257 89.8244 585.184 56.8981 567.989C40.4333 559.391 28.2125 550.512 20.1111 543.785C16.0604 540.422 13.0398 537.597 11.0337 535.615C10.0306 534.624 9.28123 533.844 8.78354 533.313C8.53469 533.047 8.34878 532.844 8.22555 532.707C8.20281 532.682 8.18221 532.659 8.16374 532.639L8.16228 532.544L8.14958 531.714C8.13841 530.982 8.12193 529.896 8.10069 528.477C8.05821 525.64 7.99669 521.477 7.92052 516.171C7.76818 505.559 7.55724 490.376 7.32287 472.092C6.85413 435.524 6.29164 386.554 5.91665 336.943C5.54166 287.332 5.35418 237.082 5.6354 197.954C5.77602 178.39 6.0338 161.609 6.44374 149.081C6.64873 142.816 6.89164 137.619 7.1766 133.67C7.46306 129.7 7.78923 127.044 8.14655 125.823Z" stroke="black"/>
</g>
<defs>
<filter id="filter0_f" x="0" y="0" width="394" height="603" filterUnits="userSpaceOnUse" color-interpolation-filters="sRGB">
<feFlood flood-opacity="0" result="BackgroundImageFix"/>
<feBlend mode="normal" in="SourceGraphic" in2="BackgroundImageFix" result="shape"/>
<feGaussianBlur stdDeviation="2.5" result="effect1_foregroundBlur"/>
</filter>
<linearGradient id="paint0_linear" x1="42.6667" y1="213.694" x2="283.021" y2="616.352" gradientUnits="userSpaceOnUse">
<stop stop-color="#52C86C"/>
<stop offset="1" stop-color="#FF7A00"/>
</linearGradient>
</defs>
</svg>
