<svg width="281" height="306" viewBox="0 0 281 306" fill="none" xmlns="http://www.w3.org/2000/svg">
<g opacity="0.05" filter="url(#filter0_f)">
<g clip-path="url(#clip0)">
<path d="M38.6252 118.866C38.8548 119.01 39.7447 121.416 40.639 124.247C41.8888 128.357 43.2176 130.932 47.2224 136.764C49.9635 140.802 55.3635 149.196 59.1634 155.429C63.0296 161.65 66.7125 167.598 67.4461 168.69C70.5136 173.038 87.0517 187.811 97.3658 195.365C99.4827 196.952 102.375 199.076 103.716 200.126C105.068 201.235 110.424 205.374 115.56 209.428C134.1 223.92 151.697 234.492 169.228 241.482C178.629 245.295 184.108 248.56 187.024 252.02C189.017 254.481 192.159 256.867 192.522 256.196C192.738 255.854 189.318 245.05 188.366 243.081C187.841 242.014 187.346 241.916 184.281 242.379C182.412 242.638 179.848 242.833 178.735 242.718C177.356 242.65 178.342 242.42 181.494 242.064C184.18 241.787 186.637 241.367 186.939 241.133C187.42 240.746 186.998 239.478 184.866 234.605C184.321 233.419 184.045 233.405 174.616 235.018C169.303 235.927 164.701 236.592 164.471 236.449C164.242 236.305 168.461 235.401 173.774 234.492C179.153 233.572 183.495 232.586 183.455 232.349C183.414 232.113 182.329 230.166 181.071 228.006L178.846 224.185L166.647 226.393L154.449 228.601L163.322 226.535C168.186 225.399 173.428 224.076 174.925 223.637L177.719 222.794L174.61 219.001C171.664 215.364 171.511 215.268 169.513 215.975C165.196 217.505 157.547 219.544 155.014 219.917C152.082 220.357 152.215 220.334 162.74 217.134C166.643 215.979 170.062 214.785 170.22 214.514C170.445 214.232 169.289 212.664 167.627 210.938L164.772 207.833L158.733 209.292C155.443 210.038 149.052 211.435 144.49 212.337L136.24 214.053L146.392 211.464C159.302 208.22 163.404 207.032 163.333 206.617C163.283 206.322 155.66 198.916 153.416 196.985C153.176 196.783 149.641 197.692 145.568 199.058C141.486 200.366 136.096 202.018 133.603 202.627C129.071 203.707 129.071 203.707 132.566 202.561C142.141 199.401 151.62 196.074 151.855 195.852C151.978 195.77 150.259 194.115 148.168 192.28C144.802 189.384 143.991 189.035 142.637 189.51C141.727 189.788 136.842 191.598 131.702 193.512C126.561 195.427 121.779 197.037 121.048 197.162C120.308 197.227 121.575 196.645 123.885 195.763C131.146 193.059 142.087 188.691 142.567 188.304C142.803 188.081 142.079 187.048 140.881 186.035C136.653 182.495 135.591 181.884 134.59 182.421C132.852 183.449 118.866 188.399 115.265 189.32L111.663 190.24L114.882 189.08C122.041 186.577 133.17 182.116 133.83 181.577C134.858 180.792 127.192 174.733 125.868 175.386C123.088 176.714 108.96 181.628 105.547 182.455C103.386 183.007 102.323 183.189 103.223 182.852C117.852 177.671 125.082 174.79 124.961 174.08C124.88 173.606 123.702 172.711 117.825 168.722L114.81 166.68L112.173 168.045C107.9 170.237 96.9594 174.605 96.0556 174.516C95.6369 174.466 96.3168 174.045 97.5381 173.593C98.7593 173.14 103.016 171.255 106.941 169.427C113.457 166.363 114.004 165.965 113.056 165.214C112.5 164.761 111.581 164.187 111.076 164.03C110.637 163.861 110.148 163.397 110.077 162.983C110.006 162.568 111.889 163.586 114.215 165.198L118.541 168.113L120.649 165.255C125.787 158.529 130.866 147.063 131.33 141.381C131.403 140.211 131.604 139.385 131.767 139.54C131.92 139.636 131.984 141.208 131.889 143.052C131.6 148.156 126.69 159.41 121.976 165.82L119.811 168.748L123.52 171.646C125.57 173.245 127.503 174.558 127.789 174.631C128.494 174.754 133.581 167.733 136.531 162.6C139.163 158.008 140.45 154.743 141.448 150.187C141.875 148.287 142.228 147.556 142.426 148.314C143.191 152.386 138.578 162.98 132.693 170.93C130.855 173.376 129.376 175.517 129.34 175.706C129.411 176.12 132.191 178.385 135.455 180.69L138.011 182.445L142.381 176.825C147.135 170.653 150.93 163.669 152.067 158.725C152.514 156.943 153.026 155.942 153.173 156.404C153.718 157.589 150.737 166.139 148.377 170.318C147.322 172.143 144.757 175.932 142.695 178.66C139 183.433 138.964 183.622 140.285 184.553C141.051 185.031 142.815 186.557 144.274 187.891C145.742 189.284 147.349 190.288 147.814 190.209C148.611 190.072 154.362 182.937 157.787 177.784C159.686 174.901 162.878 168.386 163.843 165.237C164.947 161.699 165.153 163.308 164.08 167.024C162.468 172.781 158.883 178.997 152.384 187.356L149.017 191.647L152.5 194.828C154.361 196.519 156.106 197.926 156.438 197.869C156.703 197.824 159.558 194.534 162.644 190.596C167.137 184.894 170.828 178.903 174.251 171.74C174.363 171.599 174.629 171.554 174.869 171.756C176.17 172.569 167.613 186.883 161.166 194.746C159.355 196.944 157.942 199.074 158.003 199.429C158.216 200.671 163.199 204.631 163.858 204.091C167.442 201.469 176.483 190.787 180.231 184.725C183.774 179.064 184.274 178.796 181.697 184.109C179.884 187.891 170.018 200.541 166.504 203.578C165.441 204.552 164.51 205.503 164.56 205.798C164.601 206.035 165.534 207.094 166.543 208.2C169.501 211.105 172.972 215.018 175.678 218.453L178.115 221.508L182.215 218.31C190.662 211.749 196.991 204.393 198.864 198.957C199.428 197.46 199.904 196.648 199.985 197.121C200.268 198.778 195.203 207.927 192.308 210.98C190.748 212.648 187.387 215.781 184.759 217.996C178.607 223.19 178.879 222.778 180.352 224.597C181.045 225.453 182.028 226.807 182.579 227.627C183.429 229.004 183.715 229.077 185.274 228.201C189.971 225.692 198.058 217.427 201.514 211.659C203.429 208.469 203.797 208.224 202.798 210.77C201.069 215.45 192.597 225.061 186.652 229.062C185.614 229.787 184.699 230.431 184.642 230.502C184.238 230.936 187.134 237.08 187.793 237.332C189.309 237.804 201.182 228.099 204.641 223.549C206.985 220.468 206.687 221.92 204.317 225.249C202.219 228.166 195.289 234.406 190.806 237.365C189.456 238.266 188.285 239.014 188.219 239.026C188.153 239.037 188.631 240.234 189.206 241.598C191.338 246.471 194.086 255.745 194.326 258.75C194.431 260.559 195.289 263.579 196.322 266.021C198.754 271.452 207.804 287.201 212.456 294.019C216.277 299.577 217.121 302.113 216.35 305.594C215.743 308.439 216.524 308.61 219.331 306.242C221.422 304.483 221.674 303.953 221.329 301.941C221.117 300.698 220.278 298.589 219.503 297.259C217.869 294.494 217.869 294.494 212.446 287.564C207.446 281.111 202.414 272.471 199.362 265.014C196.029 257.118 195.914 256.042 198.14 252.677C200.086 249.664 203.72 240.942 202.99 241.067C202.724 241.113 202.863 240.724 203.18 240.182C204.547 238.182 206.815 225.065 206.685 219.911C206.48 210.323 202.604 197.648 196.386 186.469L193.702 181.569L193.08 184.72C192.09 190.127 189.924 193.847 182.93 202.109C182.076 203.107 181.135 203.999 180.803 204.056C180.471 204.113 179.878 204.641 179.494 205.193C179.11 205.746 178.517 206.274 178.118 206.342C177.72 206.41 178.15 205.728 179.081 204.777C184.661 199.437 190.143 191.13 191.72 185.562C192.803 181.905 191.441 177.936 187.648 173.347C183.336 168.115 180.883 166.16 169.506 158.787C164.588 155.609 158.013 151.13 154.881 148.803C147.066 143.075 136.01 136.378 130.197 133.962C127.544 132.832 125.206 131.953 125.007 131.987C124.675 132.044 116.304 129.456 112.307 128.068C111.715 127.804 109.99 127.308 108.474 126.836C106.902 126.435 104.135 125.446 102.283 124.606C98.3125 122.971 92.0189 120.941 88.3994 120.159C87.0567 119.902 84.6471 119.4 83.0849 119.058C74.0846 117.187 62.4064 116.443 48.898 116.988C43.5304 117.175 38.8269 117.248 38.541 117.175C37.8827 116.923 38.013 118.484 38.6252 118.866ZM57.2529 129.871C56.6204 129.37 56.6217 128.578 57.4008 126.74C57.9187 125.372 58.1521 123.14 57.9958 121.827L57.6574 119.448L58.6453 121.228C59.5061 122.665 59.5352 123.634 58.9237 126.053C58.5329 127.764 58.2388 129.642 58.34 130.233C58.5526 131.476 55.4087 133.475 52.4767 133.916C51.4142 134.098 52.1402 133.547 54.4657 132.358C57.3585 130.888 57.9517 130.361 57.2529 129.871ZM56.2272 139.06C56.7888 139.147 56.62 139.359 55.8895 139.484C55.1691 139.668 54.7403 139.558 54.9756 139.335C55.1445 139.124 55.732 138.962 56.2272 139.06ZM61.0337 135.193C61.8217 134.206 62.926 133.469 63.4775 133.496C64.6007 133.67 59.65 138.292 58.1226 138.554C57.3157 138.631 57.3618 138.501 58.2668 137.798C58.9366 137.318 60.1692 136.133 61.0337 135.193ZM69.902 139.889C70.8127 138.819 71.6716 138.246 71.9878 138.497C72.8138 139.33 65.425 145.283 63.2235 145.599C62.7586 145.678 63.7098 144.846 65.3048 143.781C66.9662 142.705 69.0577 140.947 69.902 139.889ZM76.1223 149.483C76.7054 148.896 77.9741 147.522 78.9411 146.382C80.4247 144.667 80.992 144.387 82.212 144.726C83.8608 145.175 84.2346 144.563 87.0596 137.502C88.2802 134.248 88.5742 132.371 88.3205 128.09L88.094 122.769L88.8157 128.188C89.5431 133.241 89.4553 133.926 87.5827 139.362C85.6235 144.691 85.3623 145.162 83.5029 145.48C82.374 145.673 80.636 146.701 79.4034 147.887C77.286 149.893 71.1267 153.444 69.3799 153.621C68.915 153.7 69.963 153.034 71.7876 152.112C73.6121 151.191 75.5291 150.011 76.1223 149.483ZM66.7618 133.117C67.1197 132.812 67.1513 132.198 66.8711 131.759C66.591 131.319 66.6169 131.071 66.9793 131.192C67.7142 131.493 68.8316 125.637 68.4369 123.33C68.275 122.383 68.4091 121.568 68.8075 121.5C69.1395 121.443 69.5323 121.742 69.593 122.097C70.0225 125.007 68.0141 135.644 67.018 135.814C66.2211 135.95 66.0357 133.668 66.7618 133.117ZM82.9067 157.58C84.3228 156.668 86.6495 154.687 88.1737 153.208C89.7642 151.718 91.2163 150.617 91.456 150.819C91.9917 151.154 92.1144 151.072 86.9803 155.422C83.5695 158.259 76.342 162.357 74.1866 162.543C73.7882 162.611 75.0253 161.852 76.9264 160.978C78.8174 160.046 81.5008 158.552 82.9067 157.58ZM68.3521 118.837C69.3457 120.251 69.5032 120.772 68.8391 120.886C68.5735 120.931 68.1864 120.266 67.9581 119.331C67.6589 117.981 67.6488 117.922 68.3521 118.837ZM76.4598 136.27C78.4582 131.969 79.0349 128.947 78.8129 124.052L78.7211 120.718L79.3903 123.832C80.3125 128.424 77.5609 140.71 75.5023 141.063C74.4398 141.244 74.6763 140.229 76.4598 136.27ZM102.382 158.756C102.541 158.486 101.496 157.568 100.108 156.648C98.654 155.74 97.828 154.906 98.2928 154.827C98.7577 154.747 99.1302 154.927 99.1909 155.282C99.2415 155.578 99.9303 156.009 100.645 156.191C101.799 156.542 102.315 155.966 104.6 151.738C107.601 146.109 109.181 141.758 110.092 137.096C110.911 132.692 111.324 133.109 110.821 137.763C110.298 142.298 108.267 148.005 105.302 153.446L103.007 157.614L105.037 159.094C106.139 159.941 107.542 160.554 108.14 160.451C109.8 160.167 116.285 151.324 117.971 147.198C118.73 145.241 119.548 141.63 119.761 139.279C120.279 134.318 120.667 134.983 120.505 140.431C120.359 145.572 118.011 151.028 113.38 157.119L109.348 162.316L106.766 160.808L104.251 159.289L94.4794 163.701C89.1542 166.135 84.4425 168.159 84.0441 168.227C83.6355 168.236 87.5301 166.23 92.6358 163.712C97.818 161.242 102.147 158.979 102.382 158.756ZM90.6394 176.417C91.201 176.504 91.0321 176.715 90.3017 176.84C89.5813 177.024 89.1525 176.915 89.3878 176.692C89.5566 176.48 90.1442 176.319 90.6394 176.417ZM88.4771 148.588C89.2683 148.818 89.9571 149.249 90.0077 149.544C90.0684 149.9 89.4303 149.765 88.6087 149.357C87.777 148.891 87.0883 148.46 87.068 148.342C87.0579 148.283 87.6859 148.358 88.4771 148.588ZM100.458 183.873C101.153 183.937 100.642 184.147 99.38 184.362C98.1182 184.578 97.5667 184.551 98.134 184.271C98.7779 184.039 99.8404 183.857 100.458 183.873ZM95.3891 147.041C98.2477 141.375 99.8534 136.776 100.34 132.429C100.774 129.371 100.83 129.3 101.154 131.194C101.346 132.318 100.943 135.554 100.193 138.362C98.0049 146.35 93.6456 154.83 93.17 152.049C93.1295 151.812 94.1135 149.573 95.3891 147.041ZM95.6302 152.846C95.763 152.823 96.1659 153.181 96.4562 153.679C96.7364 154.119 96.7104 154.367 96.2816 154.257C95.5569 154.016 95.0989 152.937 95.6302 152.846ZM109.18 190.908C109.874 190.972 109.363 191.182 108.102 191.397C106.84 191.613 106.288 191.586 106.856 191.306C107.499 191.074 108.562 190.892 109.18 190.908ZM117.237 198.057C117.932 198.121 117.554 198.307 116.491 198.489C115.362 198.682 114.877 198.643 115.245 198.398C115.69 198.2 116.619 198.041 117.237 198.057ZM126.19 204.443C126.685 204.541 126.373 204.717 125.444 204.876C124.514 205.035 124.162 204.973 124.53 204.727C124.974 204.529 125.771 204.393 126.19 204.443ZM126.789 164.388C127.353 162.89 129.424 158.212 131.443 154.03C133.395 149.859 135.353 145.322 135.814 144.025C136.954 140.297 137.648 140.361 138.316 144.267C138.964 148.054 138.072 153.627 136.161 157.242C132.156 164.992 129.454 168.378 127.13 168.775C125.735 169.014 125.635 167.63 126.789 164.388ZM149.553 221.155C150.768 221.069 149.992 221.324 147.8 221.698C145.609 222.073 144.592 222.125 145.568 221.837C146.544 221.548 148.337 221.241 149.553 221.155ZM138.129 169.148C139.739 164.974 141.738 160.674 142.823 159.027C143.094 158.615 144.104 156.128 145.104 153.581C147.453 147.333 148.271 146.523 148.848 149.896C149.682 155.174 148.36 161.429 145.37 166.326C144.576 167.68 143.905 168.952 143.936 169.129C144.047 169.78 140.931 173.541 139.591 174.501C136.289 176.771 135.806 175.148 138.129 169.148ZM148.619 175.332C150.18 172.872 152.284 169.589 153.38 168.001C154.485 166.472 156.41 163.341 157.67 161.116C158.93 158.891 160.251 157.02 160.516 156.975C161.579 156.793 161.282 163.848 160.127 167.091C159.204 169.685 153.629 178.251 152.7 178.41C152.5 178.444 151.748 179.243 151.093 180.208C150.428 181.113 148.777 182.248 147.489 182.712L145.026 183.499L145.397 181.669C145.633 180.654 147.057 177.792 148.619 175.332ZM157.689 184.805C158.575 183.191 161.549 178.602 164.226 174.673C166.893 170.684 169.202 167 169.321 166.493C169.603 165.348 170.699 163.76 171.296 163.658C171.96 163.544 172.176 166.004 171.764 168.389C170.733 174.352 170.245 175.897 168.587 178.19C167.594 179.578 166.095 181.601 165.327 182.706C163.126 185.824 160.906 188.03 158.601 189.338C156.551 190.541 156.485 190.553 156.252 189.192C156.121 188.422 156.737 186.429 157.689 184.805ZM166.096 193.599C166.525 193.708 166.571 193.578 166.235 193.209C165.832 192.852 166.043 192.085 166.672 191.368C167.311 190.711 168.181 189.405 168.648 188.533C169.104 187.603 170.47 185.603 171.642 184.063C172.804 182.463 174.319 180.133 174.99 178.861C175.661 177.589 176.567 176.094 176.961 175.601C177.355 175.107 177.99 174.024 178.477 173.271C179.67 171.057 180.174 172.006 179.969 176C179.624 181.175 178.122 184.782 173.818 190.39C168.051 197.832 163.139 200.682 164.73 195.599C165.135 194.372 165.734 193.478 166.096 193.599ZM171.341 203.482C171.941 201.796 178.235 193.837 182.614 189.068C183.545 188.117 185.203 185.824 186.401 184.035C189.468 179.187 190.435 180.848 188.499 187.514C186.692 193.73 176.951 204.715 172.568 205.464C170.377 205.839 170.454 205.887 171.341 203.482ZM178.557 212.906C180.298 210.294 195.618 191.168 196.016 191.1C197.012 190.93 194.52 200.735 193.051 202.936C192.217 204.053 191.357 205.418 190.973 205.971C190.665 206.572 189.228 208.157 187.76 209.566C186.292 210.974 184.609 212.723 184.036 213.369C182.778 214.803 178.863 216.69 177.852 216.376C176.831 216.002 177.042 215.236 178.557 212.906Z" fill="#52C86C" fill-opacity="0.7"/>
</g>
<rect x="79.7929" y="299.656" width="243.318" height="204.353" transform="rotate(-107.746 79.7929 299.656)" stroke="black"/>
</g>
<defs>
<filter id="filter0_f" x="0" y="0" width="280.05" height="305.284" filterUnits="userSpaceOnUse" color-interpolation-filters="sRGB">
<feFlood flood-opacity="0" result="BackgroundImageFix"/>
<feBlend mode="normal" in="SourceGraphic" in2="BackgroundImageFix" result="shape"/>
<feGaussianBlur stdDeviation="2.5" result="effect1_foregroundBlur"/>
</filter>
<clipPath id="clip0">
<rect x="79.4691" y="300.284" width="244.318" height="205.353" transform="rotate(-107.746 79.4691 300.284)" fill="white"/>
</clipPath>
</defs>
</svg>
