<svg width="43" height="35" viewBox="0 0 43 35" fill="none" xmlns="http://www.w3.org/2000/svg">
<g filter="url(#filter0_f)">
<path d="M28.0625 18.9584C26.3125 18.9584 23.5855 19.4542 21.5 20.4167C19.4146 19.4396 16.6875 18.9584 14.9375 18.9584C11.773 18.9584 5.45837 20.5334 5.45837 23.6979V27.7084H37.5417V23.6979C37.5417 20.5334 31.2271 18.9584 28.0625 18.9584ZM22.2292 25.5209H7.64587V23.6979C7.64587 22.9104 11.3792 21.1459 14.9375 21.1459C18.4959 21.1459 22.2292 22.9104 22.2292 23.6979V25.5209ZM35.3542 25.5209H24.4167V23.6979C24.4167 23.0271 24.125 22.4438 23.6584 21.9188C24.9417 21.4813 26.5167 21.1459 28.0625 21.1459C31.6209 21.1459 35.3542 22.9104 35.3542 23.6979V25.5209ZM14.9375 17.5C17.7521 17.5 20.0417 15.2104 20.0417 12.3959C20.0417 9.58127 17.7521 7.29169 14.9375 7.29169C12.123 7.29169 9.83337 9.58127 9.83337 12.3959C9.83337 15.2104 12.123 17.5 14.9375 17.5ZM14.9375 9.47919C16.5417 9.47919 17.8542 10.7917 17.8542 12.3959C17.8542 14 16.5417 15.3125 14.9375 15.3125C13.3334 15.3125 12.0209 14 12.0209 12.3959C12.0209 10.7917 13.3334 9.47919 14.9375 9.47919ZM28.0625 17.5C30.8771 17.5 33.1667 15.2104 33.1667 12.3959C33.1667 9.58127 30.8771 7.29169 28.0625 7.29169C25.248 7.29169 22.9584 9.58127 22.9584 12.3959C22.9584 15.2104 25.248 17.5 28.0625 17.5ZM28.0625 9.47919C29.6667 9.47919 30.9792 10.7917 30.9792 12.3959C30.9792 14 29.6667 15.3125 28.0625 15.3125C26.4584 15.3125 25.1459 14 25.1459 12.3959C25.1459 10.7917 26.4584 9.47919 28.0625 9.47919Z" fill="white"/>
</g>
<defs>
<filter id="filter0_f" x="-1" y="-5" width="45" height="45" filterUnits="userSpaceOnUse" color-interpolation-filters="sRGB">
<feFlood flood-opacity="0" result="BackgroundImageFix"/>
<feBlend mode="normal" in="SourceGraphic" in2="BackgroundImageFix" result="shape"/>
<feGaussianBlur stdDeviation="2.5" result="effect1_foregroundBlur"/>
</filter>
</defs>
</svg>
