<svg width="345" height="217" viewBox="0 0 345 217" fill="none" xmlns="http://www.w3.org/2000/svg">
<g filter="url(#filter0_f)">
<rect x="5" y="5" width="335" height="207" rx="10" fill="#CCA950" fill-opacity="0.28"/>
<path d="M20.6045 17.2031H22.3008V26.2646C22.3008 27.4893 21.9316 28.4473 21.1934 29.1387C20.4609 29.8301 19.4824 30.1758 18.2578 30.1758C16.9863 30.1758 15.9961 29.8506 15.2871 29.2002C14.5781 28.5498 14.2236 27.6387 14.2236 26.4668H15.9111C15.9111 27.1992 16.1104 27.7705 16.5088 28.1807C16.9131 28.5908 17.4961 28.7959 18.2578 28.7959C18.9551 28.7959 19.5176 28.5762 19.9453 28.1367C20.3789 27.6973 20.5986 27.082 20.6045 26.291V17.2031ZM24.4893 25.1572C24.4893 24.2256 24.6709 23.3877 25.0342 22.6436C25.4033 21.8994 25.9131 21.3252 26.5635 20.9209C27.2197 20.5166 27.9668 20.3145 28.8047 20.3145C30.0996 20.3145 31.1455 20.7627 31.9424 21.6592C32.7451 22.5557 33.1465 23.748 33.1465 25.2363V25.3506C33.1465 26.2764 32.9678 27.1084 32.6104 27.8467C32.2588 28.5791 31.752 29.1504 31.0898 29.5605C30.4336 29.9707 29.6777 30.1758 28.8223 30.1758C27.5332 30.1758 26.4873 29.7275 25.6846 28.8311C24.8877 27.9346 24.4893 26.748 24.4893 25.2715V25.1572ZM26.124 25.3506C26.124 26.4053 26.3672 27.252 26.8535 27.8906C27.3457 28.5293 28.002 28.8486 28.8223 28.8486C29.6484 28.8486 30.3047 28.5264 30.791 27.8818C31.2773 27.2314 31.5205 26.3232 31.5205 25.1572C31.5205 24.1143 31.2715 23.2705 30.7734 22.626C30.2812 21.9756 29.625 21.6504 28.8047 21.6504C28.002 21.6504 27.3545 21.9697 26.8623 22.6084C26.3701 23.2471 26.124 24.1611 26.124 25.3506ZM39.1318 30.1758C37.8428 30.1758 36.7939 29.7539 35.9854 28.9102C35.1768 28.0605 34.7725 26.9268 34.7725 25.5088V25.21C34.7725 24.2666 34.9512 23.4258 35.3086 22.6875C35.6719 21.9434 36.1758 21.3633 36.8203 20.9473C37.4707 20.5254 38.1738 20.3145 38.9297 20.3145C40.166 20.3145 41.127 20.7217 41.8125 21.5361C42.498 22.3506 42.8408 23.5166 42.8408 25.0342V25.7109H36.3984C36.4219 26.6484 36.6943 27.4072 37.2158 27.9873C37.7432 28.5615 38.4111 28.8486 39.2197 28.8486C39.7939 28.8486 40.2803 28.7314 40.6787 28.4971C41.0771 28.2627 41.4258 27.9521 41.7246 27.5654L42.7178 28.3389C41.9209 29.5635 40.7256 30.1758 39.1318 30.1758ZM38.9297 21.6504C38.2734 21.6504 37.7227 21.8906 37.2773 22.3711C36.832 22.8457 36.5566 23.5137 36.4512 24.375H41.2148V24.252C41.168 23.4258 40.9453 22.7871 40.5469 22.3359C40.1484 21.8789 39.6094 21.6504 38.9297 21.6504ZM46.2686 20.4902L46.3213 21.6855C47.0479 20.7715 47.9971 20.3145 49.1689 20.3145C51.1787 20.3145 52.1924 21.4482 52.21 23.7158V30H50.584V23.707C50.5781 23.0215 50.4199 22.5146 50.1094 22.1865C49.8047 21.8584 49.3271 21.6943 48.6768 21.6943C48.1494 21.6943 47.6865 21.835 47.2881 22.1162C46.8896 22.3975 46.5791 22.7666 46.3564 23.2236V30H44.7305V20.4902H46.2686ZM56.2002 20.4902L56.2529 21.6855C56.9795 20.7715 57.9287 20.3145 59.1006 20.3145C61.1104 20.3145 62.124 21.4482 62.1416 23.7158V30H60.5156V23.707C60.5098 23.0215 60.3516 22.5146 60.041 22.1865C59.7363 21.8584 59.2588 21.6943 58.6084 21.6943C58.0811 21.6943 57.6182 21.835 57.2197 22.1162C56.8213 22.3975 56.5107 22.7666 56.2881 23.2236V30H54.6621V20.4902H56.2002ZM70.4648 30C70.3711 29.8125 70.2949 29.4785 70.2363 28.998C69.4805 29.7832 68.5781 30.1758 67.5293 30.1758C66.5918 30.1758 65.8213 29.9121 65.2178 29.3848C64.6201 28.8516 64.3213 28.1777 64.3213 27.3633C64.3213 26.373 64.6963 25.6055 65.4463 25.0605C66.2021 24.5098 67.2627 24.2344 68.6279 24.2344H70.21V23.4873C70.21 22.9189 70.04 22.4678 69.7002 22.1338C69.3604 21.7939 68.8594 21.624 68.1973 21.624C67.6172 21.624 67.1309 21.7705 66.7383 22.0635C66.3457 22.3564 66.1494 22.7109 66.1494 23.127H64.5146C64.5146 22.6523 64.6816 22.1953 65.0156 21.7559C65.3555 21.3105 65.8125 20.959 66.3867 20.7012C66.9668 20.4434 67.6025 20.3145 68.2939 20.3145C69.3896 20.3145 70.248 20.5898 70.8691 21.1406C71.4902 21.6855 71.8125 22.4385 71.8359 23.3994V27.7764C71.8359 28.6494 71.9473 29.3438 72.1699 29.8594V30H70.4648ZM67.7666 28.7607C68.2764 28.7607 68.7598 28.6289 69.2168 28.3652C69.6738 28.1016 70.0049 27.7588 70.21 27.3369V25.3857H68.9355C66.9434 25.3857 65.9473 25.9688 65.9473 27.1348C65.9473 27.6445 66.1172 28.043 66.457 28.3301C66.7969 28.6172 67.2334 28.7607 67.7666 28.7607ZM79.1045 30V17.2031H82.7168C83.8301 17.2031 84.8145 17.4492 85.6699 17.9414C86.5254 18.4336 87.1846 19.1338 87.6475 20.042C88.1162 20.9502 88.3535 21.9932 88.3594 23.1709V23.9883C88.3594 25.1953 88.125 26.2529 87.6562 27.1611C87.1934 28.0693 86.5283 28.7666 85.6611 29.2529C84.7998 29.7393 83.7949 29.9883 82.6465 30H79.1045ZM80.792 18.5918V28.6201H82.5674C83.8682 28.6201 84.8789 28.2158 85.5996 27.4072C86.3262 26.5986 86.6895 25.4473 86.6895 23.9531V23.2061C86.6895 21.7529 86.3467 20.625 85.6611 19.8223C84.9814 19.0137 84.0146 18.6035 82.7607 18.5918H80.792ZM90.2314 25.1572C90.2314 24.2256 90.4131 23.3877 90.7764 22.6436C91.1455 21.8994 91.6553 21.3252 92.3057 20.9209C92.9619 20.5166 93.709 20.3145 94.5469 20.3145C95.8418 20.3145 96.8877 20.7627 97.6846 21.6592C98.4873 22.5557 98.8887 23.748 98.8887 25.2363V25.3506C98.8887 26.2764 98.71 27.1084 98.3525 27.8467C98.001 28.5791 97.4941 29.1504 96.832 29.5605C96.1758 29.9707 95.4199 30.1758 94.5645 30.1758C93.2754 30.1758 92.2295 29.7275 91.4268 28.8311C90.6299 27.9346 90.2314 26.748 90.2314 25.2715V25.1572ZM91.8662 25.3506C91.8662 26.4053 92.1094 27.252 92.5957 27.8906C93.0879 28.5293 93.7441 28.8486 94.5645 28.8486C95.3906 28.8486 96.0469 28.5264 96.5332 27.8818C97.0195 27.2314 97.2627 26.3232 97.2627 25.1572C97.2627 24.1143 97.0137 23.2705 96.5156 22.626C96.0234 21.9756 95.3672 21.6504 94.5469 21.6504C93.7441 21.6504 93.0967 21.9697 92.6045 22.6084C92.1123 23.2471 91.8662 24.1611 91.8662 25.3506ZM104.874 30.1758C103.585 30.1758 102.536 29.7539 101.728 28.9102C100.919 28.0605 100.515 26.9268 100.515 25.5088V25.21C100.515 24.2666 100.693 23.4258 101.051 22.6875C101.414 21.9434 101.918 21.3633 102.562 20.9473C103.213 20.5254 103.916 20.3145 104.672 20.3145C105.908 20.3145 106.869 20.7217 107.555 21.5361C108.24 22.3506 108.583 23.5166 108.583 25.0342V25.7109H102.141C102.164 26.6484 102.437 27.4072 102.958 27.9873C103.485 28.5615 104.153 28.8486 104.962 28.8486C105.536 28.8486 106.022 28.7314 106.421 28.4971C106.819 28.2627 107.168 27.9521 107.467 27.5654L108.46 28.3389C107.663 29.5635 106.468 30.1758 104.874 30.1758ZM104.672 21.6504C104.016 21.6504 103.465 21.8906 103.02 22.3711C102.574 22.8457 102.299 23.5137 102.193 24.375H106.957V24.252C106.91 23.4258 106.688 22.7871 106.289 22.3359C105.891 21.8789 105.352 21.6504 104.672 21.6504Z" fill="white"/>
<path d="M226.785 30H225.604V22.1733L223.236 23.043V21.9766L226.601 20.7134H226.785V30ZM230.308 29.3843C230.308 29.1812 230.367 29.0119 230.485 28.8765C230.608 28.741 230.79 28.6733 231.031 28.6733C231.272 28.6733 231.454 28.741 231.577 28.8765C231.704 29.0119 231.768 29.1812 231.768 29.3843C231.768 29.5789 231.704 29.7419 231.577 29.873C231.454 30.0042 231.272 30.0698 231.031 30.0698C230.79 30.0698 230.608 30.0042 230.485 29.873C230.367 29.7419 230.308 29.5789 230.308 29.3843ZM230.314 23.7793C230.314 23.5762 230.373 23.4069 230.492 23.2715C230.614 23.1361 230.796 23.0684 231.038 23.0684C231.279 23.0684 231.461 23.1361 231.583 23.2715C231.71 23.4069 231.774 23.5762 231.774 23.7793C231.774 23.974 231.71 24.1369 231.583 24.2681C231.461 24.3993 231.279 24.4648 231.038 24.4648C230.796 24.4648 230.614 24.3993 230.492 24.2681C230.373 24.1369 230.314 23.974 230.314 23.7793ZM233.913 25.3662L234.383 20.7578H239.118V21.8433H235.379L235.1 24.3633C235.553 24.0967 236.067 23.9634 236.643 23.9634C237.485 23.9634 238.153 24.2427 238.648 24.8013C239.144 25.3556 239.391 26.1068 239.391 27.0547C239.391 28.0068 239.133 28.758 238.617 29.3081C238.105 29.854 237.387 30.127 236.465 30.127C235.648 30.127 234.982 29.9006 234.465 29.4478C233.949 28.995 233.655 28.3687 233.583 27.5688H234.694C234.766 28.0978 234.954 28.4977 235.259 28.7686C235.563 29.0352 235.965 29.1685 236.465 29.1685C237.011 29.1685 237.438 28.9823 237.747 28.6099C238.06 28.2375 238.217 27.7233 238.217 27.0674C238.217 26.4495 238.048 25.9544 237.709 25.582C237.375 25.2054 236.928 25.0171 236.37 25.0171C235.858 25.0171 235.456 25.1292 235.164 25.3535L234.853 25.6074L233.913 25.3662ZM246.469 26.0581C246.469 27.4334 246.234 28.4554 245.764 29.124C245.294 29.7926 244.56 30.127 243.562 30.127C242.576 30.127 241.846 29.8011 241.372 29.1494C240.898 28.4935 240.652 27.516 240.635 26.2168V24.6489C240.635 23.2905 240.87 22.2812 241.34 21.6211C241.81 20.9609 242.546 20.6309 243.549 20.6309C244.543 20.6309 245.275 20.9504 245.745 21.5894C246.215 22.2241 246.456 23.2059 246.469 24.5347V26.0581ZM245.294 24.4521C245.294 23.4577 245.155 22.734 244.875 22.2812C244.596 21.8242 244.154 21.5957 243.549 21.5957C242.948 21.5957 242.51 21.8221 242.235 22.2749C241.96 22.7277 241.818 23.4238 241.81 24.3633V26.2422C241.81 27.2409 241.953 27.9793 242.241 28.4575C242.533 28.9315 242.973 29.1685 243.562 29.1685C244.141 29.1685 244.571 28.9442 244.85 28.4956C245.134 28.047 245.282 27.3403 245.294 26.3755V24.4521ZM256.993 26.0581C256.993 27.4334 256.758 28.4554 256.289 29.124C255.819 29.7926 255.085 30.127 254.086 30.127C253.1 30.127 252.37 29.8011 251.896 29.1494C251.422 28.4935 251.177 27.516 251.16 26.2168V24.6489C251.16 23.2905 251.395 22.2812 251.864 21.6211C252.334 20.9609 253.07 20.6309 254.073 20.6309C255.068 20.6309 255.8 20.9504 256.27 21.5894C256.739 22.2241 256.98 23.2059 256.993 24.5347V26.0581ZM255.819 24.4521C255.819 23.4577 255.679 22.734 255.4 22.2812C255.121 21.8242 254.678 21.5957 254.073 21.5957C253.472 21.5957 253.034 21.8221 252.759 22.2749C252.484 22.7277 252.342 23.4238 252.334 24.3633V26.2422C252.334 27.2409 252.478 27.9793 252.766 28.4575C253.058 28.9315 253.498 29.1685 254.086 29.1685C254.666 29.1685 255.095 28.9442 255.375 28.4956C255.658 28.047 255.806 27.3403 255.819 26.3755V24.4521ZM262.357 30H261.176V22.1733L258.809 23.043V21.9766L262.173 20.7134H262.357V30ZM266.153 30.7935H265.144L269.003 20.7578H270.006L266.153 30.7935ZM276.95 26.0581C276.95 27.4334 276.715 28.4554 276.246 29.124C275.776 29.7926 275.042 30.127 274.043 30.127C273.057 30.127 272.327 29.8011 271.853 29.1494C271.379 28.4935 271.134 27.516 271.117 26.2168V24.6489C271.117 23.2905 271.352 22.2812 271.821 21.6211C272.291 20.9609 273.027 20.6309 274.03 20.6309C275.025 20.6309 275.757 20.9504 276.227 21.5894C276.696 22.2241 276.938 23.2059 276.95 24.5347V26.0581ZM275.776 24.4521C275.776 23.4577 275.636 22.734 275.357 22.2812C275.078 21.8242 274.635 21.5957 274.03 21.5957C273.429 21.5957 272.991 21.8221 272.716 22.2749C272.441 22.7277 272.299 23.4238 272.291 24.3633V26.2422C272.291 27.2409 272.435 27.9793 272.723 28.4575C273.015 28.9315 273.455 29.1685 274.043 29.1685C274.623 29.1685 275.052 28.9442 275.332 28.4956C275.615 28.047 275.763 27.3403 275.776 26.3755V24.4521ZM284.421 21.418L280.594 30H279.362L283.177 21.7227H278.175V20.7578H284.421V21.418ZM286.11 30.7935H285.101L288.96 20.7578H289.963L286.11 30.7935ZM297.167 30H291.112V29.1558L294.311 25.6011C294.785 25.0636 295.111 24.6278 295.289 24.2935C295.471 23.9549 295.562 23.6058 295.562 23.2461C295.562 22.7637 295.416 22.368 295.124 22.0591C294.832 21.7502 294.442 21.5957 293.956 21.5957C293.372 21.5957 292.917 21.7629 292.591 22.0972C292.269 22.4272 292.108 22.8885 292.108 23.481H290.934C290.934 22.6304 291.207 21.9427 291.753 21.418C292.303 20.8932 293.037 20.6309 293.956 20.6309C294.815 20.6309 295.494 20.8573 295.993 21.3101C296.493 21.7586 296.742 22.3574 296.742 23.1064C296.742 24.0163 296.162 25.0996 295.003 26.3564L292.527 29.0415H297.167V30ZM304.207 26.0581C304.207 27.4334 303.972 28.4554 303.502 29.124C303.033 29.7926 302.299 30.127 301.3 30.127C300.314 30.127 299.584 29.8011 299.11 29.1494C298.636 28.4935 298.39 27.516 298.374 26.2168V24.6489C298.374 23.2905 298.608 22.2812 299.078 21.6211C299.548 20.9609 300.284 20.6309 301.287 20.6309C302.282 20.6309 303.014 20.9504 303.483 21.5894C303.953 22.2241 304.194 23.2059 304.207 24.5347V26.0581ZM303.033 24.4521C303.033 23.4577 302.893 22.734 302.614 22.2812C302.334 21.8242 301.892 21.5957 301.287 21.5957C300.686 21.5957 300.248 21.8221 299.973 22.2749C299.698 22.7277 299.556 23.4238 299.548 24.3633V26.2422C299.548 27.2409 299.692 27.9793 299.979 28.4575C300.271 28.9315 300.712 29.1685 301.3 29.1685C301.88 29.1685 302.309 28.9442 302.588 28.4956C302.872 28.047 303.02 27.3403 303.033 26.3755V24.4521ZM311.767 30H305.711V29.1558L308.911 25.6011C309.385 25.0636 309.71 24.6278 309.888 24.2935C310.07 23.9549 310.161 23.6058 310.161 23.2461C310.161 22.7637 310.015 22.368 309.723 22.0591C309.431 21.7502 309.042 21.5957 308.555 21.5957C307.971 21.5957 307.516 21.7629 307.19 22.0972C306.869 22.4272 306.708 22.8885 306.708 23.481H305.534C305.534 22.6304 305.807 21.9427 306.353 21.418C306.903 20.8932 307.637 20.6309 308.555 20.6309C309.414 20.6309 310.093 20.8573 310.593 21.3101C311.092 21.7586 311.342 22.3574 311.342 23.1064C311.342 24.0163 310.762 25.0996 309.603 26.3564L307.127 29.0415H311.767V30ZM318.807 26.0581C318.807 27.4334 318.572 28.4554 318.102 29.124C317.632 29.7926 316.898 30.127 315.899 30.127C314.913 30.127 314.183 29.8011 313.709 29.1494C313.236 28.4935 312.99 27.516 312.973 26.2168V24.6489C312.973 23.2905 313.208 22.2812 313.678 21.6211C314.147 20.9609 314.884 20.6309 315.887 20.6309C316.881 20.6309 317.613 20.9504 318.083 21.5894C318.553 22.2241 318.794 23.2059 318.807 24.5347V26.0581ZM317.632 24.4521C317.632 23.4577 317.493 22.734 317.213 22.2812C316.934 21.8242 316.492 21.5957 315.887 21.5957C315.286 21.5957 314.848 21.8221 314.573 22.2749C314.298 22.7277 314.156 23.4238 314.147 24.3633V26.2422C314.147 27.2409 314.291 27.9793 314.579 28.4575C314.871 28.9315 315.311 29.1685 315.899 29.1685C316.479 29.1685 316.909 28.9442 317.188 28.4956C317.472 28.047 317.62 27.3403 317.632 26.3755V24.4521ZM324.17 30H322.99V22.1733L320.622 23.043V21.9766L323.986 20.7134H324.17V30Z" fill="white"/>
<rect x="78" y="39" width="241" height="64" rx="10" fill="#192620" fill-opacity="0.89"/>
<rect x="18" y="39" width="45" height="45" rx="5" fill="#C4C4C4"/>
<path d="M96.8115 52.7607H93.8408V61H92.6284V52.7607H89.6641V51.7578H96.8115V52.7607ZM99.1729 54.9634C99.6934 54.3244 100.37 54.0049 101.204 54.0049C102.656 54.0049 103.388 54.8237 103.4 56.4614V61H102.226V56.4551C102.222 55.96 102.108 55.5939 101.883 55.3569C101.663 55.12 101.318 55.0015 100.849 55.0015C100.468 55.0015 100.133 55.103 99.8457 55.3062C99.5579 55.5093 99.3337 55.7759 99.1729 56.106V61H97.9985V51.25H99.1729V54.9634ZM106.435 61H105.26V54.1318H106.435V61ZM105.165 52.3101C105.165 52.1196 105.222 51.9588 105.336 51.8276C105.455 51.6965 105.628 51.6309 105.857 51.6309C106.085 51.6309 106.259 51.6965 106.377 51.8276C106.496 51.9588 106.555 52.1196 106.555 52.3101C106.555 52.5005 106.496 52.6592 106.377 52.7861C106.259 52.9131 106.085 52.9766 105.857 52.9766C105.628 52.9766 105.455 52.9131 105.336 52.7861C105.222 52.6592 105.165 52.5005 105.165 52.3101ZM112.319 59.1782C112.319 58.8608 112.198 58.6154 111.957 58.4419C111.72 58.2642 111.303 58.1118 110.707 57.9849C110.114 57.8579 109.642 57.7056 109.291 57.5278C108.944 57.3501 108.686 57.1385 108.517 56.8931C108.352 56.6476 108.269 56.3556 108.269 56.0171C108.269 55.4543 108.506 54.9782 108.98 54.5889C109.458 54.1995 110.068 54.0049 110.808 54.0049C111.587 54.0049 112.217 54.2059 112.7 54.6079C113.186 55.0099 113.43 55.5241 113.43 56.1504H112.249C112.249 55.8288 112.111 55.5516 111.836 55.3188C111.566 55.0861 111.223 54.9697 110.808 54.9697C110.381 54.9697 110.046 55.0628 109.805 55.249C109.564 55.4352 109.443 55.6785 109.443 55.979C109.443 56.2625 109.556 56.4762 109.78 56.6201C110.004 56.764 110.408 56.9015 110.992 57.0327C111.58 57.1639 112.056 57.3205 112.42 57.5024C112.784 57.6844 113.053 57.9045 113.227 58.1626C113.404 58.4165 113.493 58.7275 113.493 59.0957C113.493 59.7093 113.248 60.2023 112.757 60.5747C112.266 60.9429 111.629 61.127 110.846 61.127C110.296 61.127 109.809 61.0296 109.386 60.835C108.963 60.6403 108.631 60.3695 108.39 60.0225C108.153 59.6712 108.034 59.2925 108.034 58.8862H109.208C109.23 59.2798 109.386 59.5929 109.678 59.8257C109.974 60.0542 110.364 60.1685 110.846 60.1685C111.291 60.1685 111.646 60.0796 111.913 59.9019C112.183 59.7199 112.319 59.4787 112.319 59.1782ZM119.523 61H118.349V54.1318H119.523V61ZM118.254 52.3101C118.254 52.1196 118.311 51.9588 118.425 51.8276C118.544 51.6965 118.717 51.6309 118.946 51.6309C119.174 51.6309 119.348 51.6965 119.466 51.8276C119.585 51.9588 119.644 52.1196 119.644 52.3101C119.644 52.5005 119.585 52.6592 119.466 52.7861C119.348 52.9131 119.174 52.9766 118.946 52.9766C118.717 52.9766 118.544 52.9131 118.425 52.7861C118.311 52.6592 118.254 52.5005 118.254 52.3101ZM125.408 59.1782C125.408 58.8608 125.287 58.6154 125.046 58.4419C124.809 58.2642 124.392 58.1118 123.795 57.9849C123.203 57.8579 122.731 57.7056 122.38 57.5278C122.033 57.3501 121.775 57.1385 121.605 56.8931C121.44 56.6476 121.358 56.3556 121.358 56.0171C121.358 55.4543 121.595 54.9782 122.069 54.5889C122.547 54.1995 123.156 54.0049 123.897 54.0049C124.676 54.0049 125.306 54.2059 125.789 54.6079C126.275 55.0099 126.519 55.5241 126.519 56.1504H125.338C125.338 55.8288 125.2 55.5516 124.925 55.3188C124.654 55.0861 124.312 54.9697 123.897 54.9697C123.47 54.9697 123.135 55.0628 122.894 55.249C122.653 55.4352 122.532 55.6785 122.532 55.979C122.532 56.2625 122.644 56.4762 122.869 56.6201C123.093 56.764 123.497 56.9015 124.081 57.0327C124.669 57.1639 125.145 57.3205 125.509 57.5024C125.873 57.6844 126.142 57.9045 126.315 58.1626C126.493 58.4165 126.582 58.7275 126.582 59.0957C126.582 59.7093 126.337 60.2023 125.846 60.5747C125.355 60.9429 124.718 61.127 123.935 61.127C123.385 61.127 122.898 61.0296 122.475 60.835C122.052 60.6403 121.72 60.3695 121.479 60.0225C121.242 59.6712 121.123 59.2925 121.123 58.8862H122.297C122.319 59.2798 122.475 59.5929 122.767 59.8257C123.063 60.0542 123.453 60.1685 123.935 60.1685C124.379 60.1685 124.735 60.0796 125.001 59.9019C125.272 59.7199 125.408 59.4787 125.408 59.1782ZM135.577 61C135.509 60.8646 135.454 60.6234 135.412 60.2764C134.866 60.8434 134.214 61.127 133.457 61.127C132.779 61.127 132.223 60.9365 131.787 60.5557C131.355 60.1706 131.14 59.6839 131.14 59.0957C131.14 58.3805 131.41 57.8262 131.952 57.4326C132.498 57.0348 133.264 56.8359 134.25 56.8359H135.393V56.2964C135.393 55.8859 135.27 55.5601 135.024 55.3188C134.779 55.0734 134.417 54.9507 133.939 54.9507C133.52 54.9507 133.169 55.0565 132.885 55.2681C132.602 55.4797 132.46 55.7357 132.46 56.0361H131.279C131.279 55.6934 131.4 55.3633 131.641 55.0459C131.887 54.7243 132.217 54.4704 132.631 54.2842C133.05 54.098 133.509 54.0049 134.009 54.0049C134.8 54.0049 135.42 54.2038 135.869 54.6016C136.317 54.9951 136.55 55.5389 136.567 56.2329V59.394C136.567 60.0246 136.647 60.526 136.808 60.8984V61H135.577ZM133.628 60.105C133.996 60.105 134.345 60.0098 134.675 59.8193C135.005 59.6289 135.244 59.3813 135.393 59.0767V57.6675H134.472C133.033 57.6675 132.314 58.0885 132.314 58.9307C132.314 59.2988 132.437 59.5866 132.682 59.7939C132.928 60.0013 133.243 60.105 133.628 60.105ZM147.434 57.6421C147.434 58.6873 147.195 59.5295 146.717 60.1685C146.239 60.8075 145.591 61.127 144.774 61.127C143.941 61.127 143.285 60.8625 142.807 60.3335V63.6406H141.632V54.1318H142.705L142.762 54.8936C143.24 54.3011 143.905 54.0049 144.755 54.0049C145.581 54.0049 146.232 54.3159 146.71 54.938C147.193 55.5601 147.434 56.4255 147.434 57.5342V57.6421ZM146.26 57.5088C146.26 56.7344 146.095 56.1229 145.765 55.6743C145.435 55.2257 144.982 55.0015 144.406 55.0015C143.695 55.0015 143.162 55.3167 142.807 55.9473V59.229C143.158 59.8553 143.695 60.1685 144.419 60.1685C144.982 60.1685 145.428 59.9463 145.758 59.502C146.093 59.0534 146.26 58.389 146.26 57.5088ZM148.621 57.5024C148.621 56.8296 148.752 56.2244 149.015 55.687C149.281 55.1496 149.649 54.7349 150.119 54.4429C150.593 54.1509 151.133 54.0049 151.738 54.0049C152.673 54.0049 153.428 54.3286 154.004 54.9761C154.584 55.6235 154.874 56.4847 154.874 57.5596V57.6421C154.874 58.3107 154.744 58.9116 154.486 59.4448C154.232 59.9738 153.866 60.3864 153.388 60.6826C152.914 60.9788 152.368 61.127 151.75 61.127C150.819 61.127 150.064 60.8032 149.484 60.1558C148.909 59.5083 148.621 58.6514 148.621 57.585V57.5024ZM149.802 57.6421C149.802 58.4038 149.977 59.0153 150.329 59.4766C150.684 59.9378 151.158 60.1685 151.75 60.1685C152.347 60.1685 152.821 59.9357 153.172 59.4702C153.524 59.0005 153.699 58.3446 153.699 57.5024C153.699 56.7492 153.519 56.1398 153.16 55.6743C152.804 55.2046 152.33 54.9697 151.738 54.9697C151.158 54.9697 150.69 55.2004 150.335 55.6616C149.979 56.1229 149.802 56.783 149.802 57.6421ZM160.345 59.1782C160.345 58.8608 160.225 58.6154 159.983 58.4419C159.746 58.2642 159.33 58.1118 158.733 57.9849C158.14 57.8579 157.669 57.7056 157.317 57.5278C156.97 57.3501 156.712 57.1385 156.543 56.8931C156.378 56.6476 156.295 56.3556 156.295 56.0171C156.295 55.4543 156.532 54.9782 157.006 54.5889C157.485 54.1995 158.094 54.0049 158.834 54.0049C159.613 54.0049 160.244 54.2059 160.726 54.6079C161.213 55.0099 161.456 55.5241 161.456 56.1504H160.275C160.275 55.8288 160.138 55.5516 159.863 55.3188C159.592 55.0861 159.249 54.9697 158.834 54.9697C158.407 54.9697 158.073 55.0628 157.832 55.249C157.59 55.4352 157.47 55.6785 157.47 55.979C157.47 56.2625 157.582 56.4762 157.806 56.6201C158.03 56.764 158.435 56.9015 159.019 57.0327C159.607 57.1639 160.083 57.3205 160.447 57.5024C160.811 57.6844 161.079 57.9045 161.253 58.1626C161.431 58.4165 161.52 58.7275 161.52 59.0957C161.52 59.7093 161.274 60.2023 160.783 60.5747C160.292 60.9429 159.655 61.127 158.873 61.127C158.322 61.127 157.836 61.0296 157.413 60.835C156.989 60.6403 156.657 60.3695 156.416 60.0225C156.179 59.6712 156.061 59.2925 156.061 58.8862H157.235C157.256 59.2798 157.413 59.5929 157.705 59.8257C158.001 60.0542 158.39 60.1685 158.873 60.1685C159.317 60.1685 159.672 60.0796 159.939 59.9019C160.21 59.7199 160.345 59.4787 160.345 59.1782ZM164.643 52.4688V54.1318H165.925V55.0396H164.643V59.2988C164.643 59.5739 164.7 59.7812 164.814 59.9209C164.928 60.0563 165.123 60.124 165.398 60.124C165.533 60.124 165.72 60.0986 165.957 60.0479V61C165.648 61.0846 165.347 61.127 165.055 61.127C164.53 61.127 164.135 60.9683 163.868 60.6509C163.602 60.3335 163.468 59.8828 163.468 59.2988V55.0396H162.218V54.1318H163.468V52.4688H164.643ZM172.12 52.4688V54.1318H173.402V55.0396H172.12V59.2988C172.12 59.5739 172.177 59.7812 172.292 59.9209C172.406 60.0563 172.6 60.124 172.875 60.124C173.011 60.124 173.197 60.0986 173.434 60.0479V61C173.125 61.0846 172.825 61.127 172.533 61.127C172.008 61.127 171.612 60.9683 171.346 60.6509C171.079 60.3335 170.946 59.8828 170.946 59.2988V55.0396H169.695V54.1318H170.946V52.4688H172.12ZM175.954 54.9634C176.475 54.3244 177.152 54.0049 177.985 54.0049C179.437 54.0049 180.169 54.8237 180.182 56.4614V61H179.007V56.4551C179.003 55.96 178.889 55.5939 178.665 55.3569C178.444 55.12 178.1 55.0015 177.63 55.0015C177.249 55.0015 176.915 55.103 176.627 55.3062C176.339 55.5093 176.115 55.7759 175.954 56.106V61H174.78V51.25H175.954V54.9634ZM186.18 61C186.112 60.8646 186.057 60.6234 186.015 60.2764C185.469 60.8434 184.818 61.127 184.06 61.127C183.383 61.127 182.826 60.9365 182.391 60.5557C181.959 60.1706 181.743 59.6839 181.743 59.0957C181.743 58.3805 182.014 57.8262 182.556 57.4326C183.102 57.0348 183.868 56.8359 184.854 56.8359H185.996V56.2964C185.996 55.8859 185.873 55.5601 185.628 55.3188C185.382 55.0734 185.021 54.9507 184.542 54.9507C184.124 54.9507 183.772 55.0565 183.489 55.2681C183.205 55.4797 183.063 55.7357 183.063 56.0361H181.883C181.883 55.6934 182.003 55.3633 182.245 55.0459C182.49 54.7243 182.82 54.4704 183.235 54.2842C183.654 54.098 184.113 54.0049 184.612 54.0049C185.404 54.0049 186.024 54.2038 186.472 54.6016C186.921 54.9951 187.153 55.5389 187.17 56.2329V59.394C187.17 60.0246 187.251 60.526 187.412 60.8984V61H186.18ZM184.231 60.105C184.6 60.105 184.949 60.0098 185.279 59.8193C185.609 59.6289 185.848 59.3813 185.996 59.0767V57.6675H185.076C183.637 57.6675 182.917 58.0885 182.917 58.9307C182.917 59.2988 183.04 59.5866 183.286 59.7939C183.531 60.0013 183.846 60.105 184.231 60.105ZM190.604 52.4688V54.1318H191.887V55.0396H190.604V59.2988C190.604 59.5739 190.662 59.7812 190.776 59.9209C190.89 60.0563 191.085 60.124 191.36 60.124C191.495 60.124 191.681 60.0986 191.918 60.0479V61C191.61 61.0846 191.309 61.127 191.017 61.127C190.492 61.127 190.097 60.9683 189.83 60.6509C189.563 60.3335 189.43 59.8828 189.43 59.2988V55.0396H188.18V54.1318H189.43V52.4688H190.604ZM200.488 59.1782C200.488 58.8608 200.367 58.6154 200.126 58.4419C199.889 58.2642 199.472 58.1118 198.875 57.9849C198.283 57.8579 197.811 57.7056 197.46 57.5278C197.113 57.3501 196.855 57.1385 196.686 56.8931C196.521 56.6476 196.438 56.3556 196.438 56.0171C196.438 55.4543 196.675 54.9782 197.149 54.5889C197.627 54.1995 198.236 54.0049 198.977 54.0049C199.756 54.0049 200.386 54.2059 200.869 54.6079C201.355 55.0099 201.599 55.5241 201.599 56.1504H200.418C200.418 55.8288 200.28 55.5516 200.005 55.3188C199.735 55.0861 199.392 54.9697 198.977 54.9697C198.55 54.9697 198.215 55.0628 197.974 55.249C197.733 55.4352 197.612 55.6785 197.612 55.979C197.612 56.2625 197.724 56.4762 197.949 56.6201C198.173 56.764 198.577 56.9015 199.161 57.0327C199.749 57.1639 200.225 57.3205 200.589 57.5024C200.953 57.6844 201.222 57.9045 201.396 58.1626C201.573 58.4165 201.662 58.7275 201.662 59.0957C201.662 59.7093 201.417 60.2023 200.926 60.5747C200.435 60.9429 199.798 61.127 199.015 61.127C198.465 61.127 197.978 61.0296 197.555 60.835C197.132 60.6403 196.8 60.3695 196.559 60.0225C196.322 59.6712 196.203 59.2925 196.203 58.8862H197.377C197.399 59.2798 197.555 59.5929 197.847 59.8257C198.143 60.0542 198.533 60.1685 199.015 60.1685C199.459 60.1685 199.815 60.0796 200.082 59.9019C200.352 59.7199 200.488 59.4787 200.488 59.1782ZM207.432 61C207.364 60.8646 207.309 60.6234 207.267 60.2764C206.721 60.8434 206.069 61.127 205.312 61.127C204.635 61.127 204.078 60.9365 203.643 60.5557C203.211 60.1706 202.995 59.6839 202.995 59.0957C202.995 58.3805 203.266 57.8262 203.808 57.4326C204.354 57.0348 205.119 56.8359 206.105 56.8359H207.248V56.2964C207.248 55.8859 207.125 55.5601 206.88 55.3188C206.634 55.0734 206.273 54.9507 205.794 54.9507C205.375 54.9507 205.024 55.0565 204.741 55.2681C204.457 55.4797 204.315 55.7357 204.315 56.0361H203.135C203.135 55.6934 203.255 55.3633 203.497 55.0459C203.742 54.7243 204.072 54.4704 204.487 54.2842C204.906 54.098 205.365 54.0049 205.864 54.0049C206.656 54.0049 207.276 54.2038 207.724 54.6016C208.173 54.9951 208.405 55.5389 208.422 56.2329V59.394C208.422 60.0246 208.503 60.526 208.664 60.8984V61H207.432ZM205.483 60.105C205.852 60.105 206.201 60.0098 206.531 59.8193C206.861 59.6289 207.1 59.3813 207.248 59.0767V57.6675H206.328C204.889 57.6675 204.169 58.0885 204.169 58.9307C204.169 59.2988 204.292 59.5866 204.538 59.7939C204.783 60.0013 205.098 60.105 205.483 60.105ZM212.409 59.2798L214.008 54.1318H215.265L212.504 62.0601C212.076 63.2026 211.397 63.7739 210.466 63.7739L210.244 63.7549L209.806 63.6724V62.7202L210.124 62.7456C210.521 62.7456 210.83 62.6652 211.05 62.5044C211.275 62.3436 211.459 62.0495 211.603 61.6221L211.863 60.9238L209.413 54.1318H210.695L212.409 59.2798ZM220.318 59.1782C220.318 58.8608 220.197 58.6154 219.956 58.4419C219.719 58.2642 219.302 58.1118 218.706 57.9849C218.113 57.8579 217.641 57.7056 217.29 57.5278C216.943 57.3501 216.685 57.1385 216.516 56.8931C216.351 56.6476 216.268 56.3556 216.268 56.0171C216.268 55.4543 216.505 54.9782 216.979 54.5889C217.457 54.1995 218.067 54.0049 218.807 54.0049C219.586 54.0049 220.216 54.2059 220.699 54.6079C221.185 55.0099 221.429 55.5241 221.429 56.1504H220.248C220.248 55.8288 220.111 55.5516 219.835 55.3188C219.565 55.0861 219.222 54.9697 218.807 54.9697C218.38 54.9697 218.045 55.0628 217.804 55.249C217.563 55.4352 217.442 55.6785 217.442 55.979C217.442 56.2625 217.555 56.4762 217.779 56.6201C218.003 56.764 218.407 56.9015 218.991 57.0327C219.579 57.1639 220.056 57.3205 220.419 57.5024C220.783 57.6844 221.052 57.9045 221.226 58.1626C221.403 58.4165 221.492 58.7275 221.492 59.0957C221.492 59.7093 221.247 60.2023 220.756 60.5747C220.265 60.9429 219.628 61.127 218.845 61.127C218.295 61.127 217.808 61.0296 217.385 60.835C216.962 60.6403 216.63 60.3695 216.389 60.0225C216.152 59.6712 216.033 59.2925 216.033 58.8862H217.208C217.229 59.2798 217.385 59.5929 217.677 59.8257C217.973 60.0542 218.363 60.1685 218.845 60.1685C219.29 60.1685 219.645 60.0796 219.912 59.9019C220.182 59.7199 220.318 59.4787 220.318 59.1782ZM232.061 57.6421C232.061 58.6916 231.82 59.5358 231.337 60.1748C230.855 60.8096 230.208 61.127 229.395 61.127C228.528 61.127 227.857 60.8201 227.383 60.2065L227.326 61H226.247V51.25H227.421V54.8872C227.895 54.299 228.549 54.0049 229.382 54.0049C230.216 54.0049 230.87 54.3201 231.344 54.9507C231.822 55.5812 232.061 56.4445 232.061 57.5405V57.6421ZM230.887 57.5088C230.887 56.709 230.732 56.0911 230.423 55.6553C230.114 55.2194 229.67 55.0015 229.09 55.0015C228.316 55.0015 227.759 55.3612 227.421 56.0806V59.0513C227.781 59.7707 228.341 60.1304 229.103 60.1304C229.666 60.1304 230.104 59.9124 230.417 59.4766C230.73 59.0407 230.887 58.3848 230.887 57.5088ZM234.822 61H233.648V51.25H234.822V61ZM240.948 61C240.88 60.8646 240.825 60.6234 240.783 60.2764C240.237 60.8434 239.585 61.127 238.828 61.127C238.151 61.127 237.594 60.9365 237.158 60.5557C236.727 60.1706 236.511 59.6839 236.511 59.0957C236.511 58.3805 236.782 57.8262 237.323 57.4326C237.869 57.0348 238.635 56.8359 239.621 56.8359H240.764V56.2964C240.764 55.8859 240.641 55.5601 240.396 55.3188C240.15 55.0734 239.788 54.9507 239.31 54.9507C238.891 54.9507 238.54 55.0565 238.256 55.2681C237.973 55.4797 237.831 55.7357 237.831 56.0361H236.65C236.65 55.6934 236.771 55.3633 237.012 55.0459C237.258 54.7243 237.588 54.4704 238.002 54.2842C238.421 54.098 238.881 54.0049 239.38 54.0049C240.171 54.0049 240.791 54.2038 241.24 54.6016C241.688 54.9951 241.921 55.5389 241.938 56.2329V59.394C241.938 60.0246 242.018 60.526 242.179 60.8984V61H240.948ZM238.999 60.105C239.367 60.105 239.716 60.0098 240.046 59.8193C240.376 59.6289 240.616 59.3813 240.764 59.0767V57.6675H239.843C238.404 57.6675 237.685 58.0885 237.685 58.9307C237.685 59.2988 237.808 59.5866 238.053 59.7939C238.299 60.0013 238.614 60.105 238.999 60.105ZM252.818 57.6421C252.818 58.6916 252.577 59.5358 252.094 60.1748C251.612 60.8096 250.964 61.127 250.152 61.127C249.284 61.127 248.614 60.8201 248.14 60.2065L248.083 61H247.003V51.25H248.178V54.8872C248.652 54.299 249.306 54.0049 250.139 54.0049C250.973 54.0049 251.627 54.3201 252.101 54.9507C252.579 55.5812 252.818 56.4445 252.818 57.5405V57.6421ZM251.644 57.5088C251.644 56.709 251.489 56.0911 251.18 55.6553C250.871 55.2194 250.427 55.0015 249.847 55.0015C249.073 55.0015 248.516 55.3612 248.178 56.0806V59.0513C248.537 59.7707 249.098 60.1304 249.86 60.1304C250.423 60.1304 250.861 59.9124 251.174 59.4766C251.487 59.0407 251.644 58.3848 251.644 57.5088ZM255.579 61H254.405V51.25H255.579V61ZM261.705 61C261.637 60.8646 261.582 60.6234 261.54 60.2764C260.994 60.8434 260.342 61.127 259.584 61.127C258.907 61.127 258.351 60.9365 257.915 60.5557C257.483 60.1706 257.268 59.6839 257.268 59.0957C257.268 58.3805 257.538 57.8262 258.08 57.4326C258.626 57.0348 259.392 56.8359 260.378 56.8359H261.521V56.2964C261.521 55.8859 261.398 55.5601 261.152 55.3188C260.907 55.0734 260.545 54.9507 260.067 54.9507C259.648 54.9507 259.297 55.0565 259.013 55.2681C258.73 55.4797 258.588 55.7357 258.588 56.0361H257.407C257.407 55.6934 257.528 55.3633 257.769 55.0459C258.014 54.7243 258.345 54.4704 258.759 54.2842C259.178 54.098 259.637 54.0049 260.137 54.0049C260.928 54.0049 261.548 54.2038 261.997 54.6016C262.445 54.9951 262.678 55.5389 262.695 56.2329V59.394C262.695 60.0246 262.775 60.526 262.936 60.8984V61H261.705ZM259.756 60.105C260.124 60.105 260.473 60.0098 260.803 59.8193C261.133 59.6289 261.372 59.3813 261.521 59.0767V57.6675H260.6C259.161 57.6675 258.442 58.0885 258.442 58.9307C258.442 59.2988 258.565 59.5866 258.81 59.7939C259.056 60.0013 259.371 60.105 259.756 60.105Z" fill="white"/>
<rect x="42" y="113" width="286" height="74" rx="10" fill="#192620" fill-opacity="0.31"/>
<path d="M233.125 130H232.126V123.377L230.123 124.113V123.211L232.97 122.142H233.125V130ZM236.106 129.479C236.106 129.307 236.157 129.164 236.257 129.049C236.361 128.935 236.515 128.877 236.719 128.877C236.923 128.877 237.077 128.935 237.181 129.049C237.288 129.164 237.342 129.307 237.342 129.479C237.342 129.644 237.288 129.782 237.181 129.893C237.077 130.004 236.923 130.059 236.719 130.059C236.515 130.059 236.361 130.004 236.257 129.893C236.157 129.782 236.106 129.644 236.106 129.479ZM236.112 124.736C236.112 124.564 236.162 124.421 236.262 124.307C236.366 124.192 236.52 124.135 236.724 124.135C236.928 124.135 237.082 124.192 237.186 124.307C237.293 124.421 237.347 124.564 237.347 124.736C237.347 124.901 237.293 125.039 237.186 125.15C237.082 125.261 236.928 125.316 236.724 125.316C236.52 125.316 236.366 125.261 236.262 125.15C236.162 125.039 236.112 124.901 236.112 124.736ZM239.157 126.079L239.555 122.18H243.562V123.098H240.398L240.162 125.23C240.545 125.005 240.98 124.892 241.467 124.892C242.179 124.892 242.745 125.128 243.164 125.601C243.583 126.07 243.792 126.706 243.792 127.508C243.792 128.313 243.574 128.949 243.137 129.415C242.704 129.876 242.097 130.107 241.316 130.107C240.625 130.107 240.061 129.916 239.625 129.533C239.188 129.15 238.939 128.62 238.878 127.943H239.818C239.879 128.39 240.038 128.729 240.296 128.958C240.554 129.184 240.894 129.296 241.316 129.296C241.778 129.296 242.14 129.139 242.401 128.824C242.666 128.509 242.799 128.074 242.799 127.519C242.799 126.996 242.656 126.577 242.369 126.262C242.086 125.943 241.708 125.784 241.236 125.784C240.803 125.784 240.462 125.879 240.215 126.068L239.952 126.283L239.157 126.079ZM249.781 126.665C249.781 127.828 249.583 128.693 249.185 129.259C248.788 129.825 248.166 130.107 247.321 130.107C246.487 130.107 245.869 129.832 245.468 129.28C245.067 128.725 244.86 127.898 244.845 126.799V125.472C244.845 124.323 245.044 123.469 245.441 122.91C245.839 122.352 246.462 122.072 247.311 122.072C248.152 122.072 248.771 122.343 249.169 122.883C249.566 123.42 249.771 124.251 249.781 125.375V126.665ZM248.788 125.306C248.788 124.464 248.669 123.852 248.433 123.469C248.197 123.082 247.823 122.889 247.311 122.889C246.802 122.889 246.431 123.08 246.199 123.463C245.966 123.847 245.846 124.436 245.839 125.23V126.82C245.839 127.665 245.961 128.29 246.204 128.695C246.451 129.096 246.824 129.296 247.321 129.296C247.812 129.296 248.175 129.107 248.412 128.727C248.652 128.347 248.777 127.75 248.788 126.933V125.306ZM258.687 126.665C258.687 127.828 258.488 128.693 258.09 129.259C257.693 129.825 257.072 130.107 256.227 130.107C255.392 130.107 254.775 129.832 254.374 129.28C253.972 128.725 253.765 127.898 253.75 126.799V125.472C253.75 124.323 253.949 123.469 254.347 122.91C254.744 122.352 255.367 122.072 256.216 122.072C257.057 122.072 257.677 122.343 258.074 122.883C258.472 123.42 258.676 124.251 258.687 125.375V126.665ZM257.693 125.306C257.693 124.464 257.575 123.852 257.338 123.469C257.102 123.082 256.728 122.889 256.216 122.889C255.707 122.889 255.337 123.08 255.104 123.463C254.871 123.847 254.751 124.436 254.744 125.23V126.82C254.744 127.665 254.866 128.29 255.109 128.695C255.356 129.096 255.729 129.296 256.227 129.296C256.717 129.296 257.081 129.107 257.317 128.727C257.557 128.347 257.682 127.75 257.693 126.933V125.306ZM263.225 130H262.226V123.377L260.223 124.113V123.211L263.069 122.142H263.225V130ZM266.437 130.671H265.583L268.849 122.18H269.697L266.437 130.671ZM275.573 126.665C275.573 127.828 275.375 128.693 274.977 129.259C274.58 129.825 273.958 130.107 273.113 130.107C272.279 130.107 271.661 129.832 271.26 129.28C270.859 128.725 270.652 127.898 270.637 126.799V125.472C270.637 124.323 270.836 123.469 271.233 122.91C271.631 122.352 272.254 122.072 273.103 122.072C273.944 122.072 274.563 122.343 274.961 122.883C275.358 123.42 275.562 124.251 275.573 125.375V126.665ZM274.58 125.306C274.58 124.464 274.461 123.852 274.225 123.469C273.989 123.082 273.615 122.889 273.103 122.889C272.594 122.889 272.223 123.08 271.991 123.463C271.758 123.847 271.638 124.436 271.631 125.23V126.82C271.631 127.665 271.753 128.29 271.996 128.695C272.243 129.096 272.616 129.296 273.113 129.296C273.604 129.296 273.967 129.107 274.204 128.727C274.444 128.347 274.569 127.75 274.58 126.933V125.306ZM281.895 122.738L278.656 130H277.614L280.842 122.996H276.61V122.18H281.895V122.738ZM283.324 130.671H282.47L285.735 122.18H286.584L283.324 130.671ZM292.68 130H287.556V129.286L290.263 126.278C290.664 125.823 290.94 125.454 291.09 125.171C291.244 124.885 291.321 124.59 291.321 124.285C291.321 123.877 291.198 123.542 290.951 123.281C290.704 123.019 290.374 122.889 289.962 122.889C289.468 122.889 289.083 123.03 288.808 123.313C288.535 123.592 288.399 123.983 288.399 124.484H287.406C287.406 123.764 287.637 123.182 288.099 122.738C288.564 122.294 289.185 122.072 289.962 122.072C290.689 122.072 291.264 122.264 291.687 122.647C292.109 123.027 292.32 123.533 292.32 124.167C292.32 124.937 291.83 125.854 290.849 126.917L288.754 129.189H292.68V130ZM298.637 126.665C298.637 127.828 298.438 128.693 298.041 129.259C297.643 129.825 297.022 130.107 296.177 130.107C295.342 130.107 294.725 129.832 294.324 129.28C293.923 128.725 293.715 127.898 293.701 126.799V125.472C293.701 124.323 293.899 123.469 294.297 122.91C294.694 122.352 295.317 122.072 296.166 122.072C297.007 122.072 297.627 122.343 298.024 122.883C298.422 123.42 298.626 124.251 298.637 125.375V126.665ZM297.643 125.306C297.643 124.464 297.525 123.852 297.289 123.469C297.052 123.082 296.678 122.889 296.166 122.889C295.658 122.889 295.287 123.08 295.054 123.463C294.821 123.847 294.701 124.436 294.694 125.23V126.82C294.694 127.665 294.816 128.29 295.06 128.695C295.307 129.096 295.679 129.296 296.177 129.296C296.667 129.296 297.031 129.107 297.267 128.727C297.507 128.347 297.632 127.75 297.643 126.933V125.306ZM305.034 130H299.91V129.286L302.617 126.278C303.018 125.823 303.293 125.454 303.444 125.171C303.598 124.885 303.675 124.59 303.675 124.285C303.675 123.877 303.551 123.542 303.304 123.281C303.057 123.019 302.728 122.889 302.316 122.889C301.822 122.889 301.437 123.03 301.161 123.313C300.889 123.592 300.753 123.983 300.753 124.484H299.759C299.759 123.764 299.99 123.182 300.452 122.738C300.918 122.294 301.539 122.072 302.316 122.072C303.043 122.072 303.618 122.264 304.04 122.647C304.463 123.027 304.674 123.533 304.674 124.167C304.674 124.937 304.183 125.854 303.202 126.917L301.107 129.189H305.034V130ZM310.99 126.665C310.99 127.828 310.792 128.693 310.394 129.259C309.997 129.825 309.375 130.107 308.53 130.107C307.696 130.107 307.078 129.832 306.677 129.28C306.276 128.725 306.069 127.898 306.054 126.799V125.472C306.054 124.323 306.253 123.469 306.65 122.91C307.048 122.352 307.671 122.072 308.52 122.072C309.361 122.072 309.98 122.343 310.378 122.883C310.775 123.42 310.979 124.251 310.99 125.375V126.665ZM309.997 125.306C309.997 124.464 309.878 123.852 309.642 123.469C309.406 123.082 309.032 122.889 308.52 122.889C308.011 122.889 307.64 123.08 307.408 123.463C307.175 123.847 307.055 124.436 307.048 125.23V126.82C307.048 127.665 307.17 128.29 307.413 128.695C307.66 129.096 308.033 129.296 308.53 129.296C309.021 129.296 309.384 129.107 309.621 128.727C309.861 128.347 309.986 127.75 309.997 126.933V125.306ZM315.529 130H314.53V123.377L312.526 124.113V123.211L315.373 122.142H315.529V130Z" fill="white"/>
<path d="M58.9248 119.336H60.3384V126.887C60.3384 127.908 60.0308 128.706 59.4155 129.282C58.8052 129.858 57.9897 130.146 56.9692 130.146C55.9097 130.146 55.0845 129.875 54.4937 129.333C53.9028 128.792 53.6074 128.032 53.6074 127.056H55.0137C55.0137 127.666 55.1797 128.142 55.5117 128.484C55.8486 128.826 56.3345 128.997 56.9692 128.997C57.5503 128.997 58.019 128.813 58.3755 128.447C58.7368 128.081 58.9199 127.568 58.9248 126.909V119.336ZM62.1621 125.964C62.1621 125.188 62.3135 124.49 62.6162 123.87C62.9238 123.25 63.3486 122.771 63.8906 122.434C64.4375 122.097 65.0601 121.929 65.7583 121.929C66.8374 121.929 67.709 122.302 68.373 123.049C69.042 123.796 69.3765 124.79 69.3765 126.03V126.125C69.3765 126.897 69.2275 127.59 68.9297 128.206C68.6367 128.816 68.2144 129.292 67.6626 129.634C67.1157 129.976 66.4858 130.146 65.7729 130.146C64.6987 130.146 63.8271 129.773 63.1582 129.026C62.4941 128.279 62.1621 127.29 62.1621 126.06V125.964ZM63.5244 126.125C63.5244 127.004 63.7271 127.71 64.1323 128.242C64.5425 128.774 65.0894 129.041 65.7729 129.041C66.4614 129.041 67.0083 128.772 67.4136 128.235C67.8188 127.693 68.0215 126.936 68.0215 125.964C68.0215 125.095 67.814 124.392 67.3989 123.855C66.9888 123.313 66.4419 123.042 65.7583 123.042C65.0894 123.042 64.5498 123.308 64.1396 123.84C63.7295 124.373 63.5244 125.134 63.5244 126.125ZM72.3574 122.075L72.4014 123.071C73.0068 122.31 73.7979 121.929 74.7744 121.929C76.4492 121.929 77.2939 122.874 77.3086 124.763V130H75.9536V124.756C75.9487 124.185 75.8169 123.762 75.5581 123.489C75.3042 123.215 74.9062 123.079 74.3643 123.079C73.9248 123.079 73.5391 123.196 73.207 123.43C72.875 123.665 72.6162 123.972 72.4307 124.353V130H71.0757V122.075H72.3574ZM80.6338 122.075L80.6777 123.071C81.2832 122.31 82.0742 121.929 83.0508 121.929C84.7256 121.929 85.5703 122.874 85.585 124.763V130H84.23V124.756C84.2251 124.185 84.0933 123.762 83.8345 123.489C83.5806 123.215 83.1826 123.079 82.6406 123.079C82.2012 123.079 81.8154 123.196 81.4834 123.43C81.1514 123.665 80.8926 123.972 80.707 124.353V130H79.3521V122.075H80.6338ZM90.2212 128.015L92.0669 122.075H93.5171L90.3311 131.223C89.8379 132.542 89.0542 133.201 87.98 133.201L87.7236 133.179L87.2183 133.083V131.985L87.5845 132.014C88.0435 132.014 88.3999 131.921 88.6538 131.736C88.9126 131.55 89.125 131.211 89.291 130.718L89.5913 129.912L86.7642 122.075H88.2437L90.2212 128.015ZM98.666 130V119.336H101.676C102.604 119.336 103.424 119.541 104.137 119.951C104.85 120.361 105.399 120.945 105.785 121.702C106.176 122.458 106.374 123.328 106.378 124.309V124.99C106.378 125.996 106.183 126.877 105.792 127.634C105.407 128.391 104.853 128.972 104.13 129.377C103.412 129.783 102.575 129.99 101.618 130H98.666ZM100.072 120.493V128.85H101.552C102.636 128.85 103.478 128.513 104.079 127.839C104.684 127.166 104.987 126.206 104.987 124.961V124.338C104.987 123.127 104.701 122.188 104.13 121.519C103.563 120.845 102.758 120.503 101.713 120.493H100.072ZM107.938 125.964C107.938 125.188 108.09 124.49 108.393 123.87C108.7 123.25 109.125 122.771 109.667 122.434C110.214 122.097 110.836 121.929 111.535 121.929C112.614 121.929 113.485 122.302 114.149 123.049C114.818 123.796 115.153 124.79 115.153 126.03V126.125C115.153 126.897 115.004 127.59 114.706 128.206C114.413 128.816 113.991 129.292 113.439 129.634C112.892 129.976 112.262 130.146 111.549 130.146C110.475 130.146 109.604 129.773 108.935 129.026C108.271 128.279 107.938 127.29 107.938 126.06V125.964ZM109.301 126.125C109.301 127.004 109.503 127.71 109.909 128.242C110.319 128.774 110.866 129.041 111.549 129.041C112.238 129.041 112.785 128.772 113.19 128.235C113.595 127.693 113.798 126.936 113.798 125.964C113.798 125.095 113.59 124.392 113.175 123.855C112.765 123.313 112.218 123.042 111.535 123.042C110.866 123.042 110.326 123.308 109.916 123.84C109.506 124.373 109.301 125.134 109.301 126.125ZM120.141 130.146C119.066 130.146 118.192 129.795 117.519 129.092C116.845 128.384 116.508 127.439 116.508 126.257V126.008C116.508 125.222 116.657 124.521 116.955 123.906C117.257 123.286 117.677 122.803 118.214 122.456C118.756 122.104 119.342 121.929 119.972 121.929C121.002 121.929 121.803 122.268 122.375 122.947C122.946 123.625 123.231 124.597 123.231 125.862V126.426H117.863C117.882 127.207 118.109 127.839 118.544 128.323C118.983 128.801 119.54 129.041 120.214 129.041C120.692 129.041 121.098 128.943 121.43 128.748C121.762 128.552 122.052 128.293 122.301 127.971L123.129 128.616C122.465 129.636 121.469 130.146 120.141 130.146ZM119.972 123.042C119.425 123.042 118.966 123.242 118.595 123.643C118.224 124.038 117.995 124.595 117.907 125.312H121.876V125.21C121.837 124.521 121.652 123.989 121.32 123.613C120.988 123.232 120.539 123.042 119.972 123.042Z" fill="white"/>
<rect x="55" y="139" width="40" height="40" rx="5" fill="#C4C4C4"/>
<rect x="101" y="137" width="217" height="43" rx="10" fill="#192620" fill-opacity="0.89"/>
<path d="M123.368 146.761H120.397V155H119.185V146.761H116.221V145.758H123.368V146.761ZM125.729 148.963C126.25 148.324 126.927 148.005 127.761 148.005C129.212 148.005 129.944 148.824 129.957 150.461V155H128.783V150.455C128.778 149.96 128.664 149.594 128.44 149.357C128.22 149.12 127.875 149.001 127.405 149.001C127.024 149.001 126.69 149.103 126.402 149.306C126.115 149.509 125.89 149.776 125.729 150.106V155H124.555V145.25H125.729V148.963ZM132.991 155H131.817V148.132H132.991V155ZM131.722 146.31C131.722 146.12 131.779 145.959 131.893 145.828C132.012 145.696 132.185 145.631 132.414 145.631C132.642 145.631 132.816 145.696 132.934 145.828C133.053 145.959 133.112 146.12 133.112 146.31C133.112 146.5 133.053 146.659 132.934 146.786C132.816 146.913 132.642 146.977 132.414 146.977C132.185 146.977 132.012 146.913 131.893 146.786C131.779 146.659 131.722 146.5 131.722 146.31ZM138.875 153.178C138.875 152.861 138.755 152.615 138.514 152.442C138.277 152.264 137.86 152.112 137.263 151.985C136.671 151.858 136.199 151.706 135.848 151.528C135.501 151.35 135.243 151.139 135.073 150.893C134.908 150.648 134.826 150.356 134.826 150.017C134.826 149.454 135.063 148.978 135.537 148.589C136.015 148.2 136.624 148.005 137.365 148.005C138.143 148.005 138.774 148.206 139.256 148.608C139.743 149.01 139.986 149.524 139.986 150.15H138.806C138.806 149.829 138.668 149.552 138.393 149.319C138.122 149.086 137.779 148.97 137.365 148.97C136.937 148.97 136.603 149.063 136.362 149.249C136.121 149.435 136 149.679 136 149.979C136 150.263 136.112 150.476 136.336 150.62C136.561 150.764 136.965 150.902 137.549 151.033C138.137 151.164 138.613 151.32 138.977 151.502C139.341 151.684 139.61 151.904 139.783 152.163C139.961 152.417 140.05 152.728 140.05 153.096C140.05 153.709 139.804 154.202 139.313 154.575C138.823 154.943 138.186 155.127 137.403 155.127C136.853 155.127 136.366 155.03 135.943 154.835C135.52 154.64 135.188 154.369 134.946 154.022C134.709 153.671 134.591 153.292 134.591 152.886H135.765C135.786 153.28 135.943 153.593 136.235 153.826C136.531 154.054 136.92 154.168 137.403 154.168C137.847 154.168 138.203 154.08 138.469 153.902C138.74 153.72 138.875 153.479 138.875 153.178ZM146.08 155H144.906V148.132H146.08V155ZM144.811 146.31C144.811 146.12 144.868 145.959 144.982 145.828C145.1 145.696 145.274 145.631 145.502 145.631C145.731 145.631 145.904 145.696 146.023 145.828C146.141 145.959 146.201 146.12 146.201 146.31C146.201 146.5 146.141 146.659 146.023 146.786C145.904 146.913 145.731 146.977 145.502 146.977C145.274 146.977 145.1 146.913 144.982 146.786C144.868 146.659 144.811 146.5 144.811 146.31ZM151.964 153.178C151.964 152.861 151.844 152.615 151.603 152.442C151.366 152.264 150.949 152.112 150.352 151.985C149.76 151.858 149.288 151.706 148.937 151.528C148.59 151.35 148.331 151.139 148.162 150.893C147.997 150.648 147.915 150.356 147.915 150.017C147.915 149.454 148.152 148.978 148.625 148.589C149.104 148.2 149.713 148.005 150.454 148.005C151.232 148.005 151.863 148.206 152.345 148.608C152.832 149.01 153.075 149.524 153.075 150.15H151.895C151.895 149.829 151.757 149.552 151.482 149.319C151.211 149.086 150.868 148.97 150.454 148.97C150.026 148.97 149.692 149.063 149.451 149.249C149.209 149.435 149.089 149.679 149.089 149.979C149.089 150.263 149.201 150.476 149.425 150.62C149.65 150.764 150.054 150.902 150.638 151.033C151.226 151.164 151.702 151.32 152.066 151.502C152.43 151.684 152.699 151.904 152.872 152.163C153.05 152.417 153.139 152.728 153.139 153.096C153.139 153.709 152.893 154.202 152.402 154.575C151.911 154.943 151.275 155.127 150.492 155.127C149.942 155.127 149.455 155.03 149.032 154.835C148.609 154.64 148.276 154.369 148.035 154.022C147.798 153.671 147.68 153.292 147.68 152.886H148.854C148.875 153.28 149.032 153.593 149.324 153.826C149.62 154.054 150.009 154.168 150.492 154.168C150.936 154.168 151.292 154.08 151.558 153.902C151.829 153.72 151.964 153.479 151.964 153.178ZM162.133 155C162.066 154.865 162.011 154.623 161.968 154.276C161.422 154.843 160.771 155.127 160.013 155.127C159.336 155.127 158.78 154.937 158.344 154.556C157.912 154.171 157.696 153.684 157.696 153.096C157.696 152.381 157.967 151.826 158.509 151.433C159.055 151.035 159.821 150.836 160.807 150.836H161.949V150.296C161.949 149.886 161.826 149.56 161.581 149.319C161.336 149.073 160.974 148.951 160.496 148.951C160.077 148.951 159.725 149.056 159.442 149.268C159.158 149.48 159.017 149.736 159.017 150.036H157.836C157.836 149.693 157.957 149.363 158.198 149.046C158.443 148.724 158.773 148.47 159.188 148.284C159.607 148.098 160.066 148.005 160.565 148.005C161.357 148.005 161.977 148.204 162.425 148.602C162.874 148.995 163.107 149.539 163.124 150.233V153.394C163.124 154.025 163.204 154.526 163.365 154.898V155H162.133ZM160.185 154.105C160.553 154.105 160.902 154.01 161.232 153.819C161.562 153.629 161.801 153.381 161.949 153.077V151.667H161.029C159.59 151.667 158.871 152.089 158.871 152.931C158.871 153.299 158.993 153.587 159.239 153.794C159.484 154.001 159.799 154.105 160.185 154.105ZM170.455 153.407L172.156 148.132H173.356L170.893 155H169.998L167.51 148.132H168.709L170.455 153.407ZM177.247 155.127C176.316 155.127 175.559 154.822 174.975 154.213C174.391 153.599 174.099 152.78 174.099 151.756V151.541C174.099 150.859 174.228 150.252 174.486 149.719C174.748 149.181 175.112 148.762 175.578 148.462C176.047 148.157 176.555 148.005 177.101 148.005C177.994 148.005 178.688 148.299 179.183 148.887C179.678 149.475 179.926 150.318 179.926 151.414V151.902H175.273C175.29 152.579 175.487 153.127 175.863 153.546C176.244 153.961 176.727 154.168 177.311 154.168C177.725 154.168 178.076 154.084 178.364 153.915C178.652 153.745 178.904 153.521 179.12 153.242L179.837 153.8C179.261 154.685 178.398 155.127 177.247 155.127ZM177.101 148.97C176.627 148.97 176.229 149.143 175.908 149.49C175.586 149.833 175.387 150.315 175.311 150.938H178.751V150.849C178.718 150.252 178.557 149.791 178.269 149.465C177.981 149.135 177.592 148.97 177.101 148.97ZM184.61 149.186C184.433 149.156 184.24 149.141 184.033 149.141C183.263 149.141 182.74 149.469 182.465 150.125V155H181.291V148.132H182.433L182.452 148.925C182.837 148.312 183.383 148.005 184.09 148.005C184.318 148.005 184.492 148.035 184.61 148.094V149.186ZM188.057 153.28L189.657 148.132H190.914L188.152 156.06C187.725 157.203 187.046 157.774 186.115 157.774L185.893 157.755L185.455 157.672V156.72L185.772 156.746C186.17 156.746 186.479 156.665 186.699 156.504C186.923 156.344 187.107 156.049 187.251 155.622L187.511 154.924L185.061 148.132H186.343L188.057 153.28ZM197.458 153.407L199.159 148.132H200.359L197.896 155H197.001L194.513 148.132H195.712L197.458 153.407ZM204.25 155.127C203.319 155.127 202.562 154.822 201.978 154.213C201.394 153.599 201.102 152.78 201.102 151.756V151.541C201.102 150.859 201.231 150.252 201.489 149.719C201.751 149.181 202.115 148.762 202.581 148.462C203.05 148.157 203.558 148.005 204.104 148.005C204.997 148.005 205.691 148.299 206.186 148.887C206.681 149.475 206.929 150.318 206.929 151.414V151.902H202.276C202.293 152.579 202.49 153.127 202.866 153.546C203.247 153.961 203.729 154.168 204.313 154.168C204.728 154.168 205.079 154.084 205.367 153.915C205.655 153.745 205.907 153.521 206.123 153.242L206.84 153.8C206.264 154.685 205.401 155.127 204.25 155.127ZM204.104 148.97C203.63 148.97 203.232 149.143 202.911 149.49C202.589 149.833 202.39 150.315 202.314 150.938H205.754V150.849C205.721 150.252 205.56 149.791 205.272 149.465C204.984 149.135 204.595 148.97 204.104 148.97ZM211.613 149.186C211.436 149.156 211.243 149.141 211.036 149.141C210.265 149.141 209.743 149.469 209.468 150.125V155H208.293V148.132H209.436L209.455 148.925C209.84 148.312 210.386 148.005 211.093 148.005C211.321 148.005 211.495 148.035 211.613 148.094V149.186ZM215.06 153.28L216.66 148.132H217.917L215.155 156.06C214.728 157.203 214.049 157.774 213.118 157.774L212.896 157.755L212.458 157.672V156.72L212.775 156.746C213.173 156.746 213.482 156.665 213.702 156.504C213.926 156.344 214.11 156.049 214.254 155.622L214.514 154.924L212.064 148.132H213.346L215.06 153.28ZM224.461 153.407L226.162 148.132H227.362L224.899 155H224.004L221.516 148.132H222.715L224.461 153.407ZM231.253 155.127C230.322 155.127 229.564 154.822 228.98 154.213C228.396 153.599 228.104 152.78 228.104 151.756V151.541C228.104 150.859 228.234 150.252 228.492 149.719C228.754 149.181 229.118 148.762 229.583 148.462C230.053 148.157 230.561 148.005 231.107 148.005C232 148.005 232.694 148.299 233.189 148.887C233.684 149.475 233.932 150.318 233.932 151.414V151.902H229.279C229.296 152.579 229.493 153.127 229.869 153.546C230.25 153.961 230.732 154.168 231.316 154.168C231.731 154.168 232.082 154.084 232.37 153.915C232.658 153.745 232.91 153.521 233.125 153.242L233.843 153.8C233.267 154.685 232.404 155.127 231.253 155.127ZM231.107 148.97C230.633 148.97 230.235 149.143 229.914 149.49C229.592 149.833 229.393 150.315 229.317 150.938H232.757V150.849C232.723 150.252 232.563 149.791 232.275 149.465C231.987 149.135 231.598 148.97 231.107 148.97ZM238.616 149.186C238.438 149.156 238.246 149.141 238.039 149.141C237.268 149.141 236.746 149.469 236.471 150.125V155H235.296V148.132H236.439L236.458 148.925C236.843 148.312 237.389 148.005 238.096 148.005C238.324 148.005 238.498 148.035 238.616 148.094V149.186ZM242.063 153.28L243.663 148.132H244.919L242.158 156.06C241.731 157.203 241.052 157.774 240.121 157.774L239.898 157.755L239.46 157.672V156.72L239.778 156.746C240.176 156.746 240.485 156.665 240.705 156.504C240.929 156.344 241.113 156.049 241.257 155.622L241.517 154.924L239.067 148.132H240.349L242.063 153.28ZM251.464 153.407L253.165 148.132H254.365L251.902 155H251.007L248.519 148.132H249.718L251.464 153.407ZM258.256 155.127C257.325 155.127 256.567 154.822 255.983 154.213C255.399 153.599 255.107 152.78 255.107 151.756V151.541C255.107 150.859 255.236 150.252 255.495 149.719C255.757 149.181 256.121 148.762 256.586 148.462C257.056 148.157 257.564 148.005 258.11 148.005C259.003 148.005 259.697 148.299 260.192 148.887C260.687 149.475 260.935 150.318 260.935 151.414V151.902H256.282C256.299 152.579 256.495 153.127 256.872 153.546C257.253 153.961 257.735 154.168 258.319 154.168C258.734 154.168 259.085 154.084 259.373 153.915C259.661 153.745 259.913 153.521 260.128 153.242L260.846 153.8C260.27 154.685 259.407 155.127 258.256 155.127ZM258.11 148.97C257.636 148.97 257.238 149.143 256.917 149.49C256.595 149.833 256.396 150.315 256.32 150.938H259.76V150.849C259.726 150.252 259.566 149.791 259.278 149.465C258.99 149.135 258.601 148.97 258.11 148.97ZM265.619 149.186C265.441 149.156 265.249 149.141 265.042 149.141C264.271 149.141 263.749 149.469 263.474 150.125V155H262.299V148.132H263.442L263.461 148.925C263.846 148.312 264.392 148.005 265.099 148.005C265.327 148.005 265.501 148.035 265.619 148.094V149.186ZM269.066 153.28L270.666 148.132H271.922L269.161 156.06C268.734 157.203 268.055 157.774 267.124 157.774L266.901 157.755L266.463 157.672V156.72L266.781 156.746C267.179 156.746 267.487 156.665 267.708 156.504C267.932 156.344 268.116 156.049 268.26 155.622L268.52 154.924L266.07 148.132H267.352L269.066 153.28ZM278.467 153.407L280.168 148.132H281.368L278.905 155H278.01L275.521 148.132H276.721L278.467 153.407ZM285.259 155.127C284.328 155.127 283.57 154.822 282.986 154.213C282.402 153.599 282.11 152.78 282.11 151.756V151.541C282.11 150.859 282.239 150.252 282.498 149.719C282.76 149.181 283.124 148.762 283.589 148.462C284.059 148.157 284.567 148.005 285.113 148.005C286.006 148.005 286.7 148.299 287.195 148.887C287.69 149.475 287.938 150.318 287.938 151.414V151.902H283.285C283.302 152.579 283.498 153.127 283.875 153.546C284.256 153.961 284.738 154.168 285.322 154.168C285.737 154.168 286.088 154.084 286.376 153.915C286.664 153.745 286.916 153.521 287.131 153.242L287.849 153.8C287.273 154.685 286.41 155.127 285.259 155.127ZM285.113 148.97C284.639 148.97 284.241 149.143 283.919 149.49C283.598 149.833 283.399 150.315 283.323 150.938H286.763V150.849C286.729 150.252 286.569 149.791 286.281 149.465C285.993 149.135 285.604 148.97 285.113 148.97ZM292.622 149.186C292.444 149.156 292.252 149.141 292.044 149.141C291.274 149.141 290.752 149.469 290.477 150.125V155H289.302V148.132H290.445L290.464 148.925C290.849 148.312 291.395 148.005 292.102 148.005C292.33 148.005 292.504 148.035 292.622 148.094V149.186ZM296.069 153.28L297.668 148.132H298.925L296.164 156.06C295.737 157.203 295.057 157.774 294.126 157.774L293.904 157.755L293.466 157.672V156.72L293.784 156.746C294.181 156.746 294.49 156.665 294.71 156.504C294.935 156.344 295.119 156.049 295.263 155.622L295.523 154.924L293.073 148.132H294.355L296.069 153.28ZM113.44 168.407L115.142 163.132H116.341L113.878 170H112.983L110.495 163.132H111.695L113.44 168.407ZM120.232 170.127C119.301 170.127 118.544 169.822 117.96 169.213C117.376 168.599 117.084 167.78 117.084 166.756V166.541C117.084 165.859 117.213 165.252 117.471 164.719C117.734 164.181 118.097 163.762 118.563 163.462C119.033 163.157 119.541 163.005 120.086 163.005C120.979 163.005 121.673 163.299 122.168 163.887C122.664 164.475 122.911 165.318 122.911 166.414V166.902H118.258C118.275 167.579 118.472 168.127 118.849 168.546C119.229 168.961 119.712 169.168 120.296 169.168C120.711 169.168 121.062 169.084 121.35 168.915C121.637 168.745 121.889 168.521 122.105 168.242L122.822 168.8C122.247 169.685 121.383 170.127 120.232 170.127ZM120.086 163.97C119.612 163.97 119.215 164.143 118.893 164.49C118.571 164.833 118.373 165.315 118.296 165.938H121.737V165.849C121.703 165.252 121.542 164.791 121.254 164.465C120.967 164.135 120.577 163.97 120.086 163.97ZM127.596 164.186C127.418 164.156 127.225 164.141 127.018 164.141C126.248 164.141 125.725 164.469 125.45 165.125V170H124.276V163.132H125.418L125.438 163.925C125.823 163.312 126.368 163.005 127.075 163.005C127.304 163.005 127.477 163.035 127.596 163.094V164.186ZM131.042 168.28L132.642 163.132H133.899L131.138 171.06C130.71 172.203 130.031 172.774 129.1 172.774L128.878 172.755L128.44 172.672V171.72L128.757 171.746C129.155 171.746 129.464 171.665 129.684 171.504C129.908 171.344 130.092 171.049 130.236 170.622L130.497 169.924L128.046 163.132H129.329L131.042 168.28ZM140.443 168.407L142.145 163.132H143.344L140.881 170H139.986L137.498 163.132H138.698L140.443 168.407ZM147.235 170.127C146.304 170.127 145.547 169.822 144.963 169.213C144.379 168.599 144.087 167.78 144.087 166.756V166.541C144.087 165.859 144.216 165.252 144.474 164.719C144.736 164.181 145.1 163.762 145.566 163.462C146.036 163.157 146.543 163.005 147.089 163.005C147.982 163.005 148.676 163.299 149.171 163.887C149.667 164.475 149.914 165.318 149.914 166.414V166.902H145.261C145.278 167.579 145.475 168.127 145.852 168.546C146.232 168.961 146.715 169.168 147.299 169.168C147.714 169.168 148.065 169.084 148.353 168.915C148.64 168.745 148.892 168.521 149.108 168.242L149.825 168.8C149.25 169.685 148.386 170.127 147.235 170.127ZM147.089 163.97C146.615 163.97 146.218 164.143 145.896 164.49C145.574 164.833 145.375 165.315 145.299 165.938H148.74V165.849C148.706 165.252 148.545 164.791 148.257 164.465C147.97 164.135 147.58 163.97 147.089 163.97ZM154.599 164.186C154.421 164.156 154.228 164.141 154.021 164.141C153.251 164.141 152.728 164.469 152.453 165.125V170H151.279V163.132H152.421L152.44 163.925C152.826 163.312 153.371 163.005 154.078 163.005C154.307 163.005 154.48 163.035 154.599 163.094V164.186ZM158.045 168.28L159.645 163.132H160.902L158.141 171.06C157.713 172.203 157.034 172.774 156.103 172.774L155.881 172.755L155.443 172.672V171.72L155.76 171.746C156.158 171.746 156.467 171.665 156.687 171.504C156.911 171.344 157.095 171.049 157.239 170.622L157.5 169.924L155.049 163.132H156.332L158.045 168.28ZM167.446 168.407L169.147 163.132H170.347L167.884 170H166.989L164.501 163.132H165.701L167.446 168.407ZM174.238 170.127C173.307 170.127 172.55 169.822 171.966 169.213C171.382 168.599 171.09 167.78 171.09 166.756V166.541C171.09 165.859 171.219 165.252 171.477 164.719C171.739 164.181 172.103 163.762 172.569 163.462C173.039 163.157 173.546 163.005 174.092 163.005C174.985 163.005 175.679 163.299 176.174 163.887C176.669 164.475 176.917 165.318 176.917 166.414V166.902H172.264C172.281 167.579 172.478 168.127 172.854 168.546C173.235 168.961 173.718 169.168 174.302 169.168C174.716 169.168 175.068 169.084 175.355 168.915C175.643 168.745 175.895 168.521 176.111 168.242L176.828 168.8C176.253 169.685 175.389 170.127 174.238 170.127ZM174.092 163.97C173.618 163.97 173.221 164.143 172.899 164.49C172.577 164.833 172.378 165.315 172.302 165.938H175.743V165.849C175.709 165.252 175.548 164.791 175.26 164.465C174.972 164.135 174.583 163.97 174.092 163.97ZM181.602 164.186C181.424 164.156 181.231 164.141 181.024 164.141C180.254 164.141 179.731 164.469 179.456 165.125V170H178.282V163.132H179.424L179.443 163.925C179.828 163.312 180.374 163.005 181.081 163.005C181.31 163.005 181.483 163.035 181.602 163.094V164.186ZM185.048 168.28L186.648 163.132H187.905L185.144 171.06C184.716 172.203 184.037 172.774 183.106 172.774L182.884 172.755L182.446 172.672V171.72L182.763 171.746C183.161 171.746 183.47 171.665 183.69 171.504C183.914 171.344 184.098 171.049 184.242 170.622L184.502 169.924L182.052 163.132H183.334L185.048 168.28ZM194.449 168.407L196.15 163.132H197.35L194.887 170H193.992L191.504 163.132H192.704L194.449 168.407ZM201.241 170.127C200.31 170.127 199.553 169.822 198.969 169.213C198.385 168.599 198.093 167.78 198.093 166.756V166.541C198.093 165.859 198.222 165.252 198.48 164.719C198.742 164.181 199.106 163.762 199.572 163.462C200.042 163.157 200.549 163.005 201.095 163.005C201.988 163.005 202.682 163.299 203.177 163.887C203.672 164.475 203.92 165.318 203.92 166.414V166.902H199.267C199.284 167.579 199.481 168.127 199.857 168.546C200.238 168.961 200.721 169.168 201.305 169.168C201.719 169.168 202.071 169.084 202.358 168.915C202.646 168.745 202.898 168.521 203.114 168.242L203.831 168.8C203.256 169.685 202.392 170.127 201.241 170.127ZM201.095 163.97C200.621 163.97 200.223 164.143 199.902 164.49C199.58 164.833 199.381 165.315 199.305 165.938H202.746V165.849C202.712 165.252 202.551 164.791 202.263 164.465C201.975 164.135 201.586 163.97 201.095 163.97ZM208.604 164.186C208.427 164.156 208.234 164.141 208.027 164.141C207.257 164.141 206.734 164.469 206.459 165.125V170H205.285V163.132H206.427L206.446 163.925C206.831 163.312 207.377 163.005 208.084 163.005C208.312 163.005 208.486 163.035 208.604 163.094V164.186ZM212.051 168.28L213.651 163.132H214.908L212.146 171.06C211.719 172.203 211.04 172.774 210.109 172.774L209.887 172.755L209.449 172.672V171.72L209.766 171.746C210.164 171.746 210.473 171.665 210.693 171.504C210.917 171.344 211.101 171.049 211.245 170.622L211.505 169.924L209.055 163.132H210.337L212.051 168.28ZM221.452 168.407L223.153 163.132H224.353L221.89 170H220.995L218.507 163.132H219.707L221.452 168.407ZM228.244 170.127C227.313 170.127 226.556 169.822 225.972 169.213C225.388 168.599 225.096 167.78 225.096 166.756V166.541C225.096 165.859 225.225 165.252 225.483 164.719C225.745 164.181 226.109 163.762 226.575 163.462C227.044 163.157 227.552 163.005 228.098 163.005C228.991 163.005 229.685 163.299 230.18 163.887C230.675 164.475 230.923 165.318 230.923 166.414V166.902H226.27C226.287 167.579 226.484 168.127 226.86 168.546C227.241 168.961 227.724 169.168 228.308 169.168C228.722 169.168 229.074 169.084 229.361 168.915C229.649 168.745 229.901 168.521 230.117 168.242L230.834 168.8C230.258 169.685 229.395 170.127 228.244 170.127ZM228.098 163.97C227.624 163.97 227.226 164.143 226.905 164.49C226.583 164.833 226.384 165.315 226.308 165.938H229.749V165.849C229.715 165.252 229.554 164.791 229.266 164.465C228.978 164.135 228.589 163.97 228.098 163.97ZM235.607 164.186C235.43 164.156 235.237 164.141 235.03 164.141C234.26 164.141 233.737 164.469 233.462 165.125V170H232.288V163.132H233.43L233.449 163.925C233.834 163.312 234.38 163.005 235.087 163.005C235.315 163.005 235.489 163.035 235.607 163.094V164.186ZM239.054 168.28L240.654 163.132H241.911L239.149 171.06C238.722 172.203 238.043 172.774 237.112 172.774L236.89 172.755L236.452 172.672V171.72L236.769 171.746C237.167 171.746 237.476 171.665 237.696 171.504C237.92 171.344 238.104 171.049 238.248 170.622L238.508 169.924L236.058 163.132H237.34L239.054 168.28ZM247.465 170H246.291V160.25H247.465V170ZM249.039 166.502C249.039 165.83 249.17 165.224 249.433 164.687C249.699 164.15 250.067 163.735 250.537 163.443C251.011 163.151 251.551 163.005 252.156 163.005C253.091 163.005 253.846 163.329 254.422 163.976C255.002 164.624 255.292 165.485 255.292 166.56V166.642C255.292 167.311 255.162 167.912 254.904 168.445C254.65 168.974 254.284 169.386 253.806 169.683C253.332 169.979 252.786 170.127 252.168 170.127C251.237 170.127 250.482 169.803 249.902 169.156C249.327 168.508 249.039 167.651 249.039 166.585V166.502ZM250.22 166.642C250.22 167.404 250.395 168.015 250.747 168.477C251.102 168.938 251.576 169.168 252.168 169.168C252.765 169.168 253.239 168.936 253.59 168.47C253.942 168 254.117 167.345 254.117 166.502C254.117 165.749 253.937 165.14 253.578 164.674C253.222 164.205 252.748 163.97 252.156 163.97C251.576 163.97 251.108 164.2 250.753 164.662C250.397 165.123 250.22 165.783 250.22 166.642ZM257.875 163.132L257.913 163.995C258.438 163.335 259.123 163.005 259.97 163.005C261.421 163.005 262.153 163.824 262.166 165.461V170H260.992V165.455C260.987 164.96 260.873 164.594 260.649 164.357C260.429 164.12 260.084 164.001 259.614 164.001C259.233 164.001 258.899 164.103 258.611 164.306C258.324 164.509 258.099 164.776 257.938 165.106V170H256.764V163.132H257.875ZM263.658 166.509C263.658 165.438 263.905 164.588 264.4 163.957C264.896 163.322 265.551 163.005 266.368 163.005C267.206 163.005 267.86 163.301 268.33 163.894L268.387 163.132H269.459V169.835C269.459 170.724 269.195 171.424 268.666 171.936C268.141 172.448 267.435 172.704 266.546 172.704C266.051 172.704 265.566 172.598 265.092 172.387C264.618 172.175 264.257 171.885 264.007 171.517L264.616 170.812C265.12 171.435 265.736 171.746 266.463 171.746C267.035 171.746 267.479 171.585 267.796 171.263C268.118 170.942 268.279 170.489 268.279 169.905V169.314C267.809 169.856 267.168 170.127 266.355 170.127C265.551 170.127 264.9 169.803 264.4 169.156C263.905 168.508 263.658 167.626 263.658 166.509ZM264.838 166.642C264.838 167.417 264.997 168.026 265.314 168.47C265.632 168.91 266.076 169.13 266.647 169.13C267.388 169.13 267.932 168.794 268.279 168.121V164.985C267.919 164.329 267.38 164.001 266.66 164.001C266.089 164.001 265.642 164.224 265.321 164.668C264.999 165.112 264.838 165.77 264.838 166.642ZM277.781 164.186C277.604 164.156 277.411 164.141 277.204 164.141C276.433 164.141 275.911 164.469 275.636 165.125V170H274.461V163.132H275.604L275.623 163.925C276.008 163.312 276.554 163.005 277.261 163.005C277.489 163.005 277.663 163.035 277.781 163.094V164.186ZM281.59 170.127C280.659 170.127 279.901 169.822 279.317 169.213C278.733 168.599 278.441 167.78 278.441 166.756V166.541C278.441 165.859 278.57 165.252 278.829 164.719C279.091 164.181 279.455 163.762 279.92 163.462C280.39 163.157 280.898 163.005 281.444 163.005C282.337 163.005 283.031 163.299 283.526 163.887C284.021 164.475 284.269 165.318 284.269 166.414V166.902H279.616C279.633 167.579 279.829 168.127 280.206 168.546C280.587 168.961 281.069 169.168 281.653 169.168C282.068 169.168 282.419 169.084 282.707 168.915C282.995 168.745 283.247 168.521 283.462 168.242L284.18 168.8C283.604 169.685 282.741 170.127 281.59 170.127ZM281.444 163.97C280.97 163.97 280.572 164.143 280.25 164.49C279.929 164.833 279.73 165.315 279.654 165.938H283.094V165.849C283.06 165.252 282.9 164.791 282.612 164.465C282.324 164.135 281.935 163.97 281.444 163.97ZM291.435 166.642C291.435 167.687 291.196 168.529 290.718 169.168C290.24 169.807 289.592 170.127 288.775 170.127C287.942 170.127 287.286 169.862 286.808 169.333V172.641H285.633V163.132H286.706L286.763 163.894C287.241 163.301 287.906 163.005 288.756 163.005C289.582 163.005 290.233 163.316 290.711 163.938C291.194 164.56 291.435 165.425 291.435 166.534V166.642ZM290.261 166.509C290.261 165.734 290.096 165.123 289.766 164.674C289.436 164.226 288.983 164.001 288.407 164.001C287.696 164.001 287.163 164.317 286.808 164.947V168.229C287.159 168.855 287.696 169.168 288.42 169.168C288.983 169.168 289.429 168.946 289.759 168.502C290.094 168.053 290.261 167.389 290.261 166.509ZM294.209 170H293.035V160.25H294.209V170ZM298.341 168.28L299.941 163.132H301.198L298.437 171.06C298.009 172.203 297.33 172.774 296.399 172.774L296.177 172.755L295.739 172.672V171.72L296.056 171.746C296.454 171.746 296.763 171.665 296.983 171.504C297.207 171.344 297.391 171.049 297.535 170.622L297.795 169.924L295.345 163.132H296.627L298.341 168.28ZM303.565 167.391H302.505L302.423 160.758H303.654L303.565 167.391ZM302.378 169.41C302.378 169.219 302.436 169.061 302.55 168.934C302.668 168.802 302.842 168.737 303.07 168.737C303.299 168.737 303.472 168.802 303.591 168.934C303.709 169.061 303.769 169.219 303.769 169.41C303.769 169.6 303.709 169.759 303.591 169.886C303.472 170.008 303.299 170.07 303.07 170.07C302.842 170.07 302.668 170.008 302.55 169.886C302.436 169.759 302.378 169.6 302.378 169.41Z" fill="white"/>
<path d="M143.656 199.88C142.611 199.58 141.849 199.212 141.371 198.776C140.897 198.336 140.66 197.794 140.66 197.151C140.66 196.423 140.95 195.822 141.53 195.348C142.114 194.87 142.871 194.631 143.802 194.631C144.437 194.631 145.002 194.754 145.497 194.999C145.996 195.244 146.382 195.583 146.652 196.015C146.927 196.446 147.065 196.918 147.065 197.43H145.84C145.84 196.872 145.662 196.434 145.307 196.116C144.951 195.795 144.45 195.634 143.802 195.634C143.201 195.634 142.732 195.767 142.393 196.034C142.059 196.296 141.892 196.662 141.892 197.132C141.892 197.508 142.05 197.828 142.368 198.09C142.689 198.348 143.233 198.585 143.999 198.801C144.769 199.017 145.37 199.256 145.802 199.519C146.238 199.777 146.559 200.079 146.767 200.426C146.978 200.773 147.084 201.182 147.084 201.651C147.084 202.4 146.792 203.001 146.208 203.454C145.624 203.903 144.843 204.127 143.866 204.127C143.231 204.127 142.639 204.006 142.088 203.765C141.538 203.52 141.113 203.185 140.812 202.762C140.516 202.339 140.368 201.859 140.368 201.321H141.593C141.593 201.88 141.799 202.322 142.209 202.648C142.624 202.97 143.176 203.13 143.866 203.13C144.509 203.13 145.002 202.999 145.345 202.737C145.688 202.474 145.859 202.117 145.859 201.664C145.859 201.211 145.7 200.862 145.383 200.617C145.065 200.367 144.49 200.122 143.656 199.88ZM149.642 197.963C150.163 197.324 150.84 197.005 151.673 197.005C153.125 197.005 153.857 197.824 153.87 199.461V204H152.695V199.455C152.691 198.96 152.577 198.594 152.353 198.357C152.132 198.12 151.788 198.001 151.318 198.001C150.937 198.001 150.603 198.103 150.315 198.306C150.027 198.509 149.803 198.776 149.642 199.106V204H148.468V194.25H149.642V197.963ZM155.317 200.502C155.317 199.83 155.448 199.224 155.71 198.687C155.977 198.15 156.345 197.735 156.815 197.443C157.289 197.151 157.828 197.005 158.434 197.005C159.369 197.005 160.124 197.329 160.7 197.976C161.279 198.624 161.569 199.485 161.569 200.56V200.642C161.569 201.311 161.44 201.912 161.182 202.445C160.928 202.974 160.562 203.386 160.084 203.683C159.61 203.979 159.064 204.127 158.446 204.127C157.515 204.127 156.76 203.803 156.18 203.156C155.605 202.508 155.317 201.651 155.317 200.585V200.502ZM156.498 200.642C156.498 201.404 156.673 202.015 157.024 202.477C157.38 202.938 157.854 203.168 158.446 203.168C159.043 203.168 159.517 202.936 159.868 202.47C160.219 202 160.395 201.345 160.395 200.502C160.395 199.749 160.215 199.14 159.855 198.674C159.5 198.205 159.026 197.97 158.434 197.97C157.854 197.97 157.386 198.2 157.031 198.662C156.675 199.123 156.498 199.783 156.498 200.642ZM169.123 202.381L170.443 197.132H171.618L169.618 204H168.666L166.997 198.795L165.372 204H164.419L162.426 197.132H163.594L164.946 202.273L166.546 197.132H167.492L169.123 202.381ZM177.146 197.132L177.178 197.894C177.682 197.301 178.361 197.005 179.216 197.005C180.176 197.005 180.83 197.373 181.177 198.109C181.406 197.779 181.702 197.513 182.066 197.31C182.434 197.106 182.868 197.005 183.367 197.005C184.874 197.005 185.64 197.803 185.665 199.398V204H184.491V199.468C184.491 198.977 184.379 198.611 184.154 198.37C183.93 198.124 183.553 198.001 183.024 198.001C182.589 198.001 182.227 198.133 181.939 198.395C181.651 198.653 181.484 199.002 181.438 199.442V204H180.257V199.5C180.257 198.501 179.768 198.001 178.791 198.001C178.02 198.001 177.493 198.329 177.21 198.985V204H176.036V197.132H177.146ZM187.131 200.502C187.131 199.83 187.263 199.224 187.525 198.687C187.792 198.15 188.16 197.735 188.629 197.443C189.103 197.151 189.643 197.005 190.248 197.005C191.183 197.005 191.939 197.329 192.514 197.976C193.094 198.624 193.384 199.485 193.384 200.56V200.642C193.384 201.311 193.255 201.912 192.997 202.445C192.743 202.974 192.377 203.386 191.898 203.683C191.424 203.979 190.879 204.127 190.261 204.127C189.33 204.127 188.574 203.803 187.995 203.156C187.419 202.508 187.131 201.651 187.131 200.585V200.502ZM188.312 200.642C188.312 201.404 188.488 202.015 188.839 202.477C189.194 202.938 189.668 203.168 190.261 203.168C190.857 203.168 191.331 202.936 191.683 202.47C192.034 202 192.209 201.345 192.209 200.502C192.209 199.749 192.03 199.14 191.67 198.674C191.314 198.205 190.84 197.97 190.248 197.97C189.668 197.97 189.201 198.2 188.845 198.662C188.49 199.123 188.312 199.783 188.312 200.642ZM198.176 198.186C197.999 198.156 197.806 198.141 197.599 198.141C196.828 198.141 196.306 198.469 196.031 199.125V204H194.856V197.132H195.999L196.018 197.925C196.403 197.312 196.949 197.005 197.656 197.005C197.884 197.005 198.058 197.035 198.176 197.094V198.186ZM201.985 204.127C201.054 204.127 200.296 203.822 199.712 203.213C199.128 202.599 198.836 201.78 198.836 200.756V200.541C198.836 199.859 198.965 199.252 199.224 198.719C199.486 198.181 199.85 197.762 200.315 197.462C200.785 197.157 201.293 197.005 201.839 197.005C202.732 197.005 203.426 197.299 203.921 197.887C204.416 198.475 204.664 199.318 204.664 200.414V200.902H200.011C200.028 201.579 200.224 202.127 200.601 202.546C200.982 202.961 201.464 203.168 202.048 203.168C202.463 203.168 202.814 203.084 203.102 202.915C203.39 202.745 203.642 202.521 203.857 202.242L204.575 202.8C203.999 203.685 203.136 204.127 201.985 204.127ZM201.839 197.97C201.365 197.97 200.967 198.143 200.646 198.49C200.324 198.833 200.125 199.315 200.049 199.938H203.489V199.849C203.455 199.252 203.295 198.791 203.007 198.465C202.719 198.135 202.33 197.97 201.839 197.97Z" fill="#3FFF75"/>
</g>
<defs>
<filter id="filter0_f" x="0" y="0" width="345" height="217" filterUnits="userSpaceOnUse" color-interpolation-filters="sRGB">
<feFlood flood-opacity="0" result="BackgroundImageFix"/>
<feBlend mode="normal" in="SourceGraphic" in2="BackgroundImageFix" result="shape"/>
<feGaussianBlur stdDeviation="2.5" result="effect1_foregroundBlur"/>
</filter>
</defs>
</svg>
