<svg width="33" height="21" viewBox="0 0 33 21" fill="none" xmlns="http://www.w3.org/2000/svg">
<path d="M23.0625 11.9584C21.3125 11.9584 18.5854 12.4542 16.5 13.4167C14.4146 12.4396 11.6875 11.9584 9.93748 11.9584C6.7729 11.9584 0.458313 13.5334 0.458313 16.6979V20.7084H32.5416V16.6979C32.5416 13.5334 26.2271 11.9584 23.0625 11.9584ZM17.2291 18.5209H2.64581V16.6979C2.64581 15.9104 6.37915 14.1459 9.93748 14.1459C13.4958 14.1459 17.2291 15.9104 17.2291 16.6979V18.5209ZM30.3541 18.5209H19.4166V16.6979C19.4166 16.0271 19.125 15.4438 18.6583 14.9188C19.9416 14.4813 21.5166 14.1459 23.0625 14.1459C26.6208 14.1459 30.3541 15.9104 30.3541 16.6979V18.5209ZM9.93748 10.5C12.7521 10.5 15.0416 8.21044 15.0416 5.39585C15.0416 2.58127 12.7521 0.291687 9.93748 0.291687C7.1229 0.291687 4.83331 2.58127 4.83331 5.39585C4.83331 8.21044 7.1229 10.5 9.93748 10.5ZM9.93748 2.47919C11.5416 2.47919 12.8541 3.79169 12.8541 5.39585C12.8541 7.00002 11.5416 8.31252 9.93748 8.31252C8.33331 8.31252 7.02081 7.00002 7.02081 5.39585C7.02081 3.79169 8.33331 2.47919 9.93748 2.47919ZM23.0625 10.5C25.8771 10.5 28.1666 8.21044 28.1666 5.39585C28.1666 2.58127 25.8771 0.291687 23.0625 0.291687C20.2479 0.291687 17.9583 2.58127 17.9583 5.39585C17.9583 8.21044 20.2479 10.5 23.0625 10.5ZM23.0625 2.47919C24.6666 2.47919 25.9791 3.79169 25.9791 5.39585C25.9791 7.00002 24.6666 8.31252 23.0625 8.31252C21.4583 8.31252 20.1458 7.00002 20.1458 5.39585C20.1458 3.79169 21.4583 2.47919 23.0625 2.47919Z" fill="white"/>
</svg>
