<svg width="31" height="31" viewBox="0 0 31 31" fill="none" xmlns="http://www.w3.org/2000/svg">
<path d="M3.83335 6.74996H0.916687V27.1666C0.916687 28.7708 2.22919 30.0833 3.83335 30.0833H24.25V27.1666H3.83335V6.74996ZM27.1667 0.916626H9.66669C8.06252 0.916626 6.75002 2.22913 6.75002 3.83329V21.3333C6.75002 22.9375 8.06252 24.25 9.66669 24.25H27.1667C28.7709 24.25 30.0834 22.9375 30.0834 21.3333V3.83329C30.0834 2.22913 28.7709 0.916626 27.1667 0.916626ZM25.7084 14.0416H19.875V19.875H16.9584V14.0416H11.125V11.125H16.9584V5.29163H19.875V11.125H25.7084V14.0416Z" fill="white"/>
</svg>
