<svg width="41" height="30" viewBox="0 0 41 30" fill="none" xmlns="http://www.w3.org/2000/svg">
<path d="M6.86702 1.52861C1.75893 3.60829 1.19914 4.94522 0.989218 17.8194L0.779297 29.1091L4.62786 29.1091L8.54639 29.1091L8.54639 18.5127C8.54639 9.05507 8.68634 7.81717 9.80592 6.82684C11.2054 5.58894 14.2143 5.34135 15.8936 6.33168C16.8033 6.82684 16.9433 8.75797 16.9433 18.0175L16.9433 29.1091L20.7918 29.1091L24.6404 29.1091L24.6404 18.5622C24.6404 6.43071 24.9203 5.68797 29.3986 5.93555C33.4571 6.18313 33.737 7.02491 33.737 18.8098L33.737 29.1091L37.2357 29.1091L40.7344 29.1091L40.7344 17.5223C40.7344 6.33168 40.6644 5.93555 39.125 4.30151C35.4863 0.488765 28.4889 -0.798655 23.4508 1.38006C21.1417 2.37038 21.1417 2.37038 18.9025 1.38006C15.6837 -0.00639546 10.4357 0.092636 6.86702 1.52861Z" fill="#CCA950"/>
</svg>
