<svg width="184" height="192" viewBox="0 0 184 192" fill="none" xmlns="http://www.w3.org/2000/svg">
<path d="M0.625183 2.86616C0.854754 3.00961 1.74466 5.41542 2.63899 8.24676C3.88879 12.3572 5.21762 14.9316 9.22239 20.7634C11.9635 24.8015 17.3635 33.1963 21.1634 39.4286C25.0296 45.6496 28.7125 51.5974 29.4461 52.69C32.5136 57.0377 49.0517 71.8106 59.3658 79.3649C61.4827 80.9518 64.3749 83.0761 65.7163 84.1256C67.0679 85.2344 72.4235 89.3735 77.5597 93.4283C96.1002 107.92 113.697 118.492 131.228 125.482C140.629 129.294 146.108 132.56 149.024 136.02C151.017 138.481 154.159 140.867 154.522 140.195C154.738 139.854 151.318 129.05 150.366 127.081C149.841 126.013 149.346 125.915 146.281 126.379C144.412 126.638 141.848 126.832 140.735 126.718C139.356 126.65 140.342 126.42 143.494 126.064C146.18 125.787 148.637 125.367 148.939 125.132C149.42 124.746 148.998 123.478 146.866 118.605C146.321 117.419 146.045 117.405 136.616 119.018C131.303 119.927 126.701 120.592 126.471 120.448C126.242 120.305 130.461 119.401 135.774 118.492C141.153 117.572 145.495 116.586 145.455 116.349C145.414 116.112 144.329 114.166 143.071 112.006L140.846 108.184L128.647 110.393L116.449 112.601L125.322 110.535C130.186 109.399 135.428 108.076 136.925 107.637L139.719 106.794L136.61 103.001C133.664 99.3635 133.511 99.2678 131.513 99.975C127.196 101.505 119.547 103.544 117.014 103.916C114.082 104.357 114.215 104.334 124.74 101.133C128.643 99.9786 132.062 98.7849 132.22 98.5141C132.445 98.232 131.289 96.6636 129.627 94.938L126.772 91.833L120.733 93.2921C117.443 94.0374 111.052 95.435 106.49 96.337L98.2402 98.0525L108.392 95.4637C121.302 92.2204 125.404 91.0314 125.333 90.6172C125.283 90.3214 117.66 82.9158 115.416 80.9852C115.176 80.7826 111.641 81.6918 107.568 83.0582C103.486 84.3654 98.0958 86.0182 95.6027 86.6273C91.0712 87.7068 91.0712 87.7068 94.5661 86.5609C104.141 83.4007 113.62 80.0743 113.855 79.8514C113.978 79.7695 112.259 78.1145 110.168 76.2795C106.802 73.3836 105.991 73.0351 104.637 73.5104C103.727 73.7877 98.8425 75.5976 93.702 77.5122C88.5615 79.4267 83.779 81.0364 83.0485 81.1614C82.3079 81.2271 83.5753 80.6449 85.885 79.7627C93.1461 77.0591 104.087 72.6909 104.567 72.3042C104.803 72.0812 104.079 71.0478 102.881 70.0347C98.6526 66.4945 97.5913 65.8842 96.5895 66.421C94.8516 67.4491 80.8664 72.3989 77.2646 73.3194L73.6628 74.24L76.882 73.0804C84.0406 70.577 95.1703 66.1156 95.8299 65.5764C96.8577 64.7916 89.1916 58.7333 87.8679 59.386C85.0877 60.7142 70.9596 65.6276 67.5469 66.4548C65.3859 67.0072 64.3234 67.1889 65.2227 66.8523C79.8517 61.6706 87.0824 58.7895 86.961 58.0794C86.88 57.606 85.7018 56.7113 79.825 52.7222L76.8101 50.6799L74.1728 52.0445C69.9 54.2369 58.9594 58.6052 58.0556 58.5161C57.6369 58.4659 58.3168 58.0451 59.5381 57.5927C60.7593 57.1402 65.0163 55.2549 68.9412 53.4265C75.4572 50.3631 76.0043 49.965 75.0556 49.2137C74.4997 48.7606 73.5814 48.1869 73.076 48.0297C72.6371 47.8611 72.1476 47.3967 72.0768 46.9825C72.0059 46.5683 73.8887 47.5861 76.2149 49.1981L80.5409 52.1125L82.6494 49.2548C87.7873 42.5293 92.8662 31.0633 93.3297 25.3809C93.4031 24.2111 93.6035 23.3851 93.7667 23.5399C93.9198 23.6355 93.9837 25.2081 93.8888 27.0514C93.5999 32.1559 88.6898 43.4103 83.9763 49.8197L81.8115 52.7479L85.5196 55.6462C87.57 57.2444 89.5034 58.5582 89.7893 58.6311C90.4938 58.7542 95.5811 51.7328 98.5307 46.5996C101.163 42.0079 102.45 38.7426 103.448 34.1868C103.875 32.2867 104.228 31.5563 104.426 32.3142C105.191 36.3858 100.578 46.9803 94.6926 54.93C92.8554 57.3758 91.3761 59.5169 91.3401 59.7058C91.4109 60.12 94.1906 62.3853 97.4553 64.6894L100.011 66.4449L104.381 60.8251C109.135 54.6525 112.93 47.6693 114.067 42.7244C114.514 40.9426 115.026 39.9415 115.173 40.4035C115.718 41.5893 112.737 50.1385 110.377 54.3183C109.322 56.1431 106.757 59.9315 104.695 62.6595C101 67.4329 100.964 67.6217 102.285 68.553C103.051 69.0311 104.815 70.5565 106.274 71.8905C107.742 73.2838 109.349 74.2879 109.814 74.2084C110.611 74.0721 116.362 66.9372 119.787 61.7836C121.686 58.9008 124.878 52.3863 125.843 49.237C126.947 45.6985 127.153 47.3075 126.08 51.0235C124.468 56.7807 120.883 62.997 114.384 71.3561L111.017 75.6471L114.5 78.8275C116.361 80.519 118.106 81.926 118.438 81.8692C118.703 81.8238 121.558 78.5339 124.644 74.5955C129.137 68.8939 132.828 62.903 136.251 55.7399C136.363 55.5989 136.629 55.5534 136.869 55.7561C138.17 56.569 129.613 70.8831 123.166 78.7461C121.355 80.9439 119.942 83.0736 120.003 83.4286C120.216 84.6713 125.199 88.6304 125.858 88.0913C129.442 85.4685 138.483 74.7866 142.231 68.7252C145.774 63.0642 146.274 62.7958 143.697 68.1089C141.884 71.8907 132.018 84.5408 128.504 87.5778C127.441 88.5515 126.51 89.5025 126.56 89.7984C126.601 90.035 127.534 91.0936 128.543 92.1999C131.501 95.1048 134.972 99.018 137.678 102.453L140.115 105.508L144.215 102.309C152.662 95.7489 158.991 88.3933 160.864 82.9571C161.428 81.4598 161.904 80.6475 161.985 81.1209C162.268 82.7778 157.203 91.927 154.308 94.9802C152.748 96.6478 149.387 99.7805 146.759 101.996C140.607 107.19 140.879 106.778 142.352 108.597C143.045 109.453 144.028 110.807 144.579 111.627C145.429 113.004 145.715 113.077 147.274 112.201C151.971 109.692 160.058 101.427 163.514 95.6591C165.429 92.469 165.797 92.2234 164.798 94.7696C163.069 99.4504 154.597 109.06 148.652 113.062C147.614 113.787 146.699 114.431 146.642 114.502C146.238 114.936 149.134 121.079 149.793 121.332C151.309 121.804 163.182 112.099 166.641 107.549C168.985 104.468 168.687 105.92 166.317 109.249C164.219 112.165 157.289 118.406 152.806 121.365C151.456 122.266 150.285 123.014 150.219 123.026C150.153 123.037 150.631 124.234 151.206 125.597C153.338 130.471 156.086 139.745 156.326 142.749C156.431 144.559 157.289 147.579 158.322 150.021C160.754 155.452 169.804 171.201 174.456 178.018C178.277 183.577 179.121 186.113 178.35 189.594C177.743 192.439 178.524 192.61 181.331 190.242C183.422 188.483 183.674 187.953 183.329 185.941C183.117 184.698 182.278 182.588 181.503 181.259C179.869 178.494 179.869 178.494 174.446 171.564C169.446 165.111 164.414 156.47 161.362 149.014C158.029 141.118 157.914 140.042 160.14 136.677C162.086 133.664 165.72 124.942 164.99 125.067C164.724 125.113 164.863 124.723 165.18 124.182C166.547 122.182 168.815 109.065 168.685 103.91C168.48 94.3225 164.604 81.6475 158.386 70.4691L155.702 65.5685L155.08 68.7202C154.09 74.1272 151.924 77.8474 144.93 86.1084C144.076 87.1072 143.135 87.999 142.803 88.0558C142.471 88.1126 141.878 88.6404 141.494 89.1933C141.11 89.7462 140.517 90.274 140.118 90.3421C139.72 90.4102 140.15 89.7277 141.081 88.7767C146.661 83.4372 152.143 75.1302 153.72 69.5618C154.803 65.905 153.441 61.9356 149.648 57.3464C145.336 52.1153 142.883 50.1596 131.506 42.787C126.588 39.6084 120.013 35.1298 116.881 32.8029C109.066 27.0746 98.0104 20.3779 92.1975 17.9614C89.5437 16.8318 87.2062 15.9526 87.007 15.9867C86.6749 16.0435 78.3038 13.4555 74.3073 12.0682C73.7154 11.804 71.99 11.3074 70.4741 10.8358C68.9018 10.4347 66.1354 9.44616 64.283 8.60581C60.3125 6.97051 54.0189 4.94076 50.3994 4.159C49.0567 3.90139 46.6471 3.39994 45.0849 3.05806C36.0846 1.18674 24.4064 0.443325 10.898 0.987429C5.53041 1.17457 0.826898 1.24818 0.541043 1.17525C-0.11734 0.922427 0.0129641 2.48364 0.625183 2.86616ZM19.2529 13.871C18.6204 13.3702 18.6217 12.5782 19.4008 10.7396C19.9187 9.37205 20.1521 7.13958 19.9958 5.82642L19.6574 3.44809L20.6453 5.22809C21.5061 6.66439 21.5352 7.63387 20.9237 10.0528C20.5329 11.7641 20.2388 13.6415 20.34 14.2332C20.5526 15.4759 17.4087 17.4753 14.4767 17.9158C13.4142 18.0975 14.1402 17.547 16.4657 16.3576C19.3585 14.8883 19.9517 14.3606 19.2529 13.871ZM18.2272 23.0603C18.7888 23.1469 18.62 23.3586 17.8895 23.4835C17.1691 23.6676 16.7403 23.5582 16.9756 23.3353C17.1445 23.1237 17.732 22.9623 18.2272 23.0603ZM23.0337 19.193C23.8217 18.2056 24.926 17.4686 25.4775 17.4961C26.6007 17.6694 21.65 22.2922 20.1226 22.5534C19.3157 22.6305 19.3618 22.5008 20.2668 21.7979C20.9366 21.3179 22.1692 20.1326 23.0337 19.193ZM31.902 23.8885C32.8127 22.8192 33.6716 22.246 33.9878 22.4964C34.8138 23.3296 27.425 29.283 25.2235 29.5986C24.7586 29.6781 25.7098 28.8455 27.3048 27.7809C28.9662 26.705 31.0577 24.9465 31.902 23.8885ZM38.1223 33.483C38.7054 32.896 39.9741 31.5218 40.9411 30.382C42.4247 28.6665 42.992 28.3868 44.212 28.7263C45.8608 29.1751 46.2346 28.5631 49.0596 21.5023C50.2802 18.2483 50.5742 16.3709 50.3205 12.0901L50.094 6.76921L50.8157 12.1881C51.5431 17.2405 51.4553 17.9255 49.5827 23.3617C47.6235 28.691 47.3623 29.162 45.5029 29.48C44.374 29.673 42.636 30.7011 41.4034 31.8864C39.286 33.893 33.1267 37.4435 31.3799 37.6204C30.915 37.6999 31.963 37.0334 33.7876 36.1124C35.6121 35.1913 37.5291 34.0107 38.1223 33.483ZM28.7618 17.1171C29.1197 16.8123 29.1513 16.1978 28.8712 15.7585C28.591 15.3192 28.6169 15.0711 28.9793 15.1919C29.7142 15.4925 30.8316 9.63729 30.4369 7.32952C30.275 6.38274 30.4091 5.56805 30.8075 5.49991C31.1395 5.44312 31.5323 5.74139 31.593 6.09642C32.0225 9.00728 30.0141 19.6436 29.018 19.814C28.2211 19.9502 28.0357 17.6676 28.7618 17.1171ZM44.9067 41.5801C46.3228 40.668 48.6495 38.6865 50.1737 37.2077C51.7642 35.7176 53.2163 34.6166 53.456 34.8193C53.9917 35.154 54.1144 35.0721 48.9803 39.4217C45.5695 42.2585 38.342 46.3571 36.1866 46.543C35.7882 46.6112 37.0253 45.8514 38.9264 44.9782C40.8174 44.0457 43.5008 42.5514 44.9067 41.5801ZM30.3521 2.83712C31.3457 4.25071 31.5032 4.7719 30.8391 4.88547C30.5735 4.9309 30.1864 4.26624 29.9581 3.33082C29.6589 1.98119 29.6488 1.92204 30.3521 2.83712ZM38.4598 20.2699C40.4582 15.9693 41.0349 12.9473 40.8129 8.05201L40.7211 4.71799L41.3903 7.83146C42.3125 12.4243 39.5609 24.7103 37.5023 25.0624C36.4398 25.2441 36.6764 24.2292 38.4598 20.2699ZM64.3823 42.7561C64.5411 42.4854 63.4956 41.5679 62.108 40.648C60.654 39.7395 59.828 38.9063 60.2928 38.8268C60.7577 38.7473 61.1302 38.9272 61.1909 39.2823C61.2415 39.5781 61.9303 40.0085 62.6449 40.1908C63.7985 40.5416 64.3152 39.966 66.5995 35.7384C69.601 30.1091 71.1808 25.7583 72.0921 21.0955C72.911 16.6921 73.324 17.1088 72.8213 21.7625C72.2983 26.298 70.267 32.005 67.3016 37.4454L65.0072 41.6139L67.0373 43.0938C68.1391 43.9408 69.5425 44.5534 70.1401 44.4512C71.8003 44.1672 78.2846 35.3234 79.9713 31.198C80.7302 29.241 81.5479 25.6296 81.761 23.2788C82.2795 18.3178 82.6665 18.9825 82.5047 24.4306C82.3587 29.5716 80.0112 35.0281 75.3799 41.1189L71.3475 46.3154L68.7659 44.808L66.2506 43.2893L56.4794 47.7011C51.1542 50.1345 46.4425 52.1584 46.0441 52.2265C45.6355 52.2355 49.5301 50.2295 54.6358 47.7119C59.818 45.2421 64.1471 42.9791 64.3823 42.7561ZM52.6394 60.4169C53.201 60.5036 53.0322 60.7152 52.3017 60.8401C51.5813 61.0242 51.1525 60.9148 51.3878 60.6919C51.5566 60.4803 52.1442 60.3189 52.6394 60.4169ZM50.4771 32.588C51.2683 32.8181 51.9571 33.2485 52.0077 33.5443C52.0684 33.8994 51.4303 33.7649 50.6087 33.3573C49.777 32.8905 49.0883 32.4601 49.068 32.3418C49.0579 32.2826 49.6859 32.3579 50.4771 32.588ZM62.4583 67.8733C63.1527 67.9372 62.6417 68.1464 61.38 68.3622C60.1182 68.578 59.5667 68.5505 60.134 68.2708C60.7779 68.0389 61.8404 67.8571 62.4583 67.8733ZM57.3891 31.0405C60.2477 25.3747 61.8534 20.7759 62.3403 16.4293C62.7741 13.3708 62.8304 13.3003 63.1542 15.1938C63.3465 16.3181 62.943 19.5541 62.193 22.3622C60.0049 30.3495 55.6456 38.8299 55.17 36.0487C55.1295 35.812 56.1135 33.573 57.3891 31.0405ZM57.6302 36.846C57.763 36.8233 58.1659 37.1808 58.4562 37.6792C58.7364 38.1186 58.7104 38.3666 58.2816 38.2572C57.5569 38.0158 57.0989 36.9369 57.6302 36.846ZM71.1799 74.9082C71.8743 74.9722 71.3633 75.1814 70.1015 75.3972C68.8398 75.613 68.2883 75.5855 68.8556 75.3058C69.4995 75.0738 70.562 74.8921 71.1799 74.9082ZM79.2374 82.0568C79.9318 82.1207 79.5536 82.3072 78.4911 82.4889C77.3622 82.682 76.8771 82.6432 77.2452 82.3975C77.6898 82.1997 78.6195 82.0407 79.2374 82.0568ZM88.1898 88.4432C88.685 88.5412 88.3732 88.7164 87.4435 88.8754C86.5138 89.0344 86.1615 88.9728 86.5296 88.7272C86.9742 88.5293 87.7711 88.393 88.1898 88.4432ZM88.7892 48.3875C89.3533 46.8902 91.4238 42.2119 93.4425 38.0297C95.3948 33.8588 97.3528 29.3215 97.8145 28.0245C98.954 24.2971 99.6485 24.3611 100.316 28.2665C100.964 32.0536 100.072 37.6267 98.1613 41.2423C94.1555 48.9923 91.4538 52.3778 89.1295 52.7753C87.735 53.0138 87.635 51.6301 88.7892 48.3875ZM111.553 105.155C112.768 105.069 111.992 105.324 109.8 105.698C107.609 106.073 106.592 106.125 107.568 105.836C108.544 105.548 110.337 105.241 111.553 105.155ZM100.129 53.1475C101.739 48.9743 103.738 44.6737 104.823 43.0264C105.094 42.6146 106.104 40.1275 107.104 37.5812C109.453 31.3327 110.271 30.5228 110.848 33.8956C111.682 39.1734 110.36 45.4291 107.37 50.3256C106.576 51.6795 105.905 52.9514 105.936 53.1289C106.047 53.7798 102.931 57.5407 101.591 58.5006C98.2888 60.7708 97.8062 59.148 100.129 53.1475ZM110.619 59.3319C112.18 56.8723 114.285 53.589 115.38 52.0009C116.485 50.4719 118.41 47.3411 119.67 45.1158C120.93 42.8905 122.251 41.0202 122.516 40.9748C123.579 40.7931 123.282 47.8479 122.127 51.0905C121.204 53.6846 115.629 62.2511 114.7 62.4101C114.5 62.4442 113.748 63.2427 113.093 64.2074C112.428 65.113 110.777 66.2481 109.489 66.7119L107.026 67.4985L107.397 65.6689C107.633 64.654 109.057 61.7915 110.619 59.3319ZM119.689 68.8044C120.575 67.1911 123.549 62.6019 126.226 58.6725C128.893 54.6839 131.202 51.0001 131.321 50.4927C131.603 49.3481 132.699 47.7599 133.296 47.6577C133.96 47.5441 134.176 50.0043 133.764 52.3892C132.733 58.3514 132.245 59.8965 130.587 62.1899C129.594 63.5778 128.095 65.6005 127.327 66.7063C125.126 69.8234 122.906 72.0302 120.601 73.338C118.551 74.5412 118.485 74.5526 118.252 73.1916C118.121 72.4223 118.737 70.429 119.689 68.8044ZM128.096 77.5984C128.525 77.7078 128.571 77.5781 128.235 77.2093C127.832 76.8519 128.043 76.085 128.672 75.3683C129.311 74.7108 130.181 73.4048 130.648 72.5334C131.104 71.6027 132.47 69.6027 133.642 68.0624C134.804 66.4629 136.319 64.133 136.99 62.8611C137.661 61.5891 138.567 60.0943 138.961 59.6005C139.355 59.1068 139.99 58.0238 140.477 57.2706C141.67 55.0567 142.174 56.0058 141.969 59.9998C141.624 65.1748 140.122 68.7814 135.818 74.3898C130.051 81.832 125.139 84.682 126.73 79.5984C127.135 78.3719 127.734 77.4777 128.096 77.5984ZM133.341 87.4815C133.941 85.7954 140.235 77.8367 144.614 73.0681C145.545 72.1172 147.203 69.8237 148.401 68.0353C151.468 63.1866 152.435 64.8483 150.499 71.5134C148.692 77.7302 138.951 88.7145 134.568 89.4641C132.377 89.8389 132.454 89.8867 133.341 87.4815ZM140.557 96.9056C142.298 94.2936 157.618 75.1683 158.016 75.1002C159.012 74.9298 156.52 84.7353 155.051 86.9355C154.217 88.0527 153.357 89.4179 152.973 89.9708C152.665 90.5715 151.228 92.1572 149.76 93.5654C148.292 94.9737 146.609 96.7232 146.036 97.3693C144.778 98.8027 140.863 100.69 139.852 100.376C138.831 100.002 139.042 99.2355 140.557 96.9056Z" fill="#52C86C" fill-opacity="0.7"/>
</svg>
