<svg width="41" height="30" viewBox="0 0 41 30" fill="none" xmlns="http://www.w3.org/2000/svg">
<path d="M6.867 1.52864C1.75891 3.60832 1.19912 4.94526 0.989203 17.8195L0.779282 29.1092L4.62784 29.1092L8.54638 29.1092L8.54638 18.5127C8.54638 9.0551 8.68632 7.8172 9.80591 6.82687C11.2054 5.58897 14.2143 5.34138 15.8936 6.33171C16.8033 6.82687 16.9432 8.758 16.9432 18.0175L16.9432 29.1092L20.7918 29.1092L24.6404 29.1092L24.6404 18.5622C24.6404 6.43074 24.9203 5.688 29.3986 5.93558C33.4571 6.18316 33.737 7.02494 33.737 18.8098L33.737 29.1092L37.2356 29.1092L40.7343 29.1092L40.7343 17.5224C40.7343 6.33171 40.6644 5.93558 39.1249 4.30154C35.4863 0.488796 28.4889 -0.798624 23.4508 1.38009C21.1417 2.37041 21.1417 2.37041 18.9025 1.38009C15.6837 -0.00636494 10.4357 0.0926665 6.867 1.52864Z" fill="#CCA950"/>
</svg>
