<svg width="20" height="21" viewBox="0 0 20 21" fill="none" xmlns="http://www.w3.org/2000/svg">
<path d="M10.3794 12.1794V9.41176H19.7059C19.7971 9.89411 19.8441 10.4647 19.8441 11.0823C19.8441 13.1588 19.2765 15.7265 17.4471 17.5559C15.6676 19.4088 13.3941 20.3971 10.3824 20.3971C4.8 20.3971 0.105885 15.85 0.105885 10.2676C0.105885 4.68529 4.8 0.138229 10.3824 0.138229C13.4706 0.138229 15.6706 1.34999 17.3235 2.92941L15.3706 4.88235C14.1853 3.77058 12.5794 2.90588 10.3794 2.90588C6.30294 2.90588 3.11471 6.19117 3.11471 10.2676C3.11471 14.3441 6.30294 17.6294 10.3794 17.6294C13.0235 17.6294 14.5294 16.5676 15.4941 15.6029C16.2765 14.8206 16.7912 13.7029 16.9941 12.1765L10.3794 12.1794Z" fill="white"/>
</svg>
