<svg width="363" height="726" viewBox="0 0 363 726" fill="none" xmlns="http://www.w3.org/2000/svg">
<g filter="url(#filter0_f)">
<rect x="5" y="5" width="353" height="716" fill="black" fill-opacity="0.31"/>
<path d="M27.2114 35.9302H38.1934V38H24.2188V36.1016L34.7393 20.8877H24.3901V18.8047H37.7715V20.6636L27.2114 35.9302ZM49.9004 38C49.7598 37.7188 49.6455 37.2178 49.5576 36.4971C48.4238 37.6748 47.0703 38.2637 45.4971 38.2637C44.0908 38.2637 42.9351 37.8682 42.0298 37.0771C41.1333 36.2773 40.6851 35.2666 40.6851 34.0449C40.6851 32.5596 41.2476 31.4082 42.3726 30.5908C43.5063 29.7646 45.0972 29.3516 47.145 29.3516H49.5181V28.231C49.5181 27.3784 49.2632 26.7017 48.7534 26.2007C48.2437 25.6909 47.4922 25.436 46.499 25.436C45.6289 25.436 44.8994 25.6558 44.3105 26.0952C43.7217 26.5347 43.4272 27.0664 43.4272 27.6904H40.9751C40.9751 26.9785 41.2256 26.293 41.7266 25.6338C42.2363 24.9658 42.9219 24.4385 43.7832 24.0518C44.6533 23.665 45.6069 23.4717 46.644 23.4717C48.2876 23.4717 49.5752 23.8848 50.5068 24.7109C51.4385 25.5283 51.9219 26.6577 51.957 28.0991V34.6646C51.957 35.9741 52.124 37.0156 52.458 37.7891V38H49.9004ZM45.853 36.1411C46.6177 36.1411 47.3428 35.9434 48.0283 35.5479C48.7139 35.1523 49.2104 34.6382 49.5181 34.0054V31.0786H47.6064C44.6182 31.0786 43.124 31.9531 43.124 33.7021C43.124 34.4668 43.3789 35.0645 43.8887 35.4951C44.3984 35.9258 45.0532 36.1411 45.853 36.1411ZM67.8301 31.0259C67.8301 33.1968 67.3335 34.9458 66.3403 36.2729C65.3472 37.6001 64.0024 38.2637 62.3062 38.2637C60.5747 38.2637 59.2124 37.7144 58.2192 36.6157V43.4844H55.7803V23.7354H58.0083L58.127 25.3174C59.1201 24.0869 60.5 23.4717 62.2666 23.4717C63.9805 23.4717 65.334 24.1177 66.3271 25.4097C67.3291 26.7017 67.8301 28.499 67.8301 30.8018V31.0259ZM65.3911 30.749C65.3911 29.1406 65.0483 27.8706 64.3628 26.939C63.6772 26.0073 62.7368 25.5415 61.5415 25.5415C60.0649 25.5415 58.9575 26.1963 58.2192 27.5059V34.3218C58.9487 35.6226 60.0649 36.2729 61.5679 36.2729C62.7368 36.2729 63.6641 35.8115 64.3496 34.8887C65.0439 33.957 65.3911 32.5771 65.3911 30.749ZM77.8364 25.9238C77.4673 25.8623 77.0674 25.8315 76.6367 25.8315C75.0371 25.8315 73.9517 26.5127 73.3804 27.875V38H70.9414V23.7354H73.3145L73.354 25.3833C74.1538 24.1089 75.2876 23.4717 76.7554 23.4717C77.23 23.4717 77.5903 23.5332 77.8364 23.6562V25.9238ZM82.7407 38H80.3018V23.7354H82.7407V38ZM80.104 19.9517C80.104 19.5562 80.2227 19.2222 80.46 18.9497C80.7061 18.6772 81.0664 18.541 81.541 18.541C82.0156 18.541 82.376 18.6772 82.6221 18.9497C82.8682 19.2222 82.9912 19.5562 82.9912 19.9517C82.9912 20.3472 82.8682 20.6768 82.6221 20.9404C82.376 21.2041 82.0156 21.3359 81.541 21.3359C81.0664 21.3359 80.7061 21.2041 80.46 20.9404C80.2227 20.6768 80.104 20.3472 80.104 19.9517ZM88.9634 23.7354L89.0425 25.5283C90.1323 24.1572 91.5562 23.4717 93.314 23.4717C96.3286 23.4717 97.8491 25.1724 97.8755 28.5737V38H95.4365V28.5605C95.4277 27.5322 95.1904 26.772 94.7246 26.2798C94.2676 25.7876 93.5513 25.5415 92.5757 25.5415C91.7847 25.5415 91.0903 25.7524 90.4927 26.1743C89.895 26.5962 89.4292 27.1499 89.0952 27.8354V38H86.6562V23.7354H88.9634ZM100.67 24.21L99.2861 23.2607C100.104 22.1182 100.525 20.9141 100.552 19.6484V17.75H102.964V19.4639C102.956 20.3428 102.736 21.2217 102.305 22.1006C101.883 22.9707 101.338 23.6738 100.67 24.21ZM112.733 34.2163C112.733 33.5571 112.483 33.0474 111.982 32.687C111.49 32.3179 110.624 32.0015 109.385 31.7378C108.154 31.4741 107.174 31.1577 106.445 30.7886C105.724 30.4194 105.188 29.98 104.836 29.4702C104.494 28.9604 104.322 28.354 104.322 27.6509C104.322 26.4819 104.814 25.4932 105.799 24.6846C106.792 23.876 108.058 23.4717 109.596 23.4717C111.213 23.4717 112.522 23.8892 113.524 24.7241C114.535 25.5591 115.041 26.627 115.041 27.9277H112.588C112.588 27.2598 112.303 26.6841 111.731 26.2007C111.169 25.7173 110.457 25.4756 109.596 25.4756C108.708 25.4756 108.014 25.6689 107.513 26.0557C107.012 26.4424 106.761 26.9478 106.761 27.5718C106.761 28.1606 106.994 28.6045 107.46 28.9033C107.926 29.2021 108.765 29.4878 109.978 29.7603C111.2 30.0327 112.188 30.3579 112.944 30.7358C113.7 31.1138 114.258 31.5708 114.619 32.1069C114.988 32.6343 115.172 33.2803 115.172 34.0449C115.172 35.3193 114.663 36.3433 113.643 37.1167C112.624 37.8813 111.301 38.2637 109.675 38.2637C108.532 38.2637 107.521 38.0615 106.643 37.6572C105.764 37.2529 105.074 36.6904 104.573 35.9697C104.081 35.2402 103.834 34.4536 103.834 33.6099H106.273C106.317 34.4272 106.643 35.0776 107.249 35.561C107.864 36.0356 108.673 36.2729 109.675 36.2729C110.598 36.2729 111.336 36.0884 111.89 35.7192C112.452 35.3413 112.733 34.8403 112.733 34.2163ZM139.602 35.4819C138.951 36.4136 138.042 37.1123 136.873 37.5781C135.712 38.0352 134.359 38.2637 132.812 38.2637C131.248 38.2637 129.859 37.8989 128.646 37.1694C127.433 36.4312 126.493 35.3853 125.825 34.0317C125.166 32.6782 124.827 31.1094 124.81 29.3252V27.6509C124.81 24.7593 125.482 22.5181 126.827 20.9272C128.18 19.3364 130.079 18.541 132.522 18.541C134.526 18.541 136.139 19.0552 137.36 20.0835C138.582 21.103 139.329 22.5532 139.602 24.4341H137.07C136.596 21.894 135.084 20.624 132.535 20.624C130.839 20.624 129.551 21.2217 128.672 22.417C127.802 23.6035 127.363 25.3262 127.354 27.585V29.1538C127.354 31.3071 127.846 33.021 128.831 34.2954C129.815 35.561 131.146 36.1938 132.825 36.1938C133.774 36.1938 134.605 36.0884 135.317 35.8774C136.029 35.6665 136.618 35.3105 137.083 34.8096V30.4985H132.641V28.4419H139.602V35.4819ZM152.258 38C152.117 37.7188 152.003 37.2178 151.915 36.4971C150.781 37.6748 149.428 38.2637 147.854 38.2637C146.448 38.2637 145.292 37.8682 144.387 37.0771C143.491 36.2773 143.042 35.2666 143.042 34.0449C143.042 32.5596 143.605 31.4082 144.73 30.5908C145.864 29.7646 147.455 29.3516 149.502 29.3516H151.875V28.231C151.875 27.3784 151.621 26.7017 151.111 26.2007C150.601 25.6909 149.85 25.436 148.856 25.436C147.986 25.436 147.257 25.6558 146.668 26.0952C146.079 26.5347 145.785 27.0664 145.785 27.6904H143.333C143.333 26.9785 143.583 26.293 144.084 25.6338C144.594 24.9658 145.279 24.4385 146.141 24.0518C147.011 23.665 147.964 23.4717 149.001 23.4717C150.645 23.4717 151.933 23.8848 152.864 24.7109C153.796 25.5283 154.279 26.6577 154.314 28.0991V34.6646C154.314 35.9741 154.481 37.0156 154.815 37.7891V38H152.258ZM148.21 36.1411C148.975 36.1411 149.7 35.9434 150.386 35.5479C151.071 35.1523 151.568 34.6382 151.875 34.0054V31.0786H149.964C146.976 31.0786 145.481 31.9531 145.481 33.7021C145.481 34.4668 145.736 35.0645 146.246 35.4951C146.756 35.9258 147.411 36.1411 148.21 36.1411ZM160.788 38H158.349V17.75H160.788V38ZM167.353 38H164.914V17.75H167.353V38ZM177.188 38.2637C175.254 38.2637 173.681 37.6309 172.468 36.3652C171.255 35.0908 170.649 33.3901 170.649 31.2632V30.8149C170.649 29.3999 170.917 28.1387 171.453 27.0312C171.998 25.915 172.754 25.0449 173.721 24.4209C174.696 23.7881 175.751 23.4717 176.885 23.4717C178.739 23.4717 180.181 24.0825 181.209 25.3042C182.237 26.5259 182.751 28.2749 182.751 30.5513V31.5664H173.088C173.123 32.9727 173.532 34.1108 174.314 34.981C175.105 35.8423 176.107 36.2729 177.32 36.2729C178.181 36.2729 178.911 36.0972 179.508 35.7456C180.106 35.394 180.629 34.9282 181.077 34.3481L182.567 35.5083C181.372 37.3452 179.579 38.2637 177.188 38.2637ZM176.885 25.4756C175.9 25.4756 175.074 25.8359 174.406 26.5566C173.738 27.2686 173.325 28.2705 173.167 29.5625H180.312V29.3779C180.242 28.1387 179.908 27.1807 179.311 26.5039C178.713 25.8184 177.904 25.4756 176.885 25.4756ZM192.481 25.9238C192.112 25.8623 191.712 25.8315 191.281 25.8315C189.682 25.8315 188.596 26.5127 188.025 27.875V38H185.586V23.7354H187.959L187.999 25.3833C188.798 24.1089 189.932 23.4717 191.4 23.4717C191.875 23.4717 192.235 23.5332 192.481 23.6562V25.9238ZM199.64 34.4272L202.962 23.7354H205.572L199.837 40.2017C198.95 42.5747 197.539 43.7612 195.605 43.7612L195.144 43.7217L194.234 43.5503V41.5728L194.894 41.6255C195.72 41.6255 196.361 41.4585 196.818 41.1245C197.284 40.7905 197.667 40.1797 197.965 39.292L198.506 37.8418L193.417 23.7354H196.08L199.64 34.4272Z" fill="white"/>
<path d="M267.833 21.7501H264.917V42.1668C264.917 43.7709 266.229 45.0834 267.833 45.0834H288.25V42.1668H267.833V21.7501ZM291.167 15.9167H273.667C272.062 15.9167 270.75 17.2292 270.75 18.8334V36.3334C270.75 37.9376 272.062 39.2501 273.667 39.2501H291.167C292.771 39.2501 294.083 37.9376 294.083 36.3334V18.8334C294.083 17.2292 292.771 15.9167 291.167 15.9167ZM289.708 29.0417H283.875V34.8751H280.958V29.0417H275.125V26.1251H280.958V20.2917H283.875V26.1251H289.708V29.0417Z" fill="white"/>
<rect x="17" y="57" width="329" height="161" rx="5" fill="#C4C4C4" fill-opacity="0.35"/>
<rect x="17" y="236" width="329" height="471" rx="5" fill="#C4C4C4" fill-opacity="0.35"/>
<rect x="5.5" y="5.5" width="352" height="715" stroke="black"/>
</g>
<defs>
<filter id="filter0_f" x="0" y="0" width="363" height="726" filterUnits="userSpaceOnUse" color-interpolation-filters="sRGB">
<feFlood flood-opacity="0" result="BackgroundImageFix"/>
<feBlend mode="normal" in="SourceGraphic" in2="BackgroundImageFix" result="shape"/>
<feGaussianBlur stdDeviation="2.5" result="effect1_foregroundBlur"/>
</filter>
</defs>
</svg>
