<svg width="31" height="31" viewBox="0 0 31 31" fill="none" xmlns="http://www.w3.org/2000/svg">
<path d="M3.83335 6.75008H0.916687V27.1668C0.916687 28.7709 2.22919 30.0834 3.83335 30.0834H24.25V27.1668H3.83335V6.75008ZM27.1667 0.916748H9.66669C8.06252 0.916748 6.75002 2.22925 6.75002 3.83342V21.3334C6.75002 22.9376 8.06252 24.2501 9.66669 24.2501H27.1667C28.7709 24.2501 30.0834 22.9376 30.0834 21.3334V3.83342C30.0834 2.22925 28.7709 0.916748 27.1667 0.916748ZM25.7084 14.0417H19.875V19.8751H16.9584V14.0417H11.125V11.1251H16.9584V5.29175H19.875V11.1251H25.7084V14.0417Z" fill="white"/>
</svg>
