<svg width="45" height="34" viewBox="0 0 45 34" fill="none" xmlns="http://www.w3.org/2000/svg">
<path d="M2.40733 0.66634C1.70759 2.05279 1.91752 3.04312 3.66686 5.66747C5.27626 8.14328 5.27626 8.1928 4.01673 9.38119C2.12744 11.0647 0.588013 15.026 0.588013 17.9475C0.72796 27.009 12.6235 33.6441 28.9274 33.7432C34.3154 33.7927 35.8548 33.5946 39.2836 32.4557C42.5723 31.4159 43.552 30.8217 44.3917 29.3362C45.4413 27.5041 45.4413 27.3556 41.8726 19.7796C37.6742 10.9657 36.6945 9.62877 32.2862 6.85586C26.3384 3.14215 17.2418 2.39941 10.8042 5.07328L7.79532 6.31118L6.67574 4.47909C6.04597 3.48876 5.41621 2.10231 5.34624 1.40908C5.13631 -0.026886 3.10707 -0.522049 2.40733 0.66634ZM24.9389 8.14328C27.7379 8.93554 31.0266 10.9657 32.2162 12.5502C32.636 13.0949 34.5253 16.6601 36.3447 20.4728C40.1932 28.544 40.1932 28.6925 33.6157 29.6828C26.4084 30.7227 16.1222 28.841 11.1541 25.5235C6.53579 22.4039 4.92639 17.4028 7.23553 13.392C10.1744 8.44038 18.0815 6.0636 24.9389 8.14328Z" fill="#CCA950"/>
</svg>
