<svg width="32" height="30" viewBox="0 0 32 30" fill="none" xmlns="http://www.w3.org/2000/svg">
<path d="M13.0267 0.835352C9.52804 1.33051 6.4492 2.61794 4.28001 4.45003C0.711345 7.42101 0.43145 8.51036 0.43145 19.2059L0.43145 29.1091L3.93014 29.1091L7.35886 29.1091L7.56878 26.2372L7.7787 23.4147L16.0356 23.2662L24.2225 23.1176L24.2225 26.1381L24.2225 29.1091L28.0711 29.1091L31.9197 29.1091L31.9197 19.3049C31.9197 10.0454 31.8497 9.40165 30.2403 6.97536C28.281 4.00439 24.0826 1.57809 20.0941 1.08293C18.6946 0.934383 17.0852 0.736318 16.5254 0.637287C15.9656 0.58777 14.3562 0.686804 13.0267 0.835352ZM19.7442 6.62875C23.1729 7.76762 24.2225 9.5502 24.2225 14.0067L24.2225 17.7699L16.0356 17.6213L7.7787 17.4728L7.84867 13.7096C7.91865 9.45117 8.96825 7.86665 12.5369 6.62875C15.4058 5.63842 16.8053 5.63842 19.7442 6.62875Z" fill="#CCA950"/>
</svg>
