<svg width="34" height="30" viewBox="0 0 34 30" fill="none" xmlns="http://www.w3.org/2000/svg">
<path d="M14.1875 1.08294C7.88985 2.71697 3.13163 6.23262 1.03241 10.6891C-0.157146 13.1649 0.542593 19.0573 2.36191 21.4341C4.11126 23.9099 8.23972 26.6828 11.9483 28.0197C17.8961 30.1489 26.0131 29.8518 31.4011 27.3265L33.9901 26.1381L33.9901 20.6913L33.9901 15.2446L30.4914 15.2446L26.9927 15.2446L26.9927 19.1068C26.9927 22.8205 26.9227 23.0186 25.2434 23.5633C22.7243 24.3555 19.0157 24.306 15.9368 23.4147C10.6888 21.8302 7.95982 18.9583 7.81987 14.997C7.7499 7.91617 18.6658 3.45971 27.3426 7.02488L30.2115 8.21326L32.1008 5.88601L33.9901 3.50923L30.3515 2.12278C25.9431 0.439226 18.4559 -0.055935 14.1875 1.08294Z" fill="#CCA950"/>
</svg>
