<svg width="13" height="20" viewBox="0 0 13 20" fill="none" xmlns="http://www.w3.org/2000/svg">
<path d="M12.6912 0.747054V12.4588C12.6912 17.2765 9.84999 19.2441 6.49117 19.2441C3.32941 19.2441 1.42646 17.1294 0.708816 15.4L3.20294 14.3618C3.64705 15.4235 4.73529 16.6765 6.48823 16.6765C8.63823 16.6765 9.97058 15.35 9.97058 12.8529V11.9147H9.87058C9.22941 12.7059 7.99411 13.3971 6.43529 13.3971C3.17352 13.3971 0.185287 10.5559 0.185287 6.89999C0.185287 3.21764 3.17352 0.352936 6.43529 0.352936C7.99117 0.352936 9.22647 1.04411 9.87058 1.81176H9.97058V0.749995H12.6912V0.747054ZM10.1735 6.89999C10.1735 4.60294 8.64117 2.92352 6.69117 2.92352C4.7147 2.92352 3.05882 4.60294 3.05882 6.89999C3.05882 9.17352 4.7147 10.8294 6.69117 10.8294C8.64117 10.8294 10.1735 9.17352 10.1735 6.89999Z" fill="white"/>
</svg>
