<svg width="32" height="30" viewBox="0 0 32 30" fill="none" xmlns="http://www.w3.org/2000/svg">
<path d="M13.0267 0.835382C9.52805 1.33054 6.4492 2.61797 4.28002 4.45006C0.711353 7.42104 0.431457 8.51039 0.431457 19.2059L0.431458 29.1091L3.93015 29.1091L7.35886 29.1091L7.56878 26.2372L7.77871 23.4148L16.0356 23.2662L24.2225 23.1177L24.2225 26.1382L24.2225 29.1091L28.0711 29.1091L31.9197 29.1091L31.9197 19.3049C31.9197 10.0454 31.8497 9.40168 30.2403 6.97539C28.281 4.00442 24.0826 1.57812 20.0941 1.08296C18.6946 0.934414 17.0852 0.736349 16.5254 0.637318C15.9656 0.587801 14.3562 0.686834 13.0267 0.835382ZM19.7442 6.62878C23.1729 7.76765 24.2225 9.55023 24.2225 14.0067L24.2225 17.7699L16.0356 17.6214L7.77871 17.4728L7.84868 13.7096C7.91865 9.4512 8.96826 7.86668 12.5369 6.62878C15.4058 5.63845 16.8053 5.63845 19.7442 6.62878Z" fill="#CCA950"/>
</svg>
