<svg width="34" height="30" viewBox="0 0 34 30" fill="none" xmlns="http://www.w3.org/2000/svg">
<path d="M14.1875 1.08288C7.88988 2.71691 3.13166 6.23256 1.03244 10.689C-0.157115 13.1648 0.542624 19.0572 2.36194 21.434C4.11129 23.9098 8.23975 26.6827 11.9484 28.0197C17.8961 30.1489 26.0131 29.8518 31.4011 27.3264L33.9901 26.1381L33.9901 20.6913L33.9901 15.2445L30.4914 15.2445L26.9927 15.2445L26.9927 19.1068C26.9927 22.8205 26.9228 23.0185 25.2434 23.5632C22.7243 24.3555 19.0157 24.306 15.9369 23.4147C10.6888 21.8302 7.95985 18.9582 7.8199 14.9969C7.74993 7.91611 18.6659 3.45965 27.3426 7.02482L30.2115 8.2132L32.1008 5.88594L33.9901 3.50917L30.3515 2.12271C25.9431 0.439165 18.4559 -0.0559961 14.1875 1.08288Z" fill="#CCA950"/>
</svg>
