<svg width="45" height="34" viewBox="0 0 45 34" fill="none" xmlns="http://www.w3.org/2000/svg">
<path d="M2.40727 0.66634C1.70753 2.05279 1.91746 3.04312 3.6668 5.66747C5.2762 8.14328 5.2762 8.1928 4.01667 9.38119C2.12738 11.0647 0.587952 15.026 0.587952 17.9475C0.727899 27.009 12.6235 33.6441 28.9274 33.7432C34.3154 33.7927 35.8548 33.5946 39.2835 32.4557C42.5723 31.4159 43.5519 30.8217 44.3916 29.3362C45.4412 27.5041 45.4412 27.3556 41.8725 19.7796C37.6741 10.9657 36.6945 9.62877 32.2861 6.85586C26.3383 3.14215 17.2417 2.39941 10.8041 5.07328L7.79526 6.31118L6.67568 4.47909C6.04591 3.48876 5.41615 2.10231 5.34617 1.40908C5.13625 -0.026886 3.10701 -0.522049 2.40727 0.66634ZM24.9389 8.14328C27.7378 8.93554 31.0266 10.9657 32.2161 12.5502C32.636 13.0949 34.5253 16.6601 36.3446 20.4728C40.1932 28.544 40.1932 28.6925 33.6156 29.6828C26.4083 30.7227 16.1222 28.841 11.154 25.5235C6.53573 22.4039 4.92633 17.4028 7.23547 13.392C10.1744 8.44038 18.0814 6.0636 24.9389 8.14328Z" fill="#CCA950"/>
</svg>
