<svg width="13" height="14" viewBox="0 0 13 14" fill="none" xmlns="http://www.w3.org/2000/svg">
<path d="M10.0647 9.02353L12.2882 10.5059C11.5706 11.5676 9.84118 13.3971 6.85294 13.3971C3.14706 13.3971 0.37941 10.5324 0.37941 6.87353C0.37941 2.99412 3.17059 0.350006 6.53235 0.350006C9.91765 0.350006 11.5735 3.04412 12.1147 4.5L12.4118 5.24118L3.69118 8.85294C4.35882 10.1618 5.39706 10.8294 6.85294 10.8294C8.31177 10.8294 9.32353 10.1118 10.0647 9.02353ZM3.22059 6.67647L9.05 4.25589C8.72941 3.44118 7.7647 2.87353 6.62941 2.87353C5.17353 2.87353 3.14706 4.15883 3.22059 6.67647Z" fill="white"/>
</svg>
