<svg width="184" height="192" viewBox="0 0 184 192" fill="none" xmlns="http://www.w3.org/2000/svg">
<path d="M0.625182 2.8663C0.854753 3.00975 1.74466 5.41556 2.63899 8.2469C3.88879 12.3574 5.21761 14.9317 9.22239 20.7635C11.9635 24.8016 17.3635 33.1965 21.1634 39.4288C25.0296 45.6497 28.7125 51.5975 29.4461 52.6901C32.5136 57.0379 49.0517 71.8107 59.3658 79.3651C61.4827 80.952 64.3749 83.0762 65.7163 84.1258C67.0679 85.2345 72.4235 89.3736 77.5597 93.4284C96.1002 107.92 113.697 118.492 131.228 125.482C140.629 129.295 146.108 132.56 149.024 136.02C151.017 138.481 154.159 140.867 154.522 140.196C154.738 139.854 151.318 129.05 150.366 127.081C149.841 126.014 149.346 125.916 146.281 126.379C144.412 126.638 141.848 126.833 140.735 126.718C139.356 126.65 140.342 126.42 143.494 126.064C146.18 125.787 148.637 125.367 148.939 125.133C149.42 124.746 148.998 123.478 146.866 118.605C146.321 117.419 146.045 117.405 136.616 119.018C131.303 119.927 126.701 120.592 126.471 120.449C126.242 120.305 130.461 119.401 135.774 118.492C141.153 117.572 145.495 116.586 145.455 116.349C145.414 116.113 144.329 114.166 143.071 112.006L140.846 108.185L128.647 110.393L116.449 112.601L125.322 110.535C130.186 109.399 135.428 108.076 136.925 107.637L139.719 106.794L136.61 103.001C133.664 99.3636 133.511 99.268 131.513 99.9751C127.196 101.505 119.547 103.544 117.014 103.917C114.082 104.357 114.215 104.334 124.74 101.134C128.643 99.9787 132.062 98.785 132.22 98.5143C132.445 98.2321 131.289 96.6638 129.627 94.9382L126.772 91.8331L120.733 93.2922C117.443 94.0376 111.052 95.4351 106.49 96.3371L98.2402 98.0527L108.392 95.4638C121.302 92.2205 125.404 91.0316 125.333 90.6174C125.283 90.3215 117.66 82.9159 115.416 80.9853C115.176 80.7827 111.641 81.6919 107.568 83.0583C103.486 84.3656 98.0958 86.0183 95.6027 86.6274C91.0712 87.7069 91.0712 87.7069 94.5661 86.5611C104.141 83.4009 113.62 80.0745 113.855 79.8515C113.978 79.7696 112.259 78.1146 110.168 76.2796C106.802 73.3838 105.991 73.0353 104.637 73.5105C103.727 73.7878 98.8425 75.5978 93.702 77.5123C88.5615 79.4269 83.779 81.0366 83.0485 81.1615C82.3079 81.2273 83.5753 80.6451 85.885 79.7628C93.1461 77.0593 104.087 72.691 104.567 72.3043C104.803 72.0814 104.079 71.0479 102.881 70.0348C98.6526 66.4946 97.5913 65.8844 96.5895 66.4211C94.8516 67.4492 80.8664 72.3991 77.2646 73.3196L73.6628 74.2401L76.882 73.0805C84.0406 70.5772 95.1703 66.1157 95.8299 65.5766C96.8576 64.7917 89.1916 58.7334 87.8679 59.3862C85.0877 60.7143 70.9596 65.6277 67.5469 66.455C65.3859 67.0073 64.3234 67.189 65.2227 66.8525C79.8517 61.6707 87.0824 58.7897 86.961 58.0796C86.88 57.6062 85.7018 56.7114 79.825 52.7224L76.8101 50.68L74.1728 52.0446C69.9 54.2371 58.9594 58.6053 58.0556 58.5163C57.6369 58.4661 58.3168 58.0453 59.5381 57.5928C60.7593 57.1403 65.0163 55.255 68.9412 53.4266C75.4572 50.3632 76.0043 49.9651 75.0556 49.2138C74.4997 48.7608 73.5814 48.187 73.076 48.0298C72.6371 47.8612 72.1476 47.3968 72.0768 46.9826C72.0059 46.5684 73.8887 47.5863 76.2149 49.1983L80.5409 52.1127L82.6494 49.255C87.7873 42.5294 92.8662 31.0634 93.3297 25.381C93.4031 24.2113 93.6035 23.3852 93.7667 23.54C93.9198 23.6357 93.9837 25.2082 93.8888 27.0516C93.5999 32.1561 88.6898 43.4105 83.9763 49.8198L81.8115 52.748L85.5196 55.6463C87.57 57.2445 89.5034 58.5583 89.7893 58.6312C90.4938 58.7543 95.5811 51.7329 98.5307 46.5997C101.163 42.0081 102.45 38.7427 103.448 34.187C103.875 32.2868 104.228 31.5564 104.426 32.3143C105.191 36.3859 100.578 46.9804 94.6926 54.9301C92.8554 57.376 91.3761 59.517 91.3401 59.7059C91.4109 60.1201 94.1906 62.3854 97.4553 64.6895L100.011 66.445L104.381 60.8252C109.135 54.6526 112.93 47.6695 114.067 42.7246C114.514 40.9428 115.026 39.9416 115.173 40.4036C115.718 41.5895 112.737 50.1386 110.377 54.3185C109.322 56.1433 106.757 59.9316 104.695 62.6596C101 67.433 100.964 67.6219 102.285 68.5531C103.051 69.0313 104.815 70.5566 106.274 71.8907C107.742 73.2839 109.349 74.2881 109.814 74.2086C110.611 74.0723 116.362 66.9373 119.787 61.7838C121.686 58.901 124.878 52.3865 125.843 49.2371C126.947 45.6986 127.153 47.3077 126.08 51.0237C124.468 56.7808 120.883 62.9971 114.384 71.3562L111.017 75.6472L114.5 78.8276C116.361 80.5191 118.106 81.9261 118.438 81.8693C118.703 81.8239 121.558 78.5341 124.644 74.5957C129.137 68.894 132.828 62.9031 136.251 55.7401C136.363 55.599 136.629 55.5536 136.869 55.7562C138.17 56.5691 129.613 70.8832 123.166 78.7462C121.355 80.944 119.942 83.0737 120.003 83.4288C120.216 84.6714 125.199 88.6306 125.858 88.0914C129.442 85.4686 138.483 74.7868 142.231 68.7253C145.774 63.0643 146.274 62.796 143.697 68.1091C141.884 71.8908 132.018 84.5409 128.504 87.578C127.441 88.5516 126.51 89.5026 126.56 89.7985C126.601 90.0352 127.534 91.0937 128.543 92.2001C131.501 95.1049 134.972 99.0181 137.678 102.453L140.115 105.508L144.215 102.31C152.662 95.749 158.991 88.3935 160.864 82.9572C161.428 81.4599 161.904 80.6476 161.985 81.121C162.268 82.7779 157.203 91.9272 154.308 94.9803C152.748 96.6479 149.387 99.7806 146.759 101.996C140.607 107.19 140.879 106.778 142.352 108.597C143.045 109.453 144.028 110.807 144.579 111.627C145.429 113.004 145.715 113.077 147.274 112.201C151.971 109.692 160.058 101.427 163.514 95.6592C165.429 92.4692 165.797 92.2235 164.798 94.7698C163.069 99.4505 154.597 109.061 148.652 113.062C147.614 113.787 146.699 114.431 146.642 114.502C146.238 114.936 149.134 121.08 149.793 121.332C151.309 121.804 163.182 112.099 166.641 107.549C168.985 104.468 168.687 105.92 166.317 109.249C164.219 112.166 157.289 118.406 152.806 121.365C151.456 122.266 150.285 123.014 150.219 123.026C150.153 123.037 150.631 124.234 151.206 125.598C153.338 130.471 156.086 139.745 156.326 142.75C156.431 144.559 157.289 147.579 158.322 150.021C160.754 155.452 169.804 171.201 174.456 178.019C178.277 183.577 179.121 186.113 178.35 189.594C177.743 192.439 178.524 192.61 181.331 190.242C183.422 188.483 183.674 187.953 183.329 185.941C183.117 184.698 182.278 182.589 181.503 181.259C179.869 178.494 179.869 178.494 174.446 171.564C169.446 165.111 164.414 156.471 161.362 149.014C158.029 141.118 157.914 140.042 160.14 136.677C162.086 133.664 165.72 124.942 164.99 125.067C164.724 125.113 164.863 124.724 165.18 124.182C166.547 122.182 168.815 109.065 168.685 103.911C168.48 94.3226 164.604 81.6476 158.386 70.4692L155.702 65.5686L155.08 68.7204C154.09 74.1273 151.924 77.8475 144.93 86.1086C144.076 87.1074 143.135 87.9992 142.803 88.0559C142.471 88.1127 141.878 88.6405 141.494 89.1934C141.11 89.7463 140.517 90.2741 140.118 90.3422C139.72 90.4104 140.15 89.7278 141.081 88.7768C146.661 83.4374 152.143 75.1303 153.72 69.562C154.803 65.9052 153.441 61.9358 149.648 57.3466C145.336 52.1154 142.883 50.1597 131.506 42.7871C126.588 39.6085 120.013 35.1299 116.881 32.8031C109.066 27.0747 98.0104 20.3781 92.1975 17.9616C89.5437 16.8319 87.2062 15.9527 87.007 15.9868C86.6749 16.0436 78.3038 13.4556 74.3073 12.0684C73.7154 11.8042 71.99 11.3075 70.4741 10.8359C68.9018 10.4349 66.1354 9.4463 64.283 8.60595C60.3125 6.97065 54.0189 4.9409 50.3994 4.15914C49.0567 3.90153 46.6471 3.40007 45.0849 3.0582C36.0846 1.18687 24.4064 0.443462 10.898 0.987566C5.53041 1.17471 0.826897 1.24832 0.541042 1.17539C-0.117341 0.922564 0.0129631 2.48378 0.625182 2.8663ZM19.2529 13.8712C18.6204 13.3703 18.6217 12.5783 19.4008 10.7398C19.9187 9.37218 20.1521 7.13972 19.9958 5.82656L19.6574 3.44823L20.6453 5.22823C21.5061 6.66453 21.5352 7.634 20.9237 10.0529C20.5329 11.7642 20.2388 13.6416 20.34 14.2334C20.5526 15.476 17.4087 17.4754 14.4767 17.916C13.4142 18.0977 14.1402 17.5472 16.4657 16.3577C19.3585 14.8885 19.9517 14.3607 19.2529 13.8712ZM18.2272 23.0604C18.7888 23.1471 18.62 23.3587 17.8895 23.4836C17.1691 23.6677 16.7403 23.5583 16.9756 23.3354C17.1445 23.1238 17.732 22.9624 18.2272 23.0604ZM23.0337 19.1932C23.8217 18.2057 24.926 17.4687 25.4775 17.4962C26.6007 17.6695 21.65 22.2923 20.1226 22.5535C19.3157 22.6307 19.3618 22.501 20.2668 21.798C20.9366 21.3181 22.1692 20.1328 23.0337 19.1932ZM31.902 23.8887C32.8127 22.8194 33.6716 22.2462 33.9878 22.4966C34.8138 23.3298 27.425 29.2831 25.2235 29.5987C24.7586 29.6782 25.7098 28.8456 27.3048 27.7811C28.9662 26.7051 31.0577 24.9466 31.902 23.8887ZM38.1223 33.4831C38.7054 32.8961 39.9741 31.522 40.9411 30.3821C42.4247 28.6667 42.992 28.3869 44.212 28.7264C45.8608 29.1753 46.2346 28.5632 49.0596 21.5024C50.2802 18.2484 50.5742 16.371 50.3205 12.0902L50.094 6.76934L50.8157 12.1882C51.5431 17.2407 51.4553 17.9257 49.5827 23.3619C47.6235 28.6911 47.3623 29.1621 45.5029 29.4801C44.374 29.6732 42.636 30.7013 41.4034 31.8866C39.286 33.8931 33.1267 37.4436 31.3799 37.6206C30.915 37.7001 31.963 37.0336 33.7876 36.1125C35.6121 35.1914 37.5291 34.0109 38.1223 33.4831ZM28.7618 17.1172C29.1197 16.8124 29.1513 16.1979 28.8711 15.7586C28.591 15.3193 28.6169 15.0713 28.9793 15.192C29.7142 15.4926 30.8316 9.63742 30.4369 7.32965C30.275 6.38288 30.4091 5.56819 30.8075 5.50004C31.1395 5.44326 31.5323 5.74153 31.593 6.09656C32.0225 9.00742 30.0141 19.6437 29.018 19.8141C28.2211 19.9504 28.0357 17.6677 28.7618 17.1172ZM44.9067 41.5802C46.3228 40.6681 48.6495 38.6866 50.1737 37.2079C51.7642 35.7178 53.2163 34.6168 53.456 34.8194C53.9917 35.1541 54.1144 35.0722 48.9803 39.4218C45.5695 42.2586 38.342 46.3572 36.1866 46.5432C35.7882 46.6113 37.0253 45.8516 38.9264 44.9783C40.8174 44.0458 43.5008 42.5515 44.9067 41.5802ZM30.3521 2.83726C31.3457 4.25084 31.5032 4.77203 30.8391 4.88561C30.5735 4.93104 30.1864 4.26638 29.9581 3.33096C29.6589 1.98133 29.6488 1.92217 30.3521 2.83726ZM38.4598 20.27C40.4582 15.9695 41.0349 12.9474 40.8129 8.05215L40.7211 4.71813L41.3903 7.83159C42.3125 12.4244 39.5609 24.7104 37.5023 25.0625C36.4398 25.2442 36.6763 24.2293 38.4598 20.27ZM64.3823 42.7563C64.5411 42.4855 63.4956 41.568 62.108 40.6482C60.654 39.7397 59.828 38.9065 60.2928 38.827C60.7577 38.7475 61.1302 38.9274 61.1909 39.2824C61.2415 39.5783 61.9303 40.0086 62.6449 40.1909C63.7985 40.5418 64.3152 39.9662 66.5995 35.7385C69.601 30.1092 71.1808 25.7584 72.0921 21.0956C72.911 16.6923 73.324 17.1089 72.8213 21.7627C72.2983 26.2981 70.267 32.0051 67.3016 37.4456L65.0072 41.614L67.0373 43.094C68.1391 43.9409 69.5425 44.5535 70.1401 44.4513C71.8003 44.1674 78.2846 35.3235 79.9713 31.1981C80.7302 29.2412 81.5479 25.6298 81.761 23.279C82.2795 18.3179 82.6665 18.9826 82.5047 24.4308C82.3587 29.5717 80.0112 35.0282 75.3799 41.119L71.3475 46.3156L68.7659 44.8082L66.2506 43.2894L56.4794 47.7013C51.1542 50.1346 46.4425 52.1585 46.0441 52.2267C45.6355 52.2357 49.5301 50.2297 54.6358 47.712C59.818 45.2422 64.1471 42.9792 64.3823 42.7563ZM52.6394 60.4171C53.201 60.5037 53.0321 60.7153 52.3017 60.8402C51.5813 61.0243 51.1525 60.915 51.3878 60.692C51.5566 60.4804 52.1442 60.319 52.6394 60.4171ZM50.4771 32.5882C51.2683 32.8183 51.9571 33.2486 52.0077 33.5445C52.0684 33.8995 51.4303 33.7651 50.6087 33.3574C49.777 32.8906 49.0883 32.4603 49.068 32.3419C49.0579 32.2827 49.6859 32.358 50.4771 32.5882ZM62.4583 67.8734C63.1527 67.9373 62.6417 68.1466 61.38 68.3624C60.1182 68.5781 59.5667 68.5506 60.134 68.2709C60.7779 68.039 61.8404 67.8573 62.4583 67.8734ZM57.3891 31.0406C60.2477 25.3748 61.8534 20.776 62.3403 16.4294C62.7741 13.3709 62.8304 13.3004 63.1542 15.194C63.3465 16.3183 62.943 19.5543 62.193 22.3623C60.0049 30.3496 55.6456 38.83 55.17 36.0489C55.1295 35.8122 56.1135 33.5731 57.3891 31.0406ZM57.6302 36.8462C57.763 36.8235 58.1659 37.1809 58.4562 37.6794C58.7364 38.1187 58.7104 38.3667 58.2816 38.2574C57.5569 38.0159 57.0989 36.937 57.6302 36.8462ZM71.1799 74.9084C71.8743 74.9723 71.3633 75.1815 70.1015 75.3973C68.8398 75.6131 68.2883 75.5856 68.8556 75.3059C69.4995 75.074 70.562 74.8922 71.1799 74.9084ZM79.2374 82.0569C79.9318 82.1209 79.5536 82.3074 78.4911 82.4891C77.3622 82.6822 76.8771 82.6433 77.2452 82.3977C77.6898 82.1998 78.6195 82.0408 79.2374 82.0569ZM88.1898 88.4434C88.685 88.5414 88.3732 88.7165 87.4435 88.8755C86.5138 89.0345 86.1615 88.973 86.5296 88.7273C86.9742 88.5295 87.7711 88.3932 88.1898 88.4434ZM88.7892 48.3876C89.3533 46.8903 91.4238 42.212 93.4425 38.0298C95.3948 33.8589 97.3528 29.3217 97.8145 28.0246C98.954 24.2973 99.6485 24.3612 100.316 28.2667C100.964 32.0538 100.072 37.6268 98.1613 41.2424C94.1555 48.9924 91.4538 52.3779 89.1295 52.7754C87.735 53.0139 87.635 51.6302 88.7892 48.3876ZM111.553 105.155C112.768 105.069 111.992 105.324 109.8 105.698C107.609 106.073 106.592 106.125 107.568 105.837C108.544 105.548 110.337 105.241 111.553 105.155ZM100.129 53.1477C101.739 48.9744 103.738 44.6738 104.823 43.0265C105.094 42.6147 106.104 40.1276 107.104 37.5813C109.453 31.3328 110.271 30.5229 110.848 33.8958C111.682 39.1736 110.36 45.4293 107.37 50.3258C106.576 51.6796 105.905 52.9515 105.936 53.1291C106.047 53.78 102.931 57.5408 101.591 58.5008C98.2888 60.7709 97.8062 59.1481 100.129 53.1477ZM110.619 59.3321C112.18 56.8725 114.284 53.5892 115.38 52.001C116.485 50.4721 118.41 47.3412 119.67 45.1159C120.93 42.8906 122.251 41.0204 122.516 40.975C123.579 40.7932 123.282 47.848 122.127 51.0907C121.204 53.6847 115.629 62.2512 114.7 62.4102C114.5 62.4443 113.748 63.2429 113.093 64.2076C112.428 65.1131 110.777 66.2482 109.489 66.7121L107.026 67.4987L107.397 65.6691C107.633 64.6541 109.057 61.7917 110.619 59.3321ZM119.689 68.8045C120.575 67.1913 123.549 62.602 126.226 58.6726C128.893 54.684 131.202 51.0003 131.321 50.4928C131.603 49.3482 132.699 47.76 133.296 47.6578C133.96 47.5443 134.176 50.0045 133.764 52.3893C132.733 58.3515 132.245 59.8966 130.587 62.1901C129.594 63.578 128.095 65.6007 127.327 66.7064C125.126 69.8235 122.906 72.0303 120.601 73.3381C118.551 74.5414 118.485 74.5527 118.252 73.1917C118.121 72.4225 118.737 70.4291 119.689 68.8045ZM128.096 77.5985C128.525 77.7079 128.571 77.5782 128.235 77.2094C127.832 76.852 128.043 76.0851 128.672 75.3685C129.311 74.711 130.181 73.405 130.648 72.5335C131.104 71.6029 132.47 69.6029 133.642 68.0626C134.804 66.4631 136.319 64.1332 136.99 62.8612C137.661 61.5893 138.567 60.0944 138.961 59.6007C139.355 59.107 139.99 58.0239 140.477 57.2708C141.67 55.0568 142.174 56.006 141.969 59.9999C141.624 65.1749 140.122 68.7815 135.818 74.3899C130.051 81.8321 125.139 84.6821 126.73 79.5985C127.135 78.372 127.734 77.4778 128.096 77.5985ZM133.341 87.4817C133.941 85.7955 140.235 77.8369 144.614 73.0683C145.545 72.1173 147.203 69.8239 148.401 68.0355C151.468 63.1868 152.435 64.8484 150.499 71.5135C148.692 77.7304 138.951 88.7147 134.568 89.4643C132.377 89.8391 132.454 89.8869 133.341 87.4817ZM140.557 96.9057C142.298 94.2937 157.618 75.1685 158.016 75.1003C159.012 74.93 156.52 84.7355 155.051 86.9357C154.217 88.0528 153.357 89.418 152.973 89.9709C152.665 90.5716 151.228 92.1573 149.76 93.5656C148.292 94.9738 146.609 96.7233 146.036 97.3695C144.778 98.8028 140.863 100.69 139.852 100.376C138.831 100.002 139.042 99.2356 140.557 96.9057Z" fill="#52C86C" fill-opacity="0.7"/>
</svg>
